<svg width="496" height="362" viewBox="0 0 496 362" fill="none" xmlns="http://www.w3.org/2000/svg">
<path d="M456.766 272.406H418.443C418.443 273.507 378.946 274.401 378.946 274.401C378.326 274.868 377.761 275.404 377.262 275.998C375.762 277.787 374.942 280.049 374.947 282.384V283.98C374.948 286.626 375.999 289.164 377.87 291.035C379.741 292.906 382.279 293.957 384.925 293.958H456.766C459.412 293.956 461.948 292.904 463.819 291.033C465.69 289.163 466.742 286.626 466.744 283.98V282.384C466.74 279.739 465.688 277.203 463.818 275.332C461.947 273.462 459.411 272.409 456.766 272.406Z" fill="#3F3D56"/>
<path d="M426.429 293.562H416.052V360.614H426.429V293.562Z" fill="#3F3D56"/>
<path d="M455.964 360.249C455.964 361.371 440.239 360.683 420.841 360.683C401.444 360.683 385.719 361.371 385.719 360.249C385.719 359.128 401.444 350.237 420.841 350.237C440.239 350.237 455.964 359.128 455.964 360.249Z" fill="#3F3D56"/>
<path d="M368.948 351.431L359.162 351.43L354.506 313.683L368.95 313.683L368.948 351.431Z" fill="#FFB8B8"/>
<path d="M352.171 348.634H371.045V360.517H340.288C340.288 357.365 341.54 354.343 343.769 352.114C345.997 349.886 349.02 348.634 352.171 348.634Z" fill="#2F2E41"/>
<path d="M353.672 345.968L344.335 343.038L351.193 305.628L364.974 309.953L353.672 345.968Z" fill="#FFB8B8"/>
<path d="M338.502 338.277L356.51 343.928L352.952 355.266L323.606 346.057C324.073 344.568 324.829 343.186 325.831 341.989C326.832 340.793 328.06 339.805 329.443 339.082C330.826 338.36 332.338 337.917 333.892 337.779C335.447 337.641 337.013 337.81 338.502 338.277Z" fill="#2F2E41"/>
<path d="M430.557 265.863C430.331 263.961 429.924 262.084 429.343 260.259L427.515 257.96L422.758 251.989L422.551 251.997C422.199 252.013 420.738 252.093 418.479 252.269H418.455C417.058 252.38 415.35 252.524 413.411 252.708C412.9 252.764 412.365 252.811 411.814 252.867V261.201H421.792C422.277 261.202 422.745 261.378 423.109 261.699C423.473 262.019 423.709 262.46 423.772 262.941C423.779 263.029 423.788 263.109 423.788 263.197C423.787 263.726 423.577 264.233 423.203 264.607C422.829 264.982 422.321 265.192 421.792 265.192H363.84C363.101 265.682 362.392 266.215 361.716 266.789C359.675 268.369 358.204 270.572 357.526 273.063C354.141 287.942 347.971 315.689 346.151 323.839C346.019 324.453 346.049 325.091 346.238 325.69C346.427 326.289 346.768 326.828 347.228 327.255C347.568 327.572 347.967 327.819 348.402 327.982L355.602 330.68C355.898 330.789 356.206 330.862 356.52 330.895C356.56 330.895 356.592 330.903 356.632 330.903C356.706 330.91 356.781 330.913 356.855 330.911C357.583 330.908 358.293 330.686 358.893 330.273C359.493 329.86 359.954 329.276 360.216 328.596L365.899 313.685L374.656 290.696L378.12 281.604C382.135 282.546 415.821 290.001 427.1 277.988C428.213 276.804 429.091 275.42 429.687 273.909C430.636 271.34 430.935 268.575 430.557 265.863Z" fill="#2F2E41"/>
<path d="M440.327 268.034C440.152 267.324 439.952 266.589 439.721 265.847L433.135 257.577L432.928 257.585C432.513 257.609 430.541 257.713 427.516 257.96C424.083 258.248 419.286 258.711 413.898 259.437C413.738 259.453 413.571 259.477 413.411 259.501C412.884 259.573 412.349 259.645 411.814 259.724V261.201H421.792C422.277 261.202 422.745 261.379 423.11 261.699C423.474 262.019 423.709 262.46 423.772 262.941C423.78 263.029 423.788 263.109 423.788 263.197C423.788 263.726 423.577 264.233 423.203 264.608C422.829 264.982 422.322 265.192 421.792 265.192H386.526C384.986 265.695 383.501 266.222 382.08 266.789C374.625 269.742 369.045 273.614 367.903 278.651C367.52 280.343 367.097 282.203 366.65 284.182C364.989 291.542 362.97 300.554 361.142 308.744V308.752C360.767 310.445 360.392 312.089 360.032 313.685C358.508 320.55 357.215 326.369 356.528 329.427C356.512 329.514 356.497 329.594 356.48 329.682V329.698C356.401 330.317 356.477 330.945 356.704 331.526L356.712 331.534V331.542C356.931 332.098 357.288 332.59 357.75 332.971C358.058 333.225 358.406 333.427 358.779 333.569L365.979 336.268C366.38 336.417 366.805 336.496 367.233 336.499C367.833 336.501 368.423 336.349 368.949 336.06C369.703 335.651 370.287 334.986 370.593 334.184L386.095 293.506L388.498 287.192C392.513 288.134 426.199 295.581 437.478 283.576C439.706 281.164 440.978 278.022 441.054 274.739C441.133 272.481 440.888 270.223 440.327 268.034Z" fill="#2F2E41"/>
<path d="M439.441 197.613C439.314 197.461 439.178 197.31 439.034 197.166C436.908 194.931 434.283 193.231 431.373 192.206C428.464 191.18 425.353 190.859 422.295 191.267C419.628 191.617 416.985 192.137 414.384 192.824C411.025 193.687 407.949 195.413 405.46 197.829C403.521 199.708 401.995 201.97 400.976 204.471C399.958 206.972 399.471 209.657 399.545 212.357C399.577 213.45 399.585 214.568 399.569 215.701C399.569 216.228 399.561 216.763 399.553 217.298H407.424C407.765 217.297 408.106 217.337 408.438 217.417C409.398 217.647 410.253 218.193 410.866 218.968C411.478 219.742 411.812 220.7 411.814 221.688V258.822C412.349 258.974 412.884 259.125 413.411 259.285C413.578 259.341 413.738 259.389 413.897 259.437C414.081 259.493 414.265 259.548 414.44 259.604C416.061 260.107 417.644 260.639 419.19 261.201H421.792C422.277 261.201 422.745 261.378 423.109 261.698C423.473 262.019 423.709 262.46 423.772 262.941C424.315 263.156 424.841 263.372 425.36 263.588C427.204 264.354 428.952 265.12 430.557 265.863C432.72 266.852 434.644 267.794 436.256 268.616C436.763 268.875 437.323 269.011 437.893 269.016C438.64 269.013 439.367 268.773 439.968 268.329C440.093 268.237 440.213 268.138 440.327 268.034C440.754 267.633 441.077 267.135 441.268 266.581C441.458 266.027 441.511 265.435 441.421 264.857C440.597 258.586 440.356 252.253 440.702 245.938C440.926 240.63 441.405 235.186 442.028 229.926C442.363 227.076 442.738 224.282 443.129 221.592C443.504 219.022 443.903 216.555 444.294 214.224C444.808 211.269 444.637 208.235 443.796 205.355C442.954 202.476 441.465 199.827 439.441 197.613Z" fill="#6C63FF"/>
<path d="M406.722 198.267C406.312 198.092 405.891 197.945 405.46 197.828C403.333 197.256 401.071 197.467 399.086 198.424C397.102 199.381 395.528 201.02 394.652 203.041L389.168 215.701L388.482 217.298H407.424C407.765 217.297 408.106 217.337 408.438 217.417L409.076 215.94L411.503 210.337C412.467 208.102 412.505 205.576 411.608 203.313C410.712 201.051 408.954 199.236 406.722 198.267Z" fill="#6C63FF"/>
<path d="M423.753 185.034C434.58 185.034 443.358 176.256 443.358 165.428C443.358 154.6 434.58 145.823 423.753 145.823C412.925 145.823 404.147 154.6 404.147 165.428C404.147 176.256 412.925 185.034 423.753 185.034Z" fill="#FFB8B8"/>
<path d="M443.129 221.592L431.938 221.896L431.124 229.758L430.94 231.578L413.411 239.449L411.814 240.167V254.16L413.411 253.705L418.455 252.269H418.48L440.702 245.939L440.958 245.867C442.753 245.348 444.334 244.264 445.464 242.776C446.595 241.287 447.215 239.474 447.232 237.605L447.288 228.321L447.336 221.48L443.129 221.592Z" fill="#FFB8B8"/>
<path d="M446.769 206.042C446.695 204.839 446.385 203.662 445.856 202.578C445.327 201.495 444.59 200.526 443.687 199.727C441.863 198.114 439.473 197.292 437.043 197.441C434.612 197.59 432.341 198.699 430.728 200.523C429.115 202.347 428.292 204.737 428.442 207.168L429.663 227.092C429.696 227.616 429.844 228.127 430.096 228.587C430.349 229.048 430.699 229.448 431.124 229.758C431.798 230.261 432.63 230.507 433.47 230.452L442.028 229.925L444.622 229.766C445.094 229.743 445.557 229.624 445.983 229.417C446.408 229.209 446.787 228.918 447.097 228.56C447.165 228.485 447.229 228.405 447.288 228.321C447.795 227.642 448.044 226.804 447.99 225.958L446.769 206.042Z" fill="#6C63FF"/>
<path d="M414.44 259.604H413.411V259.5C412.884 259.572 412.349 259.644 411.814 259.724V261.2H419.19C417.641 260.642 416.058 260.109 414.44 259.604ZM414.44 259.604H413.411V259.5C412.884 259.572 412.349 259.644 411.814 259.724V261.2H419.19C417.641 260.642 416.058 260.109 414.44 259.604ZM421.792 259.604H413.411V221.688C413.408 220.389 412.984 219.127 412.202 218.091C411.42 217.055 410.323 216.3 409.076 215.94C408.54 215.779 407.984 215.698 407.424 215.701H336.381C334.793 215.703 333.272 216.334 332.149 217.456C331.027 218.579 330.396 220.1 330.394 221.688V260.801C330.394 262.389 331.025 263.911 332.148 265.034C333.271 266.157 334.793 266.788 336.381 266.788H421.792C422.676 266.787 423.529 266.459 424.187 265.869C424.846 265.278 425.263 264.466 425.36 263.587C425.376 263.457 425.384 263.327 425.384 263.196C425.383 262.244 425.004 261.331 424.331 260.658C423.657 259.984 422.744 259.605 421.792 259.604ZM423.788 263.196C423.788 263.725 423.577 264.233 423.203 264.607C422.829 264.981 422.321 265.191 421.792 265.192H336.381C335.216 265.191 334.1 264.728 333.277 263.905C332.454 263.082 331.991 261.965 331.99 260.801V221.688C331.991 220.523 332.454 219.407 333.277 218.584C334.1 217.761 335.216 217.298 336.381 217.297H407.424C407.765 217.296 408.106 217.336 408.438 217.417C409.398 217.647 410.253 218.193 410.866 218.967C411.478 219.742 411.812 220.7 411.814 221.688V261.2H421.792C422.277 261.201 422.745 261.378 423.109 261.698C423.474 262.018 423.709 262.46 423.772 262.941C423.78 263.028 423.788 263.108 423.788 263.196ZM414.44 259.604H413.411V259.5C412.884 259.572 412.349 259.644 411.814 259.724V261.2H419.19C417.641 260.642 416.058 260.109 414.44 259.604Z" fill="#3F3D56"/>
<path d="M371.9 246.035C374.545 246.035 376.689 243.891 376.689 241.246C376.689 238.601 374.545 236.457 371.9 236.457C369.255 236.457 367.11 238.601 367.11 241.246C367.11 243.891 369.255 246.035 371.9 246.035Z" fill="#6C63FF"/>
<path d="M419.566 157.651C415.013 161.719 408.907 166.086 403.331 163.105C399.669 161.148 398.039 156.857 398.894 152.794C400.432 145.489 406.748 141.541 412.863 138.35C420.813 134.202 429.585 130.584 438.487 131.663C447.388 132.741 456.086 140.097 455.665 149.054C455.327 156.257 449.445 162.976 451.307 169.943C453.181 176.954 461.691 179.669 468.94 180.025C476.188 180.382 484.167 179.764 489.917 184.192C497.253 189.84 497.135 201.651 491.913 209.296C486.692 216.94 477.874 221.242 469.212 224.512C457.737 228.845 445.124 231.975 433.278 228.79C421.433 225.605 411.063 214.24 412.8 202.098C413.534 196.969 416.233 192.365 418.837 187.885C421.441 183.406 424.06 178.736 424.607 173.583C425.062 169.29 423.699 164.55 420.532 161.784C419.959 161.303 419.553 160.652 419.373 159.925C419.193 159.198 419.247 158.433 419.529 157.74L419.566 157.651Z" fill="#2F2E41"/>
<path d="M0 282.384V283.98C0.00229764 286.626 1.05428 289.163 2.92502 291.033C4.79576 292.904 7.33237 293.956 9.978 293.958H81.8196C84.4656 293.957 87.003 292.906 88.874 291.035C90.745 289.164 91.7966 286.626 91.7976 283.98V282.384C91.8026 280.049 90.9826 277.787 89.4824 275.998C88.9831 275.404 88.4181 274.868 87.7982 274.401C87.7982 274.401 48.3013 273.507 48.3013 272.406H9.978C7.33279 272.409 4.79697 273.462 2.92653 275.332C1.05609 277.203 0.00366181 279.739 0 282.384Z" fill="#3F3D56"/>
<path d="M40.315 360.614H50.6921L50.6921 293.562H40.315L40.315 360.614Z" fill="#3F3D56"/>
<path d="M10.7803 360.249C10.7803 361.371 26.5052 360.683 45.9028 360.683C65.3005 360.683 81.0254 361.371 81.0254 360.249C81.0254 359.128 65.3005 350.237 45.9028 350.237C26.5052 350.237 10.7803 359.128 10.7803 360.249Z" fill="#3F3D56"/>
<path d="M98.2636 352.038H108.05L112.705 314.291L98.262 314.292L98.2636 352.038Z" fill="#A0616A"/>
<path d="M126.924 361.124L96.1671 361.126L96.1665 349.243L115.04 349.242C118.192 349.242 121.214 350.493 123.443 352.722C125.672 354.95 126.924 357.973 126.924 361.124Z" fill="#2F2E41"/>
<path d="M113.54 346.577L122.877 343.646L116.019 306.237L102.238 310.562L113.54 346.577Z" fill="#A0616A"/>
<path d="M143.606 346.666L114.26 355.875L110.702 344.537L128.71 338.886C131.717 337.942 134.976 338.231 137.769 339.69C140.563 341.149 142.662 343.658 143.606 346.666Z" fill="#2F2E41"/>
<path d="M106.993 329.203L89.0906 282.21C85.0743 283.153 51.3925 290.606 40.1115 278.595C36.2454 274.479 35.4914 268.514 37.8703 260.868L44.4539 252.595L44.6585 252.606C47.1477 252.737 105.672 256.017 109.684 273.67C113.067 288.553 119.244 316.3 121.057 324.45C121.241 325.295 121.115 326.177 120.703 326.937C120.29 327.696 119.619 328.282 118.811 328.588L111.611 331.288C111.21 331.439 110.785 331.516 110.356 331.516C109.627 331.516 108.916 331.295 108.315 330.882C107.715 330.469 107.254 329.884 106.993 329.203Z" fill="#2F2E41"/>
<path d="M96.6158 334.791L78.7134 287.797C74.6969 288.741 41.0153 296.193 29.7343 284.183C25.8682 280.066 25.1142 274.102 27.4932 266.455L34.0767 258.182L34.2813 258.193C36.7705 258.324 95.295 261.604 99.3069 279.258C102.689 294.14 108.867 321.888 110.68 330.038C110.863 330.882 110.738 331.765 110.325 332.524C109.913 333.284 109.242 333.87 108.433 334.175L101.234 336.875C100.833 337.026 100.408 337.103 99.979 337.103C99.2503 337.103 98.5387 336.882 97.9382 336.469C97.3377 336.056 96.8766 335.471 96.6158 334.791Z" fill="#2F2E41"/>
<path d="M80.5125 243.617C77.8593 243.616 75.2517 242.927 72.9451 241.615C70.6385 240.304 68.7119 238.416 67.354 236.137L61.6685 226.505L75.1821 219.119L80.9201 226.987L119.853 222.885C120.043 222.542 120.256 222.213 120.491 221.9C121.238 220.917 122.184 220.102 123.267 219.509C124.35 218.915 125.545 218.557 126.776 218.456C128.012 218.35 129.256 218.51 130.426 218.925C131.595 219.339 132.662 219.999 133.555 220.861C134.987 222.234 135.913 224.05 136.182 226.016C136.452 227.981 136.049 229.98 135.04 231.688C134.408 232.752 133.559 233.67 132.548 234.383C131.537 235.096 130.386 235.588 129.172 235.825C127.957 236.063 126.707 236.041 125.501 235.761C124.296 235.482 123.163 234.951 122.177 234.203C121.949 234.028 121.73 233.841 121.521 233.644L84.2311 243.151C83.0158 243.461 81.7666 243.618 80.5125 243.617Z" fill="#A0616A"/>
<path d="M27.2403 268.937C26.7015 268.548 26.2807 268.019 26.0244 267.406C25.7682 266.793 25.6866 266.122 25.7886 265.465C28.0097 250.823 25.4541 229.849 22.9191 214.831C22.4002 211.784 22.6021 208.658 23.5087 205.703C24.4153 202.748 26.0013 200.046 28.1398 197.814C30.2783 195.583 32.9097 193.883 35.8233 192.851C38.7369 191.819 41.8517 191.484 44.9181 191.872C47.586 192.225 50.2288 192.746 52.8309 193.432C57.1531 194.521 60.9763 197.047 63.672 200.597C66.3677 204.146 67.7754 208.507 67.6638 212.963C67.2847 227.455 70.2273 245.536 71.51 252.637C71.5975 253.124 71.5836 253.625 71.4691 254.107C71.3546 254.589 71.142 255.043 70.8445 255.439C70.5527 255.831 70.1822 256.158 69.7567 256.399C69.3312 256.639 68.86 256.788 68.3736 256.836C54.1584 258.287 38.8289 265.219 30.9564 269.222C30.4505 269.483 29.8898 269.62 29.3204 269.622C28.572 269.619 27.8436 269.38 27.2403 268.937Z" fill="#CCCCCC"/>
<path d="M65.6121 231.171C65.1728 230.998 64.7721 230.74 64.4331 230.412C64.0942 230.083 63.8238 229.691 63.6376 229.257L55.7099 210.944C55.2299 209.837 54.9727 208.647 54.9529 207.441C54.9331 206.235 55.1512 205.037 55.5946 203.915C56.0381 202.794 56.6982 201.77 57.5373 200.904C58.3764 200.038 59.3781 199.345 60.485 198.866C61.5918 198.387 62.7823 198.131 63.9882 198.112C65.1942 198.093 66.3921 198.312 67.5134 198.757C68.6346 199.201 69.6573 199.862 70.523 200.702C71.3887 201.542 72.0804 202.544 72.5585 203.651L80.4864 221.965C80.8635 222.839 80.8785 223.827 80.528 224.713C80.1776 225.598 79.4903 226.308 78.6169 226.688L68.3612 231.127C67.9287 231.316 67.4629 231.417 66.991 231.425C66.5192 231.432 66.0505 231.346 65.6121 231.171Z" fill="#CCCCCC"/>
<path d="M43.4589 185.642C54.2867 185.642 63.0645 176.865 63.0645 166.037C63.0645 155.209 54.2867 146.431 43.4589 146.431C32.631 146.431 23.8533 155.209 23.8533 166.037C23.8533 176.865 32.631 185.642 43.4589 185.642Z" fill="#A0616A"/>
<path d="M31.6109 183.455C31.3332 183.775 30.994 184.037 30.6134 184.224C30.2328 184.411 29.8185 184.52 29.395 184.545C28.9715 184.569 28.5475 184.508 28.1479 184.366C27.7484 184.223 27.3814 184.002 27.0688 183.716C22.6971 180.177 19.2299 175.649 16.9533 170.506C14.4045 164.43 14.0309 157.016 16.9318 151.321C19.3839 146.507 23.7859 143.443 28.1805 140.939C29.8652 139.877 31.7114 139.097 33.6467 138.628C34.6242 138.406 35.6374 138.392 36.6209 138.585C37.6044 138.779 38.5366 139.176 39.3573 139.751C40.2281 140.413 40.9021 141.3 41.3069 142.317C41.7116 143.333 41.8319 144.441 41.6547 145.52C43.6648 142.872 46.3748 140.838 49.4791 139.648C51.3837 138.828 53.5118 138.686 55.5088 139.244C58.331 140.186 60.4199 143.036 61.5824 146.098C62.5225 148.442 62.8668 150.983 62.5846 153.493C62.4615 154.691 62.0959 155.852 61.5101 156.905C60.9243 157.957 60.1304 158.88 59.1768 159.616C56.8748 161.205 53.909 161.043 51.2318 160.34C48.5546 159.637 45.9564 158.445 43.2325 158.113C40.5086 157.781 37.4898 158.501 35.8669 160.931C34.724 162.642 34.4545 164.895 34.2213 167.044L33.0084 178.218C32.9227 179.817 32.5783 181.391 31.9886 182.879C31.8888 183.087 31.7618 183.28 31.6109 183.455Z" fill="#2F2E41"/>
<path d="M102.524 304.204H70.6966C70.1808 304.206 69.6715 304.09 69.2074 303.865C68.7432 303.64 68.3365 303.312 68.0183 302.906C67.693 302.495 67.4659 302.015 67.3542 301.502C67.2426 300.99 67.2494 300.459 67.3741 299.949C70.3512 287.479 70.3511 274.483 67.3738 262.013C67.2492 261.503 67.2425 260.972 67.3542 260.46C67.4659 259.947 67.693 259.467 68.0183 259.055C68.3365 258.65 68.7432 258.322 69.2074 258.097C69.6715 257.872 70.1808 257.756 70.6966 257.757H102.524C103.338 257.759 104.124 258.049 104.743 258.576C105.363 259.103 105.775 259.833 105.907 260.636C107.983 274.12 107.983 287.842 105.907 301.326C105.775 302.129 105.363 302.858 104.743 303.385C104.124 303.913 103.338 304.203 102.524 304.204Z" fill="#CCCCCC"/>
<path d="M78.0964 275.061V274.125C78.0971 273.49 78.3497 272.882 78.7986 272.433C79.2475 271.984 79.8562 271.731 80.4912 271.73H97.1932C97.8281 271.731 98.4368 271.984 98.8858 272.433C99.3347 272.882 99.5872 273.49 99.5879 274.125V275.061C99.5872 275.696 99.3347 276.304 98.8858 276.753C98.4368 277.202 97.8281 277.455 97.1932 277.455H80.4912C79.8562 277.455 79.2475 277.202 78.7986 276.753C78.3497 276.304 78.0971 275.696 78.0964 275.061Z" fill="white"/>
<path d="M78.0964 284.915V283.979C78.0971 283.344 78.3497 282.735 78.7986 282.286C79.2475 281.837 79.8562 281.585 80.4912 281.584H97.1932C97.8281 281.585 98.4368 281.837 98.8858 282.286C99.3347 282.735 99.5872 283.344 99.5879 283.979V284.915C99.5872 285.549 99.3347 286.158 98.8858 286.607C98.4368 287.056 97.8281 287.309 97.1932 287.309H80.4912C79.8562 287.309 79.2475 287.056 78.7986 286.607C78.3497 286.158 78.0971 285.549 78.0964 284.915Z" fill="white"/>
<path d="M88.3636 246.529C88.033 246.111 87.8021 245.623 87.6886 245.102C87.5751 244.581 87.5819 244.041 87.7086 243.523C90.7348 230.848 90.7348 217.638 87.7083 204.963C87.5818 204.445 87.575 203.905 87.6886 203.385C87.8022 202.864 88.033 202.375 88.3637 201.957C88.6873 201.545 89.1006 201.212 89.5724 200.983C90.0441 200.755 90.5618 200.637 91.086 200.638H123.436C124.263 200.64 125.062 200.935 125.692 201.47C126.321 202.006 126.74 202.748 126.874 203.564C128.984 217.269 128.984 231.217 126.874 244.923C126.74 245.738 126.321 246.48 125.692 247.016C125.062 247.552 124.263 247.847 123.436 247.848H91.0859C90.5617 247.85 90.0441 247.732 89.5724 247.503C89.1006 247.275 88.6872 246.942 88.3636 246.529Z" fill="#6C63FF"/>
<path d="M117.194 218.057H100.152C99.5169 218.056 98.9082 217.804 98.4592 217.355C98.0103 216.906 97.7578 216.297 97.7571 215.662V214.645C97.7578 214.01 98.0103 213.402 98.4592 212.953C98.9082 212.504 99.5169 212.251 100.152 212.25H117.194C117.829 212.251 118.437 212.504 118.886 212.953C119.335 213.402 119.588 214.01 119.588 214.645V215.662C119.588 216.297 119.335 216.906 118.886 217.355C118.437 217.804 117.829 218.056 117.194 218.057Z" fill="white"/>
<path d="M117.194 228.073H100.152C99.5169 228.073 98.9082 227.82 98.4592 227.371C98.0103 226.922 97.7578 226.314 97.7571 225.679V224.662C97.7578 224.027 98.0103 223.418 98.4592 222.969C98.9082 222.52 99.5169 222.268 100.152 222.267H117.194C117.829 222.268 118.437 222.52 118.886 222.969C119.335 223.418 119.588 224.027 119.588 224.662V225.679C119.588 226.314 119.335 226.922 118.886 227.371C118.437 227.82 117.829 228.073 117.194 228.073Z" fill="white"/>
<path d="M73.5205 264.089C72.3548 263.682 71.288 263.034 70.3893 262.187C69.4907 261.34 68.7805 260.313 68.3049 259.174C68.1951 258.908 68.0994 258.636 68.0182 258.36L26.2527 246.472C24.4579 245.954 22.8781 244.871 21.7477 243.383C20.6173 241.896 19.9966 240.084 19.9777 238.216L19.8757 222.09L35.2705 222.502L36.2738 232.188L71.9876 248.223C72.3238 248.022 72.6736 247.844 73.0345 247.692C74.35 247.14 75.7802 246.917 77.2012 247.042C78.6223 247.167 79.9916 247.636 81.1909 248.408C82.3903 249.18 83.3837 250.233 84.0852 251.475C84.7868 252.717 85.1755 254.111 85.2177 255.537C85.26 256.963 84.9545 258.377 84.3277 259.659C83.7009 260.94 82.7716 262.05 81.6201 262.892C80.4686 263.734 79.1294 264.283 77.7183 264.491C76.3071 264.7 74.8664 264.562 73.5205 264.089Z" fill="#A0616A"/>
<path d="M20.1152 229.169C19.8016 228.817 19.5612 228.405 19.4077 227.959C19.2543 227.512 19.1909 227.04 19.2213 226.569L20.4458 206.651C20.5178 205.446 20.8267 204.268 21.3548 203.183C21.8828 202.097 22.6196 201.127 23.523 200.327C24.4265 199.527 25.4788 198.913 26.6198 198.52C27.7608 198.127 28.9681 197.963 30.1726 198.037C31.3771 198.111 32.5552 198.422 33.6394 198.952C34.7237 199.482 35.6928 200.22 36.4913 201.125C37.2899 202.03 37.9022 203.083 38.2932 204.225C38.6842 205.366 38.8463 206.574 38.7702 207.778L37.5459 227.697C37.4862 228.647 37.052 229.535 36.3386 230.166C35.6252 230.796 34.6908 231.118 33.7403 231.061L22.586 230.375C22.1149 230.348 21.6539 230.227 21.2297 230.02C20.8056 229.813 20.4268 229.524 20.1152 229.169Z" fill="#CCCCCC"/>
<path d="M253.371 10.3243C256.222 10.3243 258.533 8.01309 258.533 5.16213C258.533 2.31116 256.222 0 253.371 0C250.52 0 248.208 2.31116 248.208 5.16213C248.208 8.01309 250.52 10.3243 253.371 10.3243Z" fill="#F2F2F2"/>
<path d="M253.371 30.8975C256.222 30.8975 258.533 28.5863 258.533 25.7354C258.533 22.8844 256.222 20.5732 253.371 20.5732C250.52 20.5732 248.208 22.8844 248.208 25.7354C248.208 28.5863 250.52 30.8975 253.371 30.8975Z" fill="#F2F2F2"/>
<path d="M274.923 10.3243C277.774 10.3243 280.085 8.01309 280.085 5.16213C280.085 2.31116 277.774 0 274.923 0C272.072 0 269.761 2.31116 269.761 5.16213C269.761 8.01309 272.072 10.3243 274.923 10.3243Z" fill="#F2F2F2"/>
<path d="M274.923 30.8975C277.774 30.8975 280.085 28.5863 280.085 25.7354C280.085 22.8844 277.774 20.5732 274.923 20.5732C272.072 20.5732 269.761 22.8844 269.761 25.7354C269.761 28.5863 272.072 30.8975 274.923 30.8975Z" fill="#F2F2F2"/>
<path d="M296.476 10.3243C299.327 10.3243 301.638 8.01309 301.638 5.16213C301.638 2.31116 299.327 0 296.476 0C293.625 0 291.313 2.31116 291.313 5.16213C291.313 8.01309 293.625 10.3243 296.476 10.3243Z" fill="#F2F2F2"/>
<path d="M296.476 30.8975C299.327 30.8975 301.638 28.5863 301.638 25.7354C301.638 22.8844 299.327 20.5732 296.476 20.5732C293.625 20.5732 291.313 22.8844 291.313 25.7354C291.313 28.5863 293.625 30.8975 296.476 30.8975Z" fill="#F2F2F2"/>
<path d="M296.476 51.4712C299.327 51.4712 301.638 49.1601 301.638 46.3091C301.638 43.4581 299.327 41.147 296.476 41.147C293.625 41.147 291.313 43.4581 291.313 46.3091C291.313 49.1601 293.625 51.4712 296.476 51.4712Z" fill="#F2F2F2"/>
<path d="M296.476 72.044C299.327 72.044 301.638 69.7328 301.638 66.8819C301.638 64.0309 299.327 61.7197 296.476 61.7197C293.625 61.7197 291.313 64.0309 291.313 66.8819C291.313 69.7328 293.625 72.044 296.476 72.044Z" fill="#F2F2F2"/>
<path d="M318.028 10.3243C320.879 10.3243 323.19 8.01309 323.19 5.16213C323.19 2.31116 320.879 0 318.028 0C315.177 0 312.866 2.31116 312.866 5.16213C312.866 8.01309 315.177 10.3243 318.028 10.3243Z" fill="#F2F2F2"/>
<path d="M318.028 30.8975C320.879 30.8975 323.19 28.5863 323.19 25.7354C323.19 22.8844 320.879 20.5732 318.028 20.5732C315.177 20.5732 312.866 22.8844 312.866 25.7354C312.866 28.5863 315.177 30.8975 318.028 30.8975Z" fill="#F2F2F2"/>
<path d="M318.028 51.4712C320.879 51.4712 323.19 49.1601 323.19 46.3091C323.19 43.4581 320.879 41.147 318.028 41.147C315.177 41.147 312.866 43.4581 312.866 46.3091C312.866 49.1601 315.177 51.4712 318.028 51.4712Z" fill="#F2F2F2"/>
<path d="M318.028 72.044C320.879 72.044 323.19 69.7328 323.19 66.8819C323.19 64.0309 320.879 61.7197 318.028 61.7197C315.177 61.7197 312.866 64.0309 312.866 66.8819C312.866 69.7328 315.177 72.044 318.028 72.044Z" fill="#F2F2F2"/>
<path d="M339.581 10.3243C342.432 10.3243 344.743 8.01309 344.743 5.16213C344.743 2.31116 342.432 0 339.581 0C336.73 0 334.418 2.31116 334.418 5.16213C334.418 8.01309 336.73 10.3243 339.581 10.3243Z" fill="#F2F2F2"/>
<path d="M339.581 30.8975C342.432 30.8975 344.743 28.5863 344.743 25.7354C344.743 22.8844 342.432 20.5732 339.581 20.5732C336.73 20.5732 334.418 22.8844 334.418 25.7354C334.418 28.5863 336.73 30.8975 339.581 30.8975Z" fill="#F2F2F2"/>
<path d="M361.133 10.3243C363.984 10.3243 366.295 8.01309 366.295 5.16213C366.295 2.31116 363.984 0 361.133 0C358.282 0 355.971 2.31116 355.971 5.16213C355.971 8.01309 358.282 10.3243 361.133 10.3243Z" fill="#F2F2F2"/>
<path d="M361.133 30.8975C363.984 30.8975 366.295 28.5863 366.295 25.7354C366.295 22.8844 363.984 20.5732 361.133 20.5732C358.282 20.5732 355.971 22.8844 355.971 25.7354C355.971 28.5863 358.282 30.8975 361.133 30.8975Z" fill="#F2F2F2"/>
<path d="M160.64 122.182H95.1842C93.2795 122.18 91.4534 121.422 90.1066 120.075C88.7598 118.728 88.0022 116.902 88 114.998V43.9542C88.0022 42.0495 88.7598 40.2234 90.1066 38.8766C91.4534 37.5298 93.2795 36.7722 95.1842 36.77H160.64C162.545 36.7722 164.371 37.5298 165.717 38.8766C167.064 40.2234 167.822 42.0495 167.824 43.9542V114.998C167.822 116.902 167.064 118.728 165.717 120.075C164.371 121.422 162.545 122.18 160.64 122.182ZM95.1842 38.3665C93.7027 38.3682 92.2824 38.9574 91.2349 40.0049C90.1874 41.0525 89.5981 42.4727 89.5965 43.9542V114.998C89.5981 116.479 90.1874 117.899 91.2349 118.947C92.2824 119.994 93.7027 120.584 95.1842 120.585H160.64C162.121 120.584 163.542 119.994 164.589 118.947C165.637 117.899 166.226 116.479 166.228 114.998V43.9542C166.226 42.4727 165.637 41.0525 164.589 40.0049C163.542 38.9574 162.121 38.3682 160.64 38.3665H95.1842Z" fill="#3F3D56"/>
<path d="M280.376 122.182H214.92C213.015 122.18 211.189 121.422 209.842 120.075C208.496 118.728 207.738 116.902 207.736 114.998V43.9542C207.738 42.0495 208.496 40.2234 209.842 38.8766C211.189 37.5298 213.015 36.7722 214.92 36.77H280.376C282.28 36.7722 284.106 37.5298 285.453 38.8766C286.8 40.2234 287.558 42.0495 287.56 43.9542V114.998C287.558 116.902 286.8 118.728 285.453 120.075C284.106 121.422 282.28 122.18 280.376 122.182ZM214.92 38.3665C213.439 38.3682 212.018 38.9574 210.971 40.0049C209.923 41.0525 209.334 42.4727 209.332 43.9542V114.998C209.334 116.479 209.923 117.899 210.971 118.947C212.018 119.994 213.439 120.584 214.92 120.585H280.376C281.857 120.584 283.277 119.994 284.325 118.947C285.372 117.899 285.962 116.479 285.963 114.998V43.9542C285.962 42.4727 285.372 41.0525 284.325 40.0049C283.277 38.9574 281.857 38.3682 280.376 38.3665H214.92Z" fill="#3F3D56"/>
<path d="M108.367 66.3049H101.981C101.029 66.3039 100.116 65.9251 99.4424 65.2517C98.769 64.5783 98.3902 63.6652 98.3892 62.7129V56.3269C98.3902 55.3746 98.769 54.4615 99.4424 53.7881C100.116 53.1147 101.029 52.7359 101.981 52.7349H108.367C109.32 52.7359 110.233 53.1147 110.906 53.7881C111.579 54.4615 111.958 55.3746 111.959 56.3269V62.7129C111.958 63.6652 111.579 64.5783 110.906 65.2517C110.233 65.9251 109.32 66.3039 108.367 66.3049Z" fill="#6C63FF"/>
<path d="M108.367 86.261H101.981C101.029 86.2599 100.116 85.8811 99.4424 85.2077C98.769 84.5343 98.3902 83.6213 98.3892 82.6689V76.283C98.3902 75.3306 98.769 74.4176 99.4424 73.7442C100.116 73.0708 101.029 72.692 101.981 72.6909H108.367C109.32 72.692 110.233 73.0708 110.906 73.7442C111.579 74.4176 111.958 75.3306 111.959 76.283V82.6689C111.958 83.6213 111.579 84.5343 110.906 85.2077C110.233 85.8811 109.32 86.2599 108.367 86.261Z" fill="#CCCCCC"/>
<path d="M155.04 62.423H125.227C124.592 62.4223 123.983 62.1698 123.534 61.7209C123.085 61.2719 122.832 60.6632 122.832 60.0283V59.0114C122.832 58.3765 123.085 57.7678 123.534 57.3189C123.983 56.8699 124.592 56.6174 125.227 56.6167H155.04C155.675 56.6174 156.284 56.8699 156.733 57.3189C157.182 57.7678 157.434 58.3765 157.435 59.0114V60.0283C157.434 60.6632 157.182 61.2719 156.733 61.7209C156.284 62.1698 155.675 62.4223 155.04 62.423Z" fill="#6C63FF"/>
<path d="M228.654 65.0525H222.268C221.316 65.0514 220.402 64.6726 219.729 63.9992C219.056 63.3258 218.677 62.4128 218.676 61.4604V55.0745C218.677 54.1221 219.056 53.2091 219.729 52.5357C220.402 51.8623 221.316 51.4835 222.268 51.4824H228.654C229.606 51.4835 230.519 51.8623 231.193 52.5357C231.866 53.2091 232.245 54.1221 232.246 55.0745V61.4604C232.245 62.4128 231.866 63.3258 231.193 63.9992C230.519 64.6726 229.606 65.0514 228.654 65.0525Z" fill="#CCCCCC"/>
<path d="M275.327 61.1711H245.513C244.878 61.1704 244.269 60.9179 243.82 60.4689C243.371 60.02 243.119 59.4113 243.118 58.7764V57.7595C243.119 57.1246 243.371 56.5159 243.82 56.0669C244.269 55.618 244.878 55.3654 245.513 55.3647H275.327C275.962 55.3654 276.57 55.618 277.019 56.0669C277.468 56.5159 277.721 57.1246 277.721 57.7595V58.7764C277.721 59.4113 277.468 60.02 277.019 60.4689C276.57 60.9179 275.962 61.1704 275.327 61.1711Z" fill="#CCCCCC"/>
<path d="M275.327 80.3288H219.969C219.335 80.3281 218.726 80.0756 218.277 79.6266C217.828 79.1777 217.575 78.569 217.575 77.9341V76.9172C217.575 76.2823 217.828 75.6736 218.277 75.2246C218.726 74.7757 219.335 74.5232 219.969 74.5225H275.327C275.962 74.5232 276.57 74.7757 277.019 75.2246C277.468 75.6736 277.721 76.2823 277.722 76.9172V77.9341C277.721 78.569 277.468 79.1777 277.019 79.6266C276.57 80.0756 275.962 80.3281 275.327 80.3288Z" fill="#6C63FF"/>
<path d="M275.327 93.8986H219.969C219.335 93.8979 218.726 93.6454 218.277 93.1965C217.828 92.7475 217.575 92.1388 217.575 91.5039V90.487C217.575 89.8521 217.828 89.2434 218.277 88.7944C218.726 88.3455 219.335 88.093 219.969 88.0923H275.327C275.962 88.093 276.57 88.3455 277.019 88.7944C277.468 89.2434 277.721 89.8521 277.722 90.487V91.5039C277.721 92.1388 277.468 92.7475 277.019 93.1965C276.57 93.6454 275.962 93.8979 275.327 93.8986Z" fill="#CCCCCC"/>
<path d="M275.327 107.469H219.969C219.335 107.468 218.726 107.216 218.277 106.767C217.828 106.318 217.575 105.709 217.575 105.074V104.057C217.575 103.422 217.828 102.814 218.277 102.365C218.726 101.916 219.335 101.663 219.969 101.663H275.327C275.962 101.663 276.57 101.916 277.019 102.365C277.468 102.814 277.721 103.422 277.722 104.057V105.074C277.721 105.709 277.468 106.318 277.019 106.767C276.57 107.216 275.962 107.468 275.327 107.469Z" fill="#CCCCCC"/>
<path d="M400.112 122.182H334.656C332.751 122.18 330.925 121.422 329.579 120.075C328.232 118.728 327.474 116.902 327.472 114.998V43.9542C327.474 42.0495 328.232 40.2234 329.579 38.8766C330.925 37.5298 332.751 36.7722 334.656 36.77H400.112C402.016 36.7722 403.842 37.5298 405.189 38.8766C406.536 40.2234 407.294 42.0495 407.296 43.9542V114.998C407.294 116.902 406.536 118.728 405.189 120.075C403.842 121.422 402.016 122.18 400.112 122.182ZM334.656 38.3665C333.175 38.3682 331.754 38.9574 330.707 40.0049C329.659 41.0525 329.07 42.4727 329.068 43.9542V114.998C329.07 116.479 329.659 117.899 330.707 118.947C331.754 119.994 333.175 120.584 334.656 120.585H400.112C401.593 120.584 403.013 119.994 404.061 118.947C405.109 117.899 405.698 116.479 405.699 114.998V43.9542C405.698 42.4727 405.109 41.0525 404.061 40.0049C403.013 38.9574 401.593 38.3682 400.112 38.3665H334.656Z" fill="#3F3D56"/>
<path d="M395.063 61.1711H365.249C364.614 61.1704 364.005 60.9179 363.556 60.4689C363.107 60.02 362.855 59.4113 362.854 58.7764V57.7595C362.855 57.1246 363.107 56.5159 363.556 56.0669C364.005 55.618 364.614 55.3654 365.249 55.3647H395.063C395.698 55.3654 396.306 55.618 396.755 56.0669C397.204 56.5159 397.457 57.1246 397.457 57.7595V58.7764C397.457 59.4113 397.204 60.02 396.755 60.4689C396.306 60.9179 395.698 61.1704 395.063 61.1711Z" fill="#CCCCCC"/>
<path d="M395.063 80.3288H339.705C339.07 80.3281 338.462 80.0756 338.013 79.6266C337.564 79.1777 337.311 78.569 337.311 77.9341V76.9172C337.311 76.2823 337.564 75.6736 338.013 75.2246C338.462 74.7757 339.07 74.5232 339.705 74.5225H395.063C395.698 74.5232 396.306 74.7757 396.755 75.2246C397.204 75.6736 397.457 76.2823 397.457 76.9172V77.9341C397.457 78.569 397.204 79.1777 396.755 79.6266C396.306 80.0756 395.698 80.3281 395.063 80.3288Z" fill="#CCCCCC"/>
<path d="M395.063 93.8986H339.705C339.07 93.8979 338.462 93.6454 338.013 93.1965C337.564 92.7475 337.311 92.1388 337.311 91.5039V90.487C337.311 89.8521 337.564 89.2434 338.013 88.7944C338.462 88.3455 339.07 88.093 339.705 88.0923H395.063C395.698 88.093 396.306 88.3455 396.755 88.7944C397.204 89.2434 397.457 89.8521 397.457 90.487V91.5039C397.457 92.1388 397.204 92.7475 396.755 93.1965C396.306 93.6454 395.698 93.8979 395.063 93.8986Z" fill="#CCCCCC"/>
<path d="M395.063 107.469H339.705C339.07 107.468 338.462 107.216 338.013 106.767C337.564 106.318 337.311 105.709 337.311 105.074V104.057C337.311 103.422 337.564 102.814 338.013 102.365C338.462 101.916 339.07 101.663 339.705 101.663H395.063C395.698 101.663 396.306 101.916 396.755 102.365C397.204 102.814 397.457 103.422 397.457 104.057V105.074C397.457 105.709 397.204 106.318 396.755 106.767C396.306 107.216 395.698 107.468 395.063 107.469Z" fill="#CCCCCC"/>
<path d="M155.04 82.3791H125.227C124.592 82.3784 123.983 82.1259 123.534 81.6769C123.085 81.228 122.832 80.6193 122.832 79.9844V78.9675C122.832 78.3326 123.085 77.7239 123.534 77.2749C123.983 76.826 124.592 76.5734 125.227 76.5728H155.04C155.675 76.5734 156.284 76.826 156.733 77.2749C157.182 77.7239 157.434 78.3326 157.435 78.9675V79.9844C157.434 80.6193 157.182 81.228 156.733 81.6769C156.284 82.1259 155.675 82.3784 155.04 82.3791Z" fill="#CCCCCC"/>
<path d="M108.367 106.217H101.981C101.029 106.216 100.116 105.837 99.4424 105.164C98.769 104.49 98.3902 103.577 98.3892 102.625V96.2391C98.3902 95.2867 98.769 94.3737 99.4424 93.7002C100.116 93.0268 101.029 92.648 101.981 92.647H108.367C109.32 92.648 110.233 93.0268 110.906 93.7002C111.579 94.3737 111.958 95.2867 111.959 96.2391V102.625C111.958 103.577 111.579 104.49 110.906 105.164C110.233 105.837 109.32 106.216 108.367 106.217Z" fill="#CCCCCC"/>
<path d="M155.04 102.335H125.227C124.592 102.334 123.983 102.081 123.534 101.632C123.085 101.184 122.832 100.575 122.832 99.9399V98.923C122.832 98.2881 123.085 97.6794 123.534 97.2305C123.983 96.7815 124.592 96.529 125.227 96.5283H155.04C155.675 96.529 156.284 96.7815 156.733 97.2305C157.182 97.6794 157.434 98.2881 157.435 98.923V99.9399C157.434 100.575 157.182 101.184 156.733 101.632C156.284 102.081 155.675 102.334 155.04 102.335Z" fill="#CCCCCC"/>
<path d="M352.215 57.524C352.215 57.5056 352.217 57.4878 352.217 57.4693C352.217 56.5259 352.032 55.5917 351.671 54.7201C351.309 53.8484 350.78 53.0564 350.113 52.3893C349.446 51.7222 348.654 51.193 347.783 50.832C346.911 50.471 345.977 50.2851 345.033 50.2852V57.524H352.215Z" fill="#6C63FF"/>
<path d="M344.235 58.3223V51.0835C342.816 51.083 341.429 51.5025 340.249 52.2892C339.068 53.0759 338.147 54.1945 337.601 55.504C337.055 56.8135 336.91 58.2553 337.182 59.6476C337.455 61.0398 338.133 62.3202 339.132 63.3274C340.132 64.3345 341.406 65.0233 342.796 65.3068C344.187 65.5904 345.629 65.4561 346.943 64.9208C348.257 64.3855 349.383 63.4732 350.179 62.2989C350.975 61.1246 351.406 59.741 351.416 58.3223H344.235Z" fill="#CCCCCC"/>
</svg>
