<svg width="1209" height="668" viewBox="0 0 1209 668" fill="none" xmlns="http://www.w3.org/2000/svg">
<g filter="url(#filter0_d_635_293)">
<rect x="97" y="169" width="384" height="384" rx="24" transform="rotate(-10 97 169)" fill="#F3F3F3"/>
<rect x="98.1585" y="169.811" width="382" height="382" rx="23" transform="rotate(-10 98.1585 169.811)" stroke="#625CF9" stroke-width="2"/>
</g>
<rect x="140.669" y="136.974" width="236.992" height="48" rx="24" transform="rotate(-10 140.669 136.974)" fill="white"/>
<path d="M181.653 153.401C181.37 151.794 181.486 150.287 182.002 148.88C182.533 147.47 183.374 146.298 184.526 145.364C185.69 144.411 187.036 143.8 188.565 143.531C190.314 143.222 191.942 143.382 193.45 144.01C194.971 144.619 196.177 145.657 197.07 147.124L193.832 147.695C193.254 146.904 192.549 146.362 191.717 146.07C190.886 145.778 189.974 145.719 188.981 145.894C187.894 146.086 186.968 146.501 186.203 147.14C185.439 147.778 184.893 148.597 184.565 149.597C184.254 150.595 184.205 151.7 184.419 152.913C184.633 154.127 185.057 155.148 185.691 155.979C186.34 156.807 187.135 157.398 188.075 157.752C189.012 158.09 190.024 158.164 191.111 157.972C192.104 157.797 192.941 157.43 193.622 156.871C194.303 156.312 194.78 155.562 195.053 154.621L198.291 154.05C197.954 155.734 197.175 157.122 195.955 158.215C194.75 159.304 193.273 160.004 191.524 160.312C189.979 160.584 188.507 160.478 187.105 159.994C185.701 159.495 184.508 158.673 183.527 157.53C182.561 156.385 181.937 155.008 181.653 153.401ZM207.973 157.485C206.744 157.701 205.584 157.621 204.495 157.245C203.402 156.853 202.483 156.202 201.738 155.294C200.99 154.37 200.498 153.238 200.262 151.899C200.028 150.575 200.113 149.35 200.515 148.223C200.918 147.096 201.575 146.168 202.486 145.438C203.397 144.709 204.475 144.235 205.72 144.015C206.965 143.796 208.14 143.873 209.246 144.246C210.351 144.62 211.286 145.268 212.049 146.189C212.813 147.11 213.312 148.233 213.545 149.557C213.778 150.88 213.686 152.107 213.268 153.237C212.85 154.366 212.171 155.307 211.231 156.057C210.304 156.789 209.218 157.265 207.973 157.485ZM207.56 155.145C208.254 155.022 208.871 154.743 209.411 154.307C209.967 153.867 210.376 153.283 210.637 152.555C210.899 151.827 210.946 150.99 210.78 150.044C210.613 149.099 210.291 148.335 209.815 147.753C209.336 147.155 208.768 146.743 208.111 146.518C207.454 146.293 206.778 146.241 206.085 146.363C205.392 146.486 204.775 146.765 204.235 147.201C203.71 147.635 203.333 148.213 203.103 148.936C202.87 149.644 202.837 150.47 203.004 151.415C203.251 152.818 203.797 153.842 204.642 154.489C205.5 155.118 206.473 155.336 207.56 155.145ZM221.596 141.216C222.62 141.035 223.571 141.087 224.45 141.371C225.344 141.652 226.093 142.169 226.698 142.924C227.302 143.678 227.708 144.647 227.917 145.828L229.271 153.51L226.6 153.981L225.317 146.701C225.111 145.535 224.663 144.696 223.971 144.184C223.277 143.657 222.426 143.482 221.417 143.66C220.409 143.838 219.661 144.295 219.173 145.03C218.699 145.748 218.564 146.689 218.77 147.855L220.053 155.135L217.359 155.61L215.062 142.587L217.757 142.112L218.019 143.601C218.366 142.988 218.852 142.471 219.477 142.052C220.117 141.631 220.823 141.352 221.596 141.216ZM237.473 152.283C236.448 152.464 235.495 152.445 234.611 152.227C233.741 151.99 233.014 151.599 232.43 151.052C231.844 150.489 231.465 149.817 231.295 149.034L234.084 148.543C234.228 149.086 234.57 149.505 235.109 149.8C235.662 150.076 236.3 150.15 237.025 150.022C237.781 149.889 238.339 149.644 238.699 149.288C239.072 148.914 239.218 148.498 239.137 148.041C239.051 147.553 238.751 147.232 238.236 147.079C237.738 146.923 236.959 146.793 235.901 146.687C234.877 146.591 234.035 146.472 233.376 146.328C232.717 146.184 232.113 145.892 231.565 145.453C231.032 145.011 230.69 144.364 230.54 143.513C230.418 142.82 230.512 142.154 230.822 141.514C231.128 140.859 231.631 140.299 232.329 139.835C233.043 139.368 233.896 139.047 234.888 138.872C236.37 138.611 237.626 138.779 238.657 139.377C239.702 139.957 240.37 140.887 240.66 142.168L237.966 142.643C237.816 142.068 237.498 141.645 237.011 141.373C236.525 141.102 235.919 141.03 235.194 141.158C234.485 141.283 233.965 141.512 233.634 141.847C233.303 142.182 233.176 142.569 233.254 143.011C233.315 143.357 233.493 143.627 233.787 143.818C234.08 144.01 234.421 144.145 234.808 144.223C235.193 144.285 235.758 144.356 236.503 144.436C237.493 144.521 238.311 144.645 238.957 144.808C239.616 144.951 240.21 145.236 240.741 145.663C241.271 146.089 241.617 146.719 241.78 147.551C241.911 148.292 241.823 148.99 241.516 149.645C241.209 150.3 240.707 150.86 240.009 151.324C239.326 151.786 238.481 152.105 237.473 152.283ZM254.831 135.575L257.128 148.598L254.433 149.073L254.162 147.537C253.831 148.147 253.347 148.672 252.709 149.109C252.084 149.528 251.386 149.805 250.614 149.941C249.59 150.122 248.63 150.072 247.736 149.791C246.857 149.507 246.108 148.989 245.488 148.238C244.884 147.483 244.478 146.515 244.269 145.333L242.919 137.675L245.59 137.204L246.869 144.46C247.075 145.626 247.525 146.473 248.219 147.001C248.91 147.512 249.76 147.679 250.769 147.502C251.777 147.324 252.519 146.876 252.993 146.159C253.481 145.423 253.622 144.472 253.416 143.306L252.137 136.05L254.831 135.575ZM260.293 130.006L263.377 147.496L260.683 147.971L257.599 130.481L260.293 130.006ZM268.149 135.493L269.42 142.702C269.507 143.19 269.679 143.525 269.939 143.707C270.211 143.87 270.623 143.903 271.175 143.806L272.829 143.514L273.225 145.759L271.098 146.135C269.885 146.348 268.905 146.229 268.159 145.775C267.413 145.322 266.927 144.457 266.702 143.181L265.431 135.972L263.895 136.243L263.507 134.045L265.044 133.774L264.473 130.536L267.191 130.057L267.762 133.295L270.929 132.736L271.317 134.934L268.149 135.493ZM273.652 138.909C273.421 137.601 273.485 136.396 273.843 135.293C274.217 134.188 274.82 133.277 275.652 132.562C276.497 131.828 277.487 131.361 278.622 131.161C279.646 130.98 280.572 131.028 281.401 131.304C282.243 131.562 282.945 131.95 283.507 132.468L283.174 130.577L285.892 130.098L288.188 143.121L285.47 143.6L285.128 141.662C284.78 142.357 284.248 142.979 283.532 143.528C282.816 144.076 281.954 144.44 280.946 144.617C279.827 144.815 278.753 144.712 277.723 144.308C276.691 143.889 275.809 143.216 275.076 142.289C274.357 141.344 273.883 140.217 273.652 138.909ZM284.32 137.077C284.161 136.179 283.835 135.432 283.34 134.837C282.861 134.239 282.291 133.82 281.631 133.579C280.972 133.338 280.295 133.278 279.602 133.4C278.908 133.523 278.293 133.81 277.755 134.262C277.215 134.699 276.814 135.281 276.552 136.01C276.304 136.72 276.259 137.524 276.417 138.422C276.576 139.32 276.896 140.076 277.378 140.689C277.875 141.3 278.455 141.734 279.118 141.991C279.794 142.229 280.47 142.289 281.148 142.169C281.841 142.047 282.457 141.76 282.994 141.307C283.532 140.855 283.924 140.266 284.169 139.541C284.428 138.796 284.478 137.975 284.32 137.077ZM292.962 131.118L294.233 138.327C294.319 138.815 294.492 139.15 294.751 139.332C295.024 139.495 295.436 139.528 295.987 139.431L297.642 139.139L298.038 141.384L295.911 141.759C294.697 141.973 293.718 141.854 292.972 141.4C292.226 140.947 291.74 140.082 291.515 138.806L290.244 131.597L288.708 131.868L288.32 129.67L289.856 129.399L289.285 126.161L292.003 125.682L292.574 128.92L295.741 128.361L296.129 130.559L292.962 131.118ZM299.291 125.956C298.803 126.042 298.364 125.949 297.975 125.677C297.586 125.404 297.348 125.024 297.262 124.535C297.176 124.047 297.269 123.608 297.541 123.219C297.814 122.829 298.195 122.592 298.683 122.505C299.156 122.422 299.587 122.517 299.976 122.789C300.365 123.062 300.603 123.442 300.689 123.931C300.775 124.419 300.682 124.858 300.409 125.247C300.137 125.637 299.764 125.873 299.291 125.956ZM300.919 127.448L303.216 140.471L300.521 140.946L298.225 127.923L300.919 127.448ZM312.44 139.064C311.21 139.281 310.051 139.201 308.961 138.825C307.868 138.432 306.949 137.782 306.204 136.874C305.457 135.95 304.965 134.818 304.728 133.478C304.495 132.155 304.58 130.93 304.982 129.803C305.384 128.676 306.041 127.747 306.952 127.018C307.864 126.289 308.942 125.814 310.186 125.595C311.431 125.375 312.606 125.452 313.712 125.826C314.818 126.2 315.752 126.847 316.516 127.769C317.28 128.69 317.778 129.813 318.011 131.136C318.245 132.46 318.152 133.687 317.734 134.816C317.316 135.946 316.637 136.886 315.697 137.637C314.77 138.369 313.684 138.845 312.44 139.064ZM312.027 136.724C312.72 136.602 313.337 136.323 313.878 135.886C314.434 135.447 314.843 134.863 315.104 134.135C315.365 133.406 315.413 132.569 315.246 131.624C315.079 130.678 314.758 129.915 314.282 129.333C313.803 128.735 313.234 128.323 312.577 128.098C311.92 127.872 311.245 127.821 310.552 127.943C309.858 128.065 309.242 128.345 308.701 128.781C308.176 129.215 307.799 129.793 307.569 130.516C307.336 131.223 307.303 132.05 307.47 132.995C307.717 134.397 308.264 135.422 309.109 136.069C309.967 136.698 310.94 136.916 312.027 136.724ZM326.062 122.796C327.086 122.615 328.038 122.667 328.916 122.95C329.811 123.231 330.56 123.749 331.164 124.504C331.768 125.258 332.175 126.226 332.383 127.408L333.738 135.09L331.067 135.56L329.783 128.281C329.578 127.115 329.129 126.276 328.438 125.764C327.744 125.237 326.892 125.062 325.884 125.24C324.875 125.417 324.127 125.874 323.64 126.61C323.165 127.327 323.031 128.269 323.236 129.435L324.52 136.715L321.825 137.19L319.529 124.167L322.223 123.692L322.486 125.181C322.833 124.567 323.318 124.051 323.943 123.632C324.584 123.211 325.29 122.932 326.062 122.796Z" fill="#2B2844"/>
<path d="M382.139 353.187C375.875 359.964 368.044 367.091 359.842 371.247C357.482 372.467 354.992 373.42 352.419 374.086C350.015 374.712 347.526 374.955 345.046 374.805C338.518 374.355 332.238 372.657 326.065 370.469C324.048 369.752 322.043 368.984 320.046 368.191C316.784 366.894 313.541 365.529 310.297 364.21C309.811 364.009 309.328 363.813 308.843 363.62L308.841 363.621C308.058 363.303 307.274 362.992 306.49 362.687C306.352 362.633 306.214 362.581 306.074 362.526C304.593 361.952 303.092 361.401 301.572 360.873C301.386 360.81 301.199 360.745 301.013 360.682C298.074 359.671 295.084 358.811 292.056 358.106C290.069 357.654 288.072 357.283 286.075 357.019L286.072 357.019C285.309 356.919 284.545 356.833 283.782 356.766C281.491 356.552 279.187 356.51 276.89 356.638C273.724 356.81 270.592 357.388 267.573 358.358C267.369 358.424 267.167 358.489 266.964 358.56C258.826 361.376 251.98 367.238 243.756 369.785C243.489 369.867 243.225 369.947 242.956 370.019C242.841 370.05 242.727 370.084 242.612 370.112C240.205 370.752 237.734 371.125 235.245 371.225C228.296 371.529 221.192 369.919 214.621 367.471C199.259 361.746 185.753 351.165 176.323 337.816C174.704 335.528 173.207 333.157 171.838 330.713C168.02 323.938 165.284 316.61 163.727 308.992C158.4 282.549 168.814 253.24 190.424 237.046C212.036 220.85 243.953 219.318 266.344 234.395C279.927 243.541 289.319 257.525 300.445 269.535C311.571 281.543 326.27 292.296 342.635 291.446C350.971 291.013 359.166 287.562 367.432 288.713C372.009 289.352 376.176 291.384 379.755 294.278C382.165 296.245 384.294 298.532 386.085 301.074C387.392 302.91 388.534 304.858 389.497 306.896C389.675 307.271 389.845 307.647 390.012 308.024C396.709 323.225 393.421 340.977 382.139 353.187Z" fill="#F2F2F2"/>
<path d="M246.756 347.404L221.846 351.796C218.114 352.454 215.622 356.009 216.279 359.735L216.279 359.735C216.936 363.462 220.494 365.95 224.226 365.291L249.135 360.899C252.867 360.241 255.36 356.687 254.703 352.96C254.046 349.233 250.488 346.746 246.756 347.404Z" fill="#3F3D56"/>
<path d="M240.976 358.791L242.956 370.019C240.441 370.717 237.853 371.122 235.245 371.225L233.292 360.146L240.976 358.791Z" fill="#3F3D56"/>
<path d="M267.573 358.358C267.369 358.424 267.167 358.489 266.964 358.56C258.826 361.376 251.98 367.238 243.756 369.785C243.489 369.867 243.225 369.947 242.956 370.019C242.841 370.05 242.727 370.084 242.612 370.112C240.204 368.466 237.773 366.69 235.454 364.815C234.196 363.801 232.968 362.757 231.798 361.686C228.765 358.925 226.092 356.008 224.139 353.023C224.007 351.451 222.411 348.04 221.466 345.38L221.463 345.378C221.064 344.262 220.782 343.28 220.766 342.62C220.674 338.811 223.783 338.702 224.075 334.901C224.794 334.056 225.578 333.269 226.422 332.548C226.562 332.427 226.705 332.307 226.853 332.185L235.744 323.414L240.281 326.522L247.186 331.252L254.669 336.374L250.216 342.794C250.216 342.794 255.661 347.206 262.177 353.219C263.927 354.834 265.754 356.566 267.573 358.358Z" fill="#2F2E41"/>
<path d="M354.128 338.839L359.842 371.247C357.482 372.467 354.992 373.42 352.419 374.086L346.443 340.194L354.128 338.839Z" fill="#3F3D56"/>
<path d="M363.599 334.441L338.689 338.833C334.957 339.491 332.465 343.046 333.122 346.772L333.122 346.772C333.779 350.499 337.337 352.987 341.069 352.328L365.978 347.936C369.71 347.278 372.203 343.724 371.546 339.997C370.889 336.27 367.331 333.783 363.599 334.441Z" fill="#3F3D56"/>
<path d="M306.074 362.526C304.593 361.952 303.092 361.401 301.572 360.873C301.386 360.81 301.199 360.745 301.013 360.682L301.856 360.132L304.129 358.643L304.151 358.628L304.194 358.713L306.074 362.526Z" fill="#FFB6B6"/>
<path d="M310.297 364.21C309.811 364.009 309.328 363.813 308.843 363.62L308.841 363.621C308.058 363.303 307.274 362.992 306.49 362.687C306.352 362.633 306.214 362.581 306.074 362.526C304.593 361.952 303.092 361.401 301.572 360.873C301.386 360.81 301.199 360.745 301.013 360.682C298.074 359.671 295.084 358.811 292.056 358.106C290.069 357.654 288.072 357.283 286.075 357.019L286.072 357.019L284.147 354.797L275.483 344.786L273.579 342.587C273.579 342.587 268.824 344.953 261.975 347.626C259.483 348.6 256.716 349.612 253.795 350.569C250.671 351.589 247.375 352.544 244.067 353.307C242.489 353.673 240.909 353.995 239.344 354.258C235.298 354.944 231.349 355.25 227.79 354.95C226.469 354.086 222.795 353.241 220.113 352.347L220.11 352.348C218.984 351.973 218.037 351.592 217.506 351.197C214.444 348.927 216.274 346.413 213.455 343.843C213.231 342.758 213.095 341.656 213.046 340.549C213.038 340.365 213.03 340.178 213.026 339.987L211.586 327.592L216.835 325.935L224.823 323.414L233.475 320.682L235.795 328.137C235.795 328.137 242.631 326.571 251.391 325.146C265.461 322.862 284.49 320.947 288.092 326.495C288.43 327.016 288.768 327.543 289.107 328.07C289.914 329.33 290.717 330.598 291.516 331.874C294.41 336.494 297.219 341.177 299.813 345.614C301.425 348.375 302.956 351.041 304.371 353.539C305.51 355.548 306.572 357.451 307.545 359.203C308.434 360.803 309.243 362.278 309.966 363.602C310.079 363.809 310.188 364.013 310.297 364.21Z" fill="#2F2E41"/>
<path d="M247.755 298.599L228.243 287.197L237.318 274.089L247.245 285.332L276.801 285.951C277.546 285.154 278.507 284.591 279.567 284.33C280.627 284.069 281.739 284.121 282.769 284.481C283.799 284.84 284.702 285.492 285.368 286.355C286.033 287.218 286.433 288.257 286.517 289.343C286.602 290.43 286.369 291.517 285.845 292.474C285.322 293.43 284.531 294.214 283.569 294.73C282.608 295.246 281.517 295.471 280.429 295.378C279.342 295.285 278.305 294.878 277.446 294.207L247.755 298.599Z" fill="#A0616A"/>
<path d="M209.905 270.923C209.067 277.641 230.43 289.546 230.43 289.546C230.368 287.98 243.286 299.304 243.796 297.982C245.246 294.226 246.019 285.435 248.195 283.945C249.439 283.093 240.178 275.934 240.178 275.934C240.178 275.934 235.299 271.404 228.906 265.699C227.129 264.053 224.963 262.883 222.611 262.298C220.258 261.713 217.795 261.732 215.451 262.353C215.451 262.353 210.743 264.204 209.905 270.923Z" fill="#3F3D56"/>
<path d="M215.678 255.359C222.019 254.241 226.254 248.202 225.137 241.87C224.021 235.539 217.976 231.312 211.635 232.43C205.295 233.548 201.06 239.587 202.176 245.919C203.293 252.25 209.338 256.477 215.678 255.359Z" fill="#A0616A"/>
<path d="M222.755 261.924C225.487 262.956 227.442 265.393 228.776 267.988C231.244 272.794 233.117 277.882 234.353 283.14L238.054 298.882L255.134 330.78C246.94 340.614 209.638 340.709 209.638 340.709C209.638 340.709 208.462 340.535 209.377 339.23C210.293 337.924 211.548 338.717 210.241 337.803C208.934 336.89 209.918 337.99 210.093 336.816C210.268 335.641 210.028 336.446 209.592 336.141C209.156 335.837 211.807 331.938 211.807 331.938L205.417 313.026L194.802 274.479C198.268 268.148 206.629 263.302 206.629 263.302L208.206 258.744L219.916 257.63L222.755 261.924Z" fill="#3F3D56"/>
<path d="M222.047 236.135C223.056 236.642 223.881 237.453 224.404 238.453C224.228 236.699 223.93 234.959 223.512 233.247C223.162 232.053 222.255 231.93 221.205 231.788C220.257 231.66 219.185 231.515 218.703 230.381C214.476 227.512 208.225 228.797 204.142 230.777C201.894 231.868 200.686 232.972 200.653 233.5L200.646 233.609L200.559 233.674C198.896 234.906 199.048 237.844 199.468 240.091C200.261 244.325 202.577 248.885 203.472 249.13C203.52 249.143 203.529 249.133 203.545 249.114C204.615 247.902 206.321 248.703 207.09 249.166C207.019 246.46 207.858 243.808 209.472 241.633C211.087 239.458 213.385 237.885 215.999 237.167C216.852 236.93 217.687 236.634 218.499 236.281C218.91 236.094 219.342 235.958 219.785 235.877C220.548 235.73 221.337 235.82 222.047 236.135Z" fill="#2F2E41"/>
<path d="M222.083 320.935L218.255 319.758C218.043 319.658 217.875 319.484 217.78 319.27C217.686 319.055 217.672 318.814 217.741 318.59C217.811 318.366 217.958 318.174 218.157 318.05C218.356 317.926 218.593 317.877 218.825 317.912L222.653 319.089C222.865 319.19 223.033 319.363 223.128 319.578C223.222 319.792 223.236 320.034 223.167 320.258C223.097 320.482 222.95 320.673 222.751 320.798C222.552 320.922 222.315 320.971 222.083 320.935Z" fill="#6C63FF"/>
<path d="M209.416 318.207L199.852 297.749L214.775 292.109L216.544 306.997L240.506 324.277C241.572 324.044 242.683 324.125 243.704 324.512C244.724 324.898 245.609 325.573 246.252 326.453C246.895 327.334 247.267 328.382 247.323 329.47C247.379 330.559 247.117 331.64 246.569 332.583C246.02 333.525 245.209 334.288 244.235 334.778C243.26 335.269 242.163 335.465 241.079 335.344C239.994 335.223 238.969 334.789 238.127 334.096C237.285 333.402 236.664 332.479 236.339 331.439L209.416 318.207Z" fill="#A0616A"/>
<path d="M194.026 273.948C189.514 279.003 200.314 300.924 200.314 300.924C201.154 299.599 205.338 316.252 206.51 315.453C209.84 313.183 215.478 306.386 218.115 306.394C219.623 306.398 216.078 295.25 216.078 295.25C216.078 295.25 214.642 288.753 212.628 280.43C212.103 278.066 210.987 275.874 209.385 274.057C207.782 272.241 205.746 270.859 203.464 270.04C203.464 270.04 198.538 268.893 194.026 273.948Z" fill="#3F3D56"/>
<path d="M386.085 301.074L176.323 337.815C174.704 335.528 173.207 333.157 171.838 330.713L379.755 294.278C382.165 296.245 384.294 298.532 386.085 301.074Z" fill="#3F3D56"/>
<path d="M329.078 368.374C328.087 369.089 327.082 369.787 326.065 370.469C324.048 369.752 322.043 368.984 320.046 368.191L326.212 364.08L329.078 368.374Z" fill="#FFB6B6"/>
<path d="M371.375 323.318C370.546 324.965 369.676 326.589 368.767 328.19C367.929 329.666 367.058 331.123 366.155 332.56C365.782 333.156 365.403 333.749 365.012 334.339C364.297 335.439 363.559 336.527 362.798 337.602C361.231 338.416 358.033 339.927 354.583 341.419C352.072 342.503 349.428 343.578 347.178 344.362C345.923 344.823 344.636 345.194 343.327 345.472C341.766 345.761 340.171 345.999 338.564 346.195C336.75 346.416 334.925 346.585 333.113 346.708C328.404 347.039 323.793 347.075 319.792 346.981C318.328 346.95 316.947 346.899 315.674 346.837C313.263 346.724 311.238 346.579 309.768 346.456C308.113 346.323 307.165 346.214 307.165 346.214L304.372 353.539L302.921 357.339L301.857 360.132L301.572 360.873C301.386 360.81 301.2 360.745 301.014 360.682C298.074 359.671 295.084 358.811 292.056 358.106C290.07 357.654 288.072 357.283 286.075 357.019L286.072 357.019C285.309 356.919 284.545 356.833 283.782 356.766C283.902 356.114 284.024 355.458 284.148 354.797C284.378 353.564 284.616 352.318 284.861 351.061C285.389 348.338 285.945 345.571 286.532 342.813C287.012 340.548 287.51 338.289 288.024 336.056C288.26 335.027 288.936 334.04 289.959 333.099C290.448 332.655 290.969 332.246 291.516 331.874C294.551 329.792 299.238 327.959 304.483 326.388C304.917 326.259 305.353 326.13 305.793 326.004C310.144 324.756 314.805 323.686 319.184 322.799C321.377 322.356 323.498 321.96 325.474 321.609C326.113 321.496 326.734 321.388 327.338 321.285L327.341 321.285C328.972 321.005 330.476 320.765 331.8 320.559C332.058 320.519 332.309 320.483 332.554 320.445L332.556 320.444C332.721 320.418 332.884 320.395 333.043 320.369C335.942 319.935 337.728 319.713 337.728 319.713L337.466 314.215L337.415 313.105L337.366 312.049L337.365 312.047L337.358 311.914L337.467 311.893L339.368 311.519L355.35 308.379L364.081 306.662L363.74 312.85L363.177 323.061C363.684 324.571 371.223 321.989 371.375 323.318Z" fill="#2F2E41"/>
<path d="M330.882 367.047C330.287 367.495 329.685 367.94 329.078 368.374C328.087 369.089 327.082 369.787 326.065 370.469C324.048 369.752 322.043 368.984 320.046 368.191C316.784 366.894 313.54 365.529 310.297 364.21C309.811 364.009 309.328 363.813 308.843 363.62L308.841 363.621C307.323 362.05 305.769 360.408 304.194 358.713C304.17 358.69 304.15 358.666 304.129 358.643C303.726 358.212 303.323 357.777 302.921 357.339C300.396 354.592 297.837 351.714 295.323 348.758L299.813 345.614L308.16 339.772L309.6 338.765L315.674 346.837L321.091 354.037L322.297 355.639L330.882 367.047Z" fill="#2F2E41"/>
<path d="M324.746 324.233L343.996 297.815L347.219 278.511L337.013 276.066C332.966 281.582 330.26 297.017 330.26 297.017L317.879 320.101C317.762 320.166 317.646 320.233 317.533 320.308C316.87 320.752 316.333 321.358 315.973 322.069C315.613 322.78 315.443 323.572 315.479 324.367C315.515 325.163 315.756 325.936 316.179 326.611C316.601 327.286 317.191 327.841 317.891 328.222C318.592 328.603 319.379 328.797 320.176 328.785C320.973 328.774 321.754 328.557 322.444 328.156C323.133 327.755 323.707 327.183 324.11 326.496C324.514 325.809 324.733 325.029 324.746 324.233Z" fill="#FFB8B8"/>
<path d="M334.704 278.565L347.4 280.257L347.444 280.241C351.787 278.704 354.214 270.75 355.485 264.348C355.902 262.237 355.501 260.047 354.363 258.22C353.225 256.394 351.435 255.067 349.354 254.509C347.816 254.107 346.197 254.143 344.678 254.613C343.16 255.082 341.803 255.966 340.761 257.166L335.475 263.292L334.704 278.565Z" fill="#6C63FF"/>
<path d="M371.374 323.595L371.428 323.489C374.304 317.859 367.003 306.46 365.913 304.812L369.219 303.165L367.442 296.64L366.627 293.735L368.886 290.684L368.883 290.617L368.411 277.033L369.305 267.83C369.64 264.351 369.042 260.846 367.573 257.675C366.103 254.504 363.815 251.782 360.943 249.786L355.082 245.72L347.457 237.431L337.39 238.94L334.913 245.968C331.682 247.242 329 249.607 327.335 252.652C325.67 255.697 325.127 259.228 325.801 262.63L329.141 279.589L329.263 301.31L329.837 305.158L326.964 309.499L328.279 313.144L325.824 314.66L325.474 320.231C325.09 320.934 322.557 325.621 322.729 326.772C322.755 326.945 322.908 327.093 323.21 327.238C325.585 328.372 337.947 329.559 342.906 326.661C348.188 323.575 371.025 323.594 371.256 323.594L371.374 323.595Z" fill="#6C63FF"/>
<path d="M341.02 235.346C348.353 234.054 353.251 227.069 351.96 219.747C350.668 212.425 343.677 207.537 336.345 208.83C329.012 210.123 324.114 217.107 325.405 224.429C326.697 231.752 333.688 236.639 341.02 235.346Z" fill="#FFB8B8"/>
<path d="M339.432 235.809C341.493 235.479 343.523 234.973 345.499 234.298C347.44 233.534 351.364 229.443 352.27 227.238C352.943 225.599 353.134 223.192 353.176 221.462C353.239 219.171 352.819 216.892 351.944 214.773C351.069 212.655 349.758 210.744 348.096 209.163C347.447 208.494 346.628 208.013 345.727 207.771C345.648 207.755 345.568 207.743 345.487 207.735C344.218 207.63 343.009 207.149 342.016 206.353C341.822 206.19 341.617 206.042 341.401 205.91C340.328 205.287 339.122 204.927 337.882 204.858C335.869 204.684 333.177 205.684 329.881 207.834C328.225 208.913 326.218 208.982 324.654 208.921C324.567 208.92 324.48 208.942 324.404 208.984C324.327 209.026 324.263 209.087 324.218 209.162C323.683 209.876 322.897 210.361 322.019 210.521C321.485 210.639 321.051 211.483 320.539 212.574C320.423 212.822 320.288 213.111 320.185 213.291L320.114 212.993L319.869 213.382C319.483 213.994 319.259 214.693 319.216 215.414C319.173 216.135 319.314 216.855 319.625 217.508C319.936 218.16 320.408 218.723 320.996 219.144C321.583 219.565 322.268 219.83 322.987 219.916C323.554 219.964 324.124 219.955 324.689 219.887C325.034 219.858 325.39 219.828 325.736 219.827C326.854 219.857 327.944 220.176 328.9 220.753C329.857 221.33 330.648 222.145 331.195 223.118C331.323 223.342 331.501 223.535 331.716 223.679C331.93 223.824 332.175 223.918 332.432 223.953C332.689 223.988 332.95 223.964 333.196 223.882C333.442 223.801 333.665 223.664 333.85 223.482C334.152 223.148 334.53 222.892 334.953 222.736C335.375 222.579 335.829 222.527 336.276 222.584C336.678 222.723 337.02 222.995 337.244 223.356C337.51 223.755 337.889 224.066 338.333 224.249C339.821 224.711 340.464 227.807 340.432 230.488C340.4 233.072 339.785 235.046 338.936 235.288C338.283 235.474 338.215 235.535 338.188 235.661L338.163 235.773L338.255 235.859C338.646 235.927 339.048 235.91 339.432 235.809Z" fill="#2F2E41"/>
<path d="M337.294 273.975L330.378 264.686C323.036 266.503 309.801 277.683 309.801 277.683L282.94 288.511C282.057 288.339 281.145 288.403 280.294 288.695C279.444 288.988 278.686 289.499 278.096 290.177C277.506 290.855 277.106 291.676 276.934 292.558C276.763 293.44 276.828 294.351 277.121 295.199C277.415 296.048 277.927 296.804 278.606 297.392C279.286 297.98 280.108 298.379 280.991 298.548C281.874 298.718 282.786 298.652 283.636 298.357C284.486 298.063 285.243 297.55 285.831 296.871L320.878 288.071L337.294 273.975Z" fill="#FFB8B8"/>
<path d="M335.524 276.013L347.145 263.734L348.005 254.844C348.168 253.098 347.838 251.341 347.054 249.773C346.269 248.205 345.061 246.887 343.566 245.969C341.531 244.738 339.103 244.326 336.773 244.814C334.444 245.303 332.387 246.656 331.018 248.601C326.871 254.503 322.366 262.511 324.454 267.145L324.475 267.192L335.524 276.013Z" fill="#6C63FF"/>
<path d="M323.653 305.469L287.879 311.777L288.719 316.54L324.493 310.232L323.653 305.469Z" fill="white"/>
<path d="M232.231 321.589L196.457 327.897L197.297 332.66L233.071 326.352L232.231 321.589Z" fill="white"/>
<path d="M232.369 297.947L236.368 320.626C236.419 320.915 236.583 321.171 236.824 321.34C237.065 321.508 237.362 321.574 237.652 321.523L271.307 315.589C271.596 315.538 271.854 315.374 272.022 315.133C272.191 314.893 272.257 314.595 272.206 314.306L268.207 291.628C268.156 291.339 267.992 291.083 267.751 290.915C267.511 290.747 267.213 290.681 266.924 290.731L233.269 296.666C232.98 296.717 232.723 296.881 232.554 297.121C232.385 297.361 232.319 297.658 232.369 297.947Z" fill="#3F3D56"/>
<path d="M233.209 298.09L237.108 320.207C237.136 320.361 237.224 320.498 237.352 320.588C237.481 320.678 237.64 320.713 237.794 320.686L270.888 314.851C271.043 314.824 271.18 314.736 271.27 314.607C271.36 314.479 271.396 314.32 271.369 314.166L267.469 292.049C267.442 291.894 267.354 291.757 267.226 291.667C267.097 291.577 266.938 291.541 266.783 291.568L233.689 297.403C233.534 297.431 233.397 297.519 233.307 297.648C233.217 297.776 233.181 297.935 233.209 298.09Z" fill="#6C63FF"/>
<path d="M236.444 325.173C236.519 325.239 236.609 325.288 236.705 325.314C236.802 325.341 236.904 325.346 237.003 325.328L273.039 318.974C273.138 318.956 273.231 318.917 273.313 318.859C273.394 318.801 273.462 318.725 273.51 318.638C273.559 318.551 273.587 318.454 273.594 318.354C273.6 318.254 273.584 318.154 273.547 318.061L272.52 315.507C272.477 315.403 272.41 315.311 272.323 315.239C272.236 315.168 272.132 315.12 272.022 315.098C271.942 315.082 271.859 315.081 271.779 315.096L236.858 321.253C236.778 321.267 236.701 321.296 236.631 321.339C236.534 321.397 236.454 321.477 236.396 321.574C236.339 321.671 236.307 321.78 236.303 321.893L236.211 324.645C236.208 324.744 236.228 324.844 236.268 324.935C236.308 325.026 236.368 325.108 236.444 325.173Z" fill="#2F2E41"/>
<path d="M270.744 316.456L271.595 316.306C271.666 316.294 271.714 316.226 271.702 316.154L271.63 315.748C271.617 315.676 271.549 315.629 271.478 315.641L270.627 315.791C270.555 315.804 270.507 315.872 270.52 315.943L270.592 316.35C270.604 316.421 270.672 316.469 270.744 316.456Z" fill="#3F3D56"/>
<path d="M268.524 316.848L269.375 316.698C269.446 316.685 269.494 316.617 269.482 316.546L269.41 316.139C269.397 316.068 269.329 316.02 269.258 316.033L268.407 316.183C268.335 316.196 268.287 316.264 268.3 316.335L268.372 316.742C268.384 316.813 268.452 316.861 268.524 316.848Z" fill="#3F3D56"/>
<path d="M266.304 317.239L267.155 317.089C267.227 317.077 267.274 317.009 267.262 316.937L267.19 316.531C267.178 316.459 267.109 316.412 267.038 316.424L266.187 316.574C266.115 316.587 266.068 316.655 266.08 316.726L266.152 317.133C266.165 317.204 266.233 317.252 266.304 317.239Z" fill="#3F3D56"/>
<path d="M264.084 317.631L264.935 317.481C265.007 317.468 265.054 317.4 265.042 317.329L264.97 316.922C264.958 316.851 264.89 316.803 264.818 316.816L263.967 316.966C263.895 316.978 263.848 317.046 263.86 317.118L263.932 317.524C263.945 317.596 264.013 317.643 264.084 317.631Z" fill="#3F3D56"/>
<path d="M261.864 318.022L262.716 317.872C262.787 317.859 262.835 317.791 262.822 317.72L262.75 317.313C262.738 317.242 262.67 317.194 262.598 317.207L261.747 317.357C261.676 317.37 261.628 317.438 261.641 317.509L261.712 317.916C261.725 317.987 261.793 318.035 261.864 318.022Z" fill="#3F3D56"/>
<path d="M259.645 318.414L260.496 318.264C260.567 318.251 260.615 318.183 260.602 318.112L260.531 317.705C260.518 317.634 260.45 317.586 260.379 317.599L259.527 317.749C259.456 317.761 259.408 317.829 259.421 317.901L259.493 318.307C259.505 318.379 259.573 318.426 259.645 318.414Z" fill="#3F3D56"/>
<path d="M257.425 318.805L258.276 318.655C258.347 318.642 258.395 318.574 258.382 318.503L258.311 318.096C258.298 318.025 258.23 317.977 258.159 317.99L257.307 318.14C257.236 318.153 257.188 318.221 257.201 318.292L257.273 318.699C257.285 318.77 257.353 318.818 257.425 318.805Z" fill="#3F3D56"/>
<path d="M255.205 319.196L256.056 319.046C256.128 319.034 256.175 318.966 256.163 318.894L256.091 318.488C256.078 318.416 256.01 318.369 255.939 318.381L255.088 318.531C255.016 318.544 254.969 318.612 254.981 318.683L255.053 319.09C255.065 319.161 255.134 319.209 255.205 319.196Z" fill="#3F3D56"/>
<path d="M252.985 319.588L253.836 319.438C253.908 319.425 253.955 319.357 253.943 319.286L253.871 318.879C253.859 318.808 253.79 318.76 253.719 318.773L252.868 318.923C252.796 318.935 252.749 319.003 252.761 319.075L252.833 319.481C252.845 319.553 252.914 319.6 252.985 319.588Z" fill="#3F3D56"/>
<path d="M250.765 319.979L251.616 319.829C251.688 319.817 251.736 319.749 251.723 319.677L251.651 319.271C251.639 319.199 251.571 319.152 251.499 319.164L250.648 319.314C250.577 319.327 250.529 319.395 250.541 319.466L250.613 319.873C250.626 319.944 250.694 319.992 250.765 319.979Z" fill="#3F3D56"/>
<path d="M248.545 320.371L249.397 320.221C249.468 320.208 249.516 320.14 249.503 320.069L249.431 319.662C249.419 319.591 249.351 319.543 249.279 319.556L248.428 319.706C248.357 319.718 248.309 319.786 248.321 319.858L248.393 320.264C248.406 320.336 248.474 320.383 248.545 320.371Z" fill="#3F3D56"/>
<path d="M246.326 320.762L247.177 320.612C247.248 320.599 247.296 320.531 247.283 320.46L247.212 320.053C247.199 319.982 247.131 319.934 247.06 319.947L246.208 320.097C246.137 320.11 246.089 320.178 246.102 320.249L246.173 320.656C246.186 320.727 246.254 320.775 246.326 320.762Z" fill="#3F3D56"/>
<path d="M244.106 321.153L244.957 321.003C245.028 320.991 245.076 320.923 245.063 320.851L244.992 320.445C244.979 320.373 244.911 320.326 244.84 320.338L243.988 320.488C243.917 320.501 243.869 320.569 243.882 320.64L243.953 321.047C243.966 321.118 244.034 321.166 244.106 321.153Z" fill="#3F3D56"/>
<path d="M241.886 321.545L242.737 321.395C242.809 321.382 242.856 321.314 242.844 321.243L242.772 320.836C242.759 320.765 242.691 320.717 242.62 320.73L241.769 320.88C241.697 320.893 241.649 320.961 241.662 321.032L241.734 321.439C241.746 321.51 241.814 321.558 241.886 321.545Z" fill="#3F3D56"/>
<path d="M239.666 321.936L240.517 321.786C240.589 321.774 240.637 321.706 240.624 321.634L240.552 321.228C240.54 321.156 240.472 321.109 240.4 321.121L239.549 321.271C239.477 321.284 239.43 321.352 239.442 321.423L239.514 321.83C239.527 321.901 239.595 321.949 239.666 321.936Z" fill="#3F3D56"/>
<path d="M237.446 322.328L238.297 322.178C238.369 322.165 238.417 322.097 238.404 322.026L238.332 321.619C238.32 321.548 238.252 321.5 238.18 321.513L237.329 321.663C237.258 321.675 237.21 321.743 237.222 321.815L237.294 322.221C237.307 322.293 237.375 322.34 237.446 322.328Z" fill="#3F3D56"/>
<path d="M270.965 317.56L271.817 317.41C271.888 317.398 271.936 317.329 271.923 317.258L271.852 316.852C271.839 316.78 271.771 316.733 271.699 316.745L270.848 316.895C270.777 316.908 270.729 316.976 270.742 317.047L270.813 317.454C270.826 317.525 270.894 317.573 270.965 317.56Z" fill="#3F3D56"/>
<path d="M268.746 317.952L269.597 317.802C269.668 317.789 269.716 317.721 269.703 317.65L269.632 317.243C269.619 317.172 269.551 317.124 269.479 317.137L268.628 317.287C268.557 317.299 268.509 317.367 268.522 317.439L268.593 317.845C268.606 317.917 268.674 317.964 268.746 317.952Z" fill="#3F3D56"/>
<path d="M266.526 318.343L267.377 318.193C267.448 318.18 267.496 318.112 267.484 318.041L267.412 317.634C267.399 317.563 267.331 317.515 267.26 317.528L266.409 317.678C266.337 317.691 266.289 317.759 266.302 317.83L266.374 318.237C266.386 318.308 266.454 318.356 266.526 318.343Z" fill="#3F3D56"/>
<path d="M264.306 318.735L265.157 318.584C265.228 318.572 265.276 318.504 265.264 318.432L265.192 318.026C265.179 317.954 265.111 317.907 265.04 317.919L264.189 318.07C264.117 318.082 264.069 318.15 264.082 318.222L264.154 318.628C264.166 318.7 264.234 318.747 264.306 318.735Z" fill="#3F3D56"/>
<path d="M262.086 319.126L262.937 318.976C263.009 318.963 263.056 318.895 263.044 318.824L262.972 318.417C262.96 318.346 262.891 318.298 262.82 318.311L261.969 318.461C261.897 318.473 261.85 318.542 261.862 318.613L261.934 319.02C261.947 319.091 262.015 319.138 262.086 319.126Z" fill="#3F3D56"/>
<path d="M259.866 319.517L260.717 319.367C260.789 319.355 260.836 319.287 260.824 319.215L260.752 318.809C260.74 318.737 260.672 318.69 260.6 318.702L259.749 318.852C259.677 318.865 259.63 318.933 259.642 319.004L259.714 319.411C259.727 319.482 259.795 319.53 259.866 319.517Z" fill="#3F3D56"/>
<path d="M257.646 319.909L258.498 319.759C258.569 319.746 258.617 319.678 258.604 319.607L258.532 319.2C258.52 319.129 258.452 319.081 258.38 319.094L257.529 319.244C257.458 319.256 257.41 319.324 257.423 319.396L257.494 319.802C257.507 319.874 257.575 319.921 257.646 319.909Z" fill="#3F3D56"/>
<path d="M255.427 320.3L256.278 320.15C256.349 320.137 256.397 320.069 256.384 319.998L256.313 319.591C256.3 319.52 256.232 319.472 256.161 319.485L255.309 319.635C255.238 319.648 255.19 319.716 255.203 319.787L255.275 320.194C255.287 320.265 255.355 320.313 255.427 320.3Z" fill="#3F3D56"/>
<path d="M253.207 320.692L254.058 320.541C254.129 320.529 254.177 320.461 254.164 320.389L254.093 319.983C254.08 319.912 254.012 319.864 253.941 319.876L253.089 320.027C253.018 320.039 252.97 320.107 252.983 320.179L253.055 320.585C253.067 320.657 253.135 320.704 253.207 320.692Z" fill="#3F3D56"/>
<path d="M250.987 321.083L251.838 320.933C251.91 320.92 251.957 320.852 251.945 320.781L251.873 320.374C251.86 320.303 251.792 320.255 251.721 320.268L250.87 320.418C250.798 320.431 250.751 320.499 250.763 320.57L250.835 320.977C250.847 321.048 250.916 321.096 250.987 321.083Z" fill="#3F3D56"/>
<path d="M248.767 321.474L249.618 321.324C249.69 321.312 249.737 321.244 249.725 321.172L249.653 320.766C249.64 320.694 249.572 320.647 249.501 320.659L248.65 320.809C248.578 320.822 248.531 320.89 248.543 320.961L248.615 321.368C248.627 321.439 248.696 321.487 248.767 321.474Z" fill="#3F3D56"/>
<path d="M246.547 321.866L247.398 321.716C247.47 321.703 247.518 321.635 247.505 321.564L247.433 321.157C247.421 321.086 247.353 321.038 247.281 321.051L246.43 321.201C246.359 321.213 246.311 321.281 246.323 321.353L246.395 321.759C246.408 321.831 246.476 321.878 246.547 321.866Z" fill="#3F3D56"/>
<path d="M244.327 322.257L245.178 322.107C245.25 322.095 245.298 322.027 245.285 321.955L245.213 321.549C245.201 321.477 245.133 321.43 245.061 321.442L244.21 321.592C244.139 321.605 244.091 321.673 244.103 321.744L244.175 322.151C244.188 322.222 244.256 322.27 244.327 322.257Z" fill="#3F3D56"/>
<path d="M242.108 322.649L242.959 322.499C243.03 322.486 243.078 322.418 243.065 322.347L242.994 321.94C242.981 321.869 242.913 321.821 242.842 321.834L241.99 321.984C241.919 321.996 241.871 322.064 241.884 322.136L241.955 322.542C241.968 322.614 242.036 322.661 242.108 322.649Z" fill="#3F3D56"/>
<path d="M239.888 323.04L240.739 322.89C240.81 322.877 240.858 322.809 240.845 322.738L240.774 322.331C240.761 322.26 240.693 322.212 240.622 322.225L239.77 322.375C239.699 322.388 239.651 322.456 239.664 322.527L239.735 322.934C239.748 323.005 239.816 323.053 239.888 323.04Z" fill="#3F3D56"/>
<path d="M237.668 323.431L238.519 323.281C238.591 323.269 238.638 323.201 238.626 323.129L238.554 322.723C238.541 322.651 238.473 322.604 238.402 322.616L237.551 322.766C237.479 322.779 237.431 322.847 237.444 322.918L237.516 323.325C237.528 323.396 237.596 323.444 237.668 323.431Z" fill="#3F3D56"/>
<path d="M252.775 322.139L261.396 320.619C261.467 320.606 261.515 320.538 261.503 320.467L261.431 320.06C261.418 319.989 261.35 319.941 261.279 319.954L252.658 321.474C252.587 321.487 252.539 321.555 252.552 321.626L252.623 322.033C252.636 322.104 252.704 322.152 252.775 322.139Z" fill="#3F3D56"/>
<g filter="url(#filter1_d_635_293)">
<rect x="734" y="102" width="384" height="384" rx="24" transform="rotate(10 734 102)" fill="#F3F3F3"/>
<rect x="734.811" y="103.158" width="382" height="382" rx="23" transform="rotate(10 734.811 103.158)" stroke="#625CF9" stroke-width="2"/>
</g>
<path d="M1023.28 479.732L1028.64 449.364C1028.64 449.364 1036.67 472.98 1023.28 479.732Z" fill="#F1F1F1"/>
<path d="M1024.01 479.855L1005.26 455.374C1005.26 455.374 1028.1 465.423 1024.01 479.855Z" fill="#F1F1F1"/>
<path d="M971.57 319.705L840.623 368.156C840.165 368.325 839.658 368.305 839.215 368.101C838.771 367.897 838.426 367.526 838.256 367.068L784.947 222.992C784.778 222.534 784.798 222.027 785.002 221.584C785.206 221.14 785.578 220.795 786.036 220.625L916.982 172.174C917.441 172.005 917.947 172.025 918.391 172.229C918.834 172.433 919.179 172.805 919.349 173.263L972.658 317.338C972.827 317.797 972.807 318.303 972.603 318.747C972.399 319.19 972.027 319.535 971.57 319.705Z" fill="white"/>
<path d="M971.57 319.705L840.623 368.156C840.165 368.325 839.658 368.305 839.215 368.101C838.771 367.897 838.426 367.526 838.256 367.068L784.947 222.992C784.778 222.534 784.798 222.027 785.002 221.584C785.206 221.14 785.578 220.795 786.036 220.625L916.982 172.174C917.441 172.005 917.947 172.025 918.391 172.229C918.834 172.433 919.179 172.805 919.349 173.263L972.658 317.338C972.827 317.797 972.807 318.303 972.603 318.747C972.399 319.19 972.027 319.535 971.57 319.705ZM786.291 221.316C786.017 221.418 785.794 221.625 785.671 221.891C785.549 222.157 785.537 222.461 785.638 222.736L838.947 366.812C839.049 367.087 839.256 367.31 839.522 367.432C839.789 367.555 840.092 367.566 840.367 367.465L971.314 319.014C971.589 318.912 971.812 318.705 971.934 318.439C972.057 318.173 972.068 317.869 971.967 317.594L918.658 173.518C918.556 173.244 918.349 173.02 918.083 172.898C917.817 172.776 917.513 172.764 917.238 172.865L786.291 221.316Z" fill="#3F3D56"/>
<path d="M860.307 247.779L827.83 259.796C827.371 259.965 826.865 259.945 826.421 259.741C825.978 259.537 825.633 259.165 825.463 258.707L813.446 226.23C813.277 225.772 813.297 225.265 813.501 224.822C813.705 224.378 814.077 224.033 814.534 223.863L847.012 211.846C847.47 211.677 847.977 211.697 848.42 211.901C848.864 212.105 849.209 212.477 849.379 212.935L861.395 245.412C861.564 245.87 861.545 246.377 861.341 246.821C861.137 247.264 860.765 247.609 860.307 247.779ZM814.79 224.554C814.515 224.656 814.292 224.863 814.17 225.129C814.047 225.395 814.036 225.699 814.137 225.974L826.154 258.452C826.256 258.726 826.463 258.95 826.729 259.072C826.995 259.194 827.299 259.206 827.574 259.105L860.051 247.088C860.326 246.986 860.549 246.779 860.672 246.513C860.794 246.247 860.806 245.943 860.704 245.668L848.688 213.19C848.586 212.916 848.379 212.693 848.113 212.57C847.846 212.448 847.542 212.436 847.268 212.537L814.79 224.554Z" fill="#F2F2F2"/>
<path d="M852.448 255.204L819.971 267.221C819.558 267.373 819.103 267.355 818.703 267.171C818.304 266.988 817.994 266.653 817.841 266.241L805.824 233.764C805.672 233.351 805.69 232.896 805.873 232.496C806.057 232.097 806.391 231.787 806.803 231.634L839.281 219.617C839.693 219.465 840.149 219.483 840.549 219.666C840.948 219.85 841.258 220.184 841.411 220.596L853.428 253.074C853.58 253.486 853.562 253.942 853.379 254.341C853.195 254.741 852.86 255.051 852.448 255.204Z" fill="#6C63FF"/>
<path d="M927.43 245.529L825.852 283.114C825.439 283.267 824.983 283.249 824.584 283.066C824.184 282.882 823.874 282.547 823.722 282.135C823.569 281.722 823.586 281.266 823.77 280.867C823.954 280.467 824.289 280.157 824.701 280.005L926.28 242.42C926.484 242.344 926.701 242.31 926.918 242.318C927.136 242.326 927.35 242.378 927.548 242.468C927.745 242.559 927.923 242.688 928.071 242.848C928.219 243.008 928.334 243.195 928.41 243.399C928.485 243.604 928.52 243.821 928.512 244.038C928.503 244.256 928.452 244.469 928.361 244.667C928.27 244.865 928.141 245.043 927.981 245.191C927.822 245.339 927.634 245.454 927.43 245.529Z" fill="#CCCCCC"/>
<path d="M906.862 265.317L829.814 293.825C829.61 293.9 829.393 293.935 829.176 293.927C828.958 293.918 828.744 293.867 828.546 293.776C828.147 293.593 827.837 293.258 827.684 292.845C827.532 292.433 827.549 291.977 827.733 291.577C827.917 291.178 828.251 290.868 828.664 290.715L905.712 262.207C905.916 262.132 906.133 262.097 906.35 262.105C906.568 262.114 906.782 262.165 906.979 262.256C907.177 262.347 907.355 262.476 907.503 262.635C907.651 262.795 907.766 262.982 907.842 263.187C907.917 263.391 907.952 263.608 907.943 263.825C907.935 264.043 907.884 264.257 907.793 264.455C907.702 264.652 907.573 264.83 907.413 264.978C907.254 265.126 907.066 265.241 906.862 265.317Z" fill="#CCCCCC"/>
<path d="M912.511 206.27L867.595 222.889C867.183 223.041 866.727 223.024 866.327 222.84C865.928 222.656 865.618 222.321 865.465 221.909C865.313 221.497 865.33 221.041 865.514 220.641C865.697 220.242 866.032 219.932 866.445 219.779L911.36 203.16C911.773 203.007 912.229 203.025 912.628 203.209C912.826 203.3 913.004 203.429 913.152 203.588C913.3 203.748 913.415 203.935 913.49 204.14C913.566 204.344 913.601 204.561 913.592 204.778C913.584 204.996 913.533 205.21 913.442 205.407C913.351 205.605 913.222 205.783 913.062 205.931C912.902 206.079 912.715 206.194 912.511 206.27Z" fill="#CCCCCC"/>
<path d="M905.265 221.128L871.558 233.599C871.354 233.675 871.137 233.709 870.92 233.701C870.702 233.693 870.488 233.642 870.291 233.551C870.093 233.46 869.915 233.331 869.767 233.171C869.619 233.011 869.504 232.824 869.428 232.62C869.353 232.416 869.318 232.199 869.327 231.981C869.335 231.764 869.386 231.55 869.477 231.352C869.568 231.154 869.697 230.976 869.857 230.828C870.016 230.68 870.204 230.565 870.408 230.49L904.114 218.018C904.527 217.866 904.983 217.883 905.382 218.067C905.782 218.251 906.092 218.585 906.244 218.998C906.397 219.41 906.379 219.866 906.196 220.266C906.012 220.665 905.677 220.975 905.265 221.128Z" fill="#CCCCCC"/>
<path d="M935.356 266.951L833.777 304.535C833.365 304.688 832.909 304.67 832.509 304.487C832.11 304.303 831.8 303.968 831.647 303.556C831.495 303.143 831.512 302.687 831.696 302.288C831.88 301.888 832.214 301.578 832.627 301.426L934.205 263.841C934.618 263.688 935.074 263.706 935.473 263.89C935.873 264.073 936.183 264.408 936.336 264.821C936.488 265.233 936.471 265.689 936.287 266.088C936.103 266.488 935.768 266.798 935.356 266.951Z" fill="#CCCCCC"/>
<path d="M914.788 286.738L837.741 315.246C837.536 315.322 837.319 315.356 837.102 315.348C836.884 315.34 836.671 315.288 836.473 315.197C836.275 315.107 836.097 314.978 835.949 314.818C835.801 314.658 835.686 314.471 835.611 314.267C835.535 314.062 835.5 313.845 835.509 313.628C835.517 313.41 835.568 313.196 835.659 312.999C835.75 312.801 835.879 312.623 836.039 312.475C836.199 312.327 836.386 312.212 836.59 312.137L913.638 283.628C913.842 283.553 914.059 283.518 914.277 283.527C914.494 283.535 914.708 283.586 914.906 283.677C915.103 283.768 915.281 283.897 915.429 284.057C915.577 284.216 915.692 284.404 915.768 284.608C915.843 284.812 915.878 285.029 915.87 285.247C915.861 285.464 915.81 285.678 915.719 285.876C915.628 286.074 915.499 286.252 915.34 286.399C915.18 286.547 914.993 286.662 914.788 286.738Z" fill="#CCCCCC"/>
<path d="M943.282 288.372L841.704 325.957C841.499 326.032 841.282 326.067 841.065 326.059C840.847 326.05 840.634 325.999 840.436 325.908C840.238 325.817 840.06 325.688 839.912 325.528C839.764 325.369 839.649 325.181 839.574 324.977C839.498 324.773 839.463 324.556 839.472 324.339C839.48 324.121 839.531 323.907 839.622 323.709C839.713 323.512 839.842 323.334 840.002 323.186C840.162 323.038 840.349 322.923 840.553 322.847L942.132 285.263C942.336 285.187 942.553 285.152 942.77 285.161C942.988 285.169 943.202 285.22 943.4 285.311C943.597 285.402 943.775 285.531 943.923 285.691C944.071 285.851 944.186 286.038 944.262 286.242C944.337 286.446 944.372 286.663 944.364 286.881C944.355 287.098 944.304 287.312 944.213 287.51C944.122 287.708 943.993 287.886 943.833 288.034C943.674 288.182 943.486 288.297 943.282 288.372Z" fill="#CCCCCC"/>
<path d="M947.245 299.083L845.666 336.667C845.462 336.743 845.245 336.778 845.028 336.769C844.81 336.761 844.596 336.71 844.399 336.619C844.201 336.528 844.023 336.399 843.875 336.239C843.727 336.079 843.612 335.892 843.536 335.688C843.461 335.484 843.426 335.267 843.435 335.049C843.443 334.832 843.494 334.618 843.585 334.42C843.676 334.222 843.805 334.044 843.965 333.896C844.124 333.748 844.312 333.633 844.516 333.558L946.095 295.973C946.299 295.898 946.516 295.863 946.733 295.871C946.951 295.88 947.165 295.931 947.362 296.022C947.56 296.113 947.738 296.242 947.886 296.402C948.034 296.561 948.149 296.749 948.225 296.953C948.3 297.157 948.335 297.374 948.326 297.592C948.318 297.809 948.267 298.023 948.176 298.221C948.085 298.418 947.956 298.596 947.796 298.744C947.637 298.892 947.449 299.007 947.245 299.083Z" fill="#CCCCCC"/>
<path d="M910.801 331.632C912.346 330.351 913.781 328.943 915.093 327.424C916.27 326.052 917.449 324.571 917.966 322.81C918.203 322.063 918.261 321.271 918.134 320.497C918.007 319.724 917.7 318.991 917.237 318.359C916.785 317.767 916.158 317.335 915.444 317.124C914.731 316.913 913.969 316.934 913.268 317.185C912.559 317.441 911.932 317.884 911.454 318.467C910.976 319.05 910.665 319.752 910.553 320.498C910.461 321.324 910.557 322.161 910.834 322.945C911.111 323.729 911.561 324.441 912.151 325.027C914.525 327.479 918.794 328.126 921.96 327.137C925.526 326.022 927.994 321.898 925.96 318.418C925.537 317.694 924.525 318.241 924.539 318.944C924.547 319.891 924.916 320.8 925.571 321.484C926.226 322.168 927.118 322.576 928.064 322.625C929.011 322.674 929.94 322.36 930.662 321.747C931.384 321.134 931.845 320.268 931.95 319.326L930.677 319.797C931.982 320.673 933.494 321.191 935.062 321.297C936.629 321.403 938.198 321.095 939.608 320.402C940.306 320.062 940.952 319.626 941.528 319.106C942.223 318.469 943.256 318.16 944.118 317.765L950.33 314.915C951.243 314.496 950.705 313.018 949.784 313.441L944.158 316.022C943.221 316.452 942.279 316.874 941.345 317.312C940.678 317.625 940.194 318.236 939.566 318.637C938.381 319.377 937.01 319.764 935.612 319.755C934.215 319.745 932.85 319.338 931.675 318.582C931.568 318.498 931.441 318.442 931.307 318.421C931.172 318.4 931.034 318.413 930.907 318.461C930.779 318.508 930.665 318.587 930.577 318.691C930.489 318.795 930.428 318.919 930.402 319.053C930.365 319.62 930.106 320.148 929.681 320.525C929.256 320.901 928.7 321.094 928.133 321.062C927.566 321.03 927.035 320.775 926.655 320.353C926.276 319.931 926.078 319.377 926.105 318.81L924.684 319.336C925.995 321.581 924.364 324.381 922.225 325.355C919.833 326.445 916.636 326.143 914.391 324.808C913.837 324.501 913.352 324.083 912.967 323.58C912.581 323.077 912.304 322.5 912.151 321.885C912.008 321.329 912.042 320.741 912.25 320.205C912.458 319.669 912.829 319.212 913.311 318.898C913.731 318.608 914.248 318.492 914.753 318.575C915.257 318.659 915.709 318.935 916.014 319.345C916.34 319.822 916.545 320.372 916.609 320.946C916.673 321.52 916.595 322.102 916.381 322.639C915.86 324.146 914.75 325.425 913.719 326.609C912.542 327.958 911.259 329.211 909.883 330.355C909.111 330.998 910.021 332.282 910.801 331.632Z" fill="#6C63FF"/>
<path d="M921.308 348.585C921.418 348.746 921.514 348.915 921.597 349.091L938.819 351.695L941.464 348.392L946.97 351.733L942.856 358.035C942.523 358.544 942.035 358.931 941.463 359.139C940.892 359.347 940.269 359.364 939.687 359.187L920.725 353.43C920.166 353.928 919.469 354.244 918.726 354.336C917.983 354.428 917.229 354.292 916.566 353.945C915.902 353.599 915.36 353.058 915.011 352.396C914.662 351.733 914.523 350.98 914.613 350.237C914.702 349.494 915.016 348.795 915.512 348.235C916.008 347.674 916.663 347.278 917.39 347.098C918.117 346.919 918.881 346.965 919.581 347.231C920.281 347.496 920.883 347.969 921.308 348.585Z" fill="#FFB7B7"/>
<path d="M958.846 462.584L953.208 461.589L954.36 439.368L962.681 440.836L958.846 462.584Z" fill="#FFB7B7"/>
<path d="M959.32 468.303L941.139 465.097L941.18 464.867C941.511 462.99 942.574 461.322 944.135 460.229C945.696 459.136 947.627 458.707 949.504 459.038L949.505 459.038L960.609 460.997L959.32 468.303Z" fill="#2F2E41"/>
<path d="M907.669 453.431L902.875 450.301L912.663 430.319L919.739 434.938L907.669 453.431Z" fill="#FFB7B7"/>
<path d="M905.858 458.876L890.399 448.786L890.527 448.59C891.568 446.995 893.201 445.878 895.066 445.486C896.931 445.094 898.875 445.459 900.471 446.5L900.472 446.501L909.914 452.664L905.858 458.876Z" fill="#2F2E41"/>
<path d="M948.972 358.321L947.399 364.856L959.092 368.233L971.327 371.766L969.426 361.086L948.972 358.321Z" fill="#FFB7B7"/>
<path d="M947.008 364.875L948.07 331.781L956.559 330.566L959.486 327.749L970.836 330.45L971.855 334.519L977.461 338.488L973.444 355.778L971.554 370.501L947.008 364.875Z" fill="#2F2E41"/>
<path d="M945.62 355.711L938.033 351.006L938.093 350.867C938.154 350.727 944.188 336.821 945.061 334.569C945.97 332.223 947.844 331.861 947.923 331.847L947.981 331.836L951.038 333.389L950.492 344.787L945.62 355.711Z" fill="#2F2E41"/>
<path d="M912.543 450.349L902.07 446.204L927.886 401.345L936.712 386.048C936.712 386.048 942.793 373.607 945.39 368.836L947.618 362.212L971.476 369.195C971.476 369.195 976.512 380.374 971.579 396.278L961.731 457.586L950.767 456.227L952.539 392.956L930.605 423.945C930.605 423.945 923.026 437.483 918.873 439.974L912.543 450.349Z" fill="#2F2E41"/>
<path d="M961.317 369.744C961.51 369.774 961.699 369.818 961.884 369.877L975.503 359.018L974.88 354.833L981.073 353.067L982.897 360.369C983.044 360.958 982.996 361.58 982.76 362.141C982.524 362.701 982.113 363.169 981.588 363.476L964.474 373.466C964.459 374.215 964.217 374.941 963.779 375.548C963.341 376.156 962.729 376.616 962.024 376.866C961.318 377.117 960.553 377.148 959.83 376.953C959.107 376.759 958.461 376.349 957.977 375.778C957.492 375.207 957.193 374.502 957.119 373.757C957.046 373.012 957.2 372.262 957.563 371.607C957.926 370.952 958.479 370.423 959.15 370.09C959.82 369.758 960.577 369.637 961.317 369.744Z" fill="#FFB7B7"/>
<path d="M974.377 360.11L971.606 348.137L974.82 340.704L977.254 338.541C977.41 338.504 977.573 338.5 977.731 338.53C977.889 338.559 978.04 338.621 978.173 338.712C978.855 339.137 979.32 340.152 979.556 341.73L981.765 355.153L974.377 360.11Z" fill="#2F2E41"/>
<path d="M955.622 322.812L957.103 314.415C957.629 311.431 959.319 308.778 961.802 307.039C964.284 305.301 967.355 304.62 970.339 305.147C973.324 305.673 975.977 307.363 977.715 309.845C979.453 312.328 980.134 315.399 979.608 318.383L978.127 326.78C978.056 327.181 977.829 327.537 977.495 327.771C977.162 328.004 976.75 328.096 976.349 328.025L956.867 324.59C956.466 324.519 956.11 324.292 955.877 323.959C955.644 323.625 955.552 323.213 955.622 322.812Z" fill="#2F2E41"/>
<path d="M964.33 325.705C968.886 326.508 973.231 323.466 974.034 318.909C974.838 314.353 971.795 310.008 967.239 309.205C962.683 308.402 958.338 311.444 957.535 316C956.731 320.556 959.774 324.901 964.33 325.705Z" fill="#FFB7B7"/>
<path d="M954.322 314.617C954.741 312.258 956.078 310.161 958.041 308.786C960.004 307.412 962.432 306.872 964.793 307.286L966.472 307.582C968.832 308.001 970.929 309.338 972.303 311.301C973.678 313.264 974.217 315.692 973.804 318.052L973.774 318.22L970.225 317.595L969.612 313.991L968.772 317.338L966.938 317.015L966.629 315.197L966.205 316.886L954.293 314.785L954.322 314.617Z" fill="#2F2E41"/>
<path d="M963.317 326.701C963.19 326.446 963.138 326.161 963.166 325.877C963.195 325.594 963.303 325.324 963.477 325.099C965.854 322.028 969.449 316.212 966.821 311.772L966.633 311.453L976.235 313.146L973.693 327.562L964.699 327.563C964.607 327.563 964.517 327.555 964.427 327.54C964.189 327.498 963.964 327.4 963.771 327.254C963.578 327.108 963.422 326.919 963.317 326.701Z" fill="#2F2E41"/>
<path d="M828.77 434.75L833.545 437.469L846.307 420.347L839.26 416.334L828.77 434.75Z" fill="#9F616A"/>
<path d="M824.916 438.684L828.44 432.497L837.843 437.853C839.43 438.76 840.594 440.259 841.077 442.023C841.561 443.786 841.325 445.669 840.422 447.259L840.311 447.453L824.916 438.684Z" fill="#2F2E41"/>
<path d="M861.017 445.632L866.428 446.586L872.683 426.168L864.696 424.76L861.017 445.632Z" fill="#9F616A"/>
<path d="M859.948 443.622L870.604 445.501L870.605 445.501C871.497 445.658 872.349 445.99 873.113 446.476C873.877 446.963 874.537 447.595 875.056 448.337C875.576 449.079 875.944 449.916 876.14 450.8C876.336 451.684 876.356 452.598 876.199 453.49L876.16 453.711L858.712 450.635L859.948 443.622Z" fill="#2F2E41"/>
<path d="M872.197 310.111L875.37 305.876C875.37 305.876 883.75 309.618 883.651 314.84L872.197 310.111Z" fill="#F1F1F1"/>
<path d="M853.111 361.57L853.214 398.413L830.921 425.469L840.373 431.231L862.724 405.135L866.331 397.579L860.34 439.303L869.544 440.64L880.573 402.638L880.191 365.435L853.111 361.57Z" fill="#2F2E41"/>
<path d="M863.771 372.155C854.369 370.497 848.717 367.646 848.588 367.594L848.38 367.51L857.281 345.669L861.194 324.764C862.759 315.889 869.754 310.376 870.671 309.915C870.902 309.4 871.243 308.942 871.67 308.573C872.097 308.204 872.599 307.932 873.142 307.777C875.246 307.237 877.44 308.717 877.532 308.781L884.206 312.72L884.222 312.825C884.263 313.094 888.227 345.655 888.227 345.655C888.227 345.655 882.897 372.553 882.543 373.403C882.543 373.403 868.995 373.076 863.771 372.155Z" fill="#3F3D56"/>
<path d="M882.938 305.701C888.272 306.641 893.359 303.079 894.3 297.745C895.24 292.411 891.678 287.324 886.344 286.383C881.009 285.442 875.923 289.004 874.982 294.339C874.041 299.673 877.603 304.76 882.938 305.701Z" fill="#9F616A"/>
<path opacity="0.2" d="M867.951 327.722L880.692 354.278L885.128 343.708L867.951 327.722Z" fill="black"/>
<path d="M918.101 353.105C917.559 353.397 916.96 353.567 916.346 353.603C915.732 353.638 915.117 353.539 914.546 353.311C913.974 353.084 913.459 352.733 913.037 352.285C912.616 351.837 912.297 351.302 912.105 350.718L897.15 350.481L901.531 344.061L915.061 345.27C916.064 345.012 917.127 345.13 918.049 345.603C918.97 346.077 919.686 346.871 920.061 347.837C920.436 348.803 920.443 349.873 920.082 350.844C919.721 351.815 919.016 352.619 918.101 353.105Z" fill="#9F616A"/>
<path d="M902.35 343.796L907.666 344.205L907.829 351.75L901.233 350.707L902.35 343.796Z" fill="#F1F1F1"/>
<path d="M904.991 353.869L879.798 347.077L870.498 324.245L870.49 324.056C870.42 322.312 870.986 320.603 872.084 319.246C873.181 317.889 874.735 316.978 876.455 316.683C878.175 316.388 879.944 316.729 881.431 317.643C882.917 318.556 884.021 319.98 884.535 321.647L889.513 337.783L904.416 342.798L904.991 353.869Z" fill="#3F3D56"/>
<path d="M874.935 302.977L882.901 304.679C883.387 304.782 885.643 299.742 886.009 298.679C886.272 297.991 886.777 297.422 887.428 297.079C888.08 296.735 888.834 296.641 889.55 296.813C890.14 296.975 891.851 296.121 893.647 295.069C897.056 293.071 897.736 288.31 894.855 285.606C894.777 285.532 894.699 285.464 894.621 285.4C892.77 283.888 890.434 283.078 888.085 282.634C885.956 282.231 883.714 282.112 881.656 282.791C877.966 284.008 875.474 287.649 874.642 291.444C873.811 295.239 874.377 299.194 875.139 303.004" fill="#2F2E41"/>
<path d="M1050.1 484.771L737.933 429.728C737.822 429.709 737.723 429.646 737.658 429.553C737.593 429.461 737.567 429.346 737.587 429.235C737.607 429.123 737.67 429.024 737.762 428.959C737.855 428.895 737.97 428.869 738.081 428.889L1050.41 483.961C1050.52 483.981 1050.62 484.044 1050.69 484.136C1050.75 484.229 1050.78 484.343 1050.76 484.455C1050.72 484.687 1050.33 484.812 1050.1 484.771Z" fill="#CBCBCB"/>
<rect x="810.997" y="92.0278" width="281" height="48" rx="24" transform="rotate(10 810.997 92.0278)" fill="white"/>
<path d="M866.698 122.164C866.55 123 866.215 123.753 865.69 124.424C865.165 125.095 864.428 125.59 863.478 125.91C862.531 126.214 861.38 126.247 860.025 126.008L857.047 125.483L855.872 132.148L853.177 131.673L856.074 115.247L861.746 116.247C863.007 116.469 864.031 116.877 864.82 117.471C865.627 118.052 866.179 118.75 866.473 119.566C866.784 120.384 866.859 121.251 866.698 122.164ZM860.412 123.81C861.437 123.991 862.241 123.897 862.826 123.529C863.413 123.145 863.782 122.528 863.932 121.677C864.249 119.881 863.391 118.803 861.358 118.445L858.38 117.92L857.434 123.285L860.412 123.81ZM871.891 123.494C872.402 122.902 873.012 122.482 873.722 122.233C874.45 121.972 875.264 121.92 876.162 122.079L875.67 124.868L874.985 124.747C873.929 124.561 873.078 124.687 872.432 125.125C871.802 125.566 871.37 126.449 871.137 127.772L869.928 134.627L867.234 134.152L869.53 121.129L872.224 121.604L871.891 123.494ZM881.916 136.96C880.687 136.743 879.625 136.272 878.729 135.545C877.837 134.803 877.196 133.877 876.806 132.769C876.419 131.645 876.344 130.413 876.58 129.074C876.814 127.75 877.312 126.627 878.076 125.706C878.839 124.785 879.774 124.137 880.88 123.763C881.985 123.39 883.161 123.313 884.406 123.532C885.65 123.752 886.728 124.226 887.64 124.955C888.551 125.685 889.208 126.613 889.61 127.74C890.012 128.867 890.097 130.092 889.863 131.416C889.63 132.739 889.124 133.86 888.344 134.779C887.565 135.698 886.605 136.349 885.465 136.733C884.344 137.104 883.161 137.179 881.916 136.96ZM882.329 134.62C883.022 134.742 883.697 134.691 884.354 134.465C885.027 134.243 885.611 133.834 886.106 133.239C886.601 132.644 886.931 131.874 887.098 130.928C887.265 129.983 887.224 129.155 886.975 128.445C886.73 127.719 886.337 127.138 885.796 126.702C885.256 126.265 884.639 125.986 883.946 125.864C883.252 125.742 882.577 125.793 881.92 126.018C881.279 126.246 880.726 126.661 880.263 127.261C879.802 127.846 879.489 128.612 879.322 129.557C879.075 130.959 879.238 132.109 879.811 133.006C880.402 133.89 881.241 134.428 882.329 134.62ZM896.836 136.886L902.395 126.923L905.255 127.428L897.995 139.576L894.78 139.009L892.137 125.115L895.02 125.623L896.836 136.886ZM908.966 126.303C908.478 126.217 908.097 125.979 907.825 125.59C907.552 125.201 907.459 124.762 907.545 124.274C907.631 123.785 907.869 123.405 908.258 123.132C908.647 122.86 909.086 122.766 909.575 122.852C910.047 122.936 910.42 123.172 910.693 123.561C910.965 123.951 911.058 124.389 910.972 124.878C910.886 125.366 910.648 125.747 910.259 126.019C909.87 126.292 909.439 126.387 908.966 126.303ZM909.986 128.262L907.689 141.285L904.995 140.81L907.291 127.787L909.986 128.262ZM911.487 135.18C911.718 133.872 912.19 132.761 912.904 131.847C913.633 130.936 914.511 130.287 915.538 129.899C916.583 129.498 917.681 129.4 918.831 129.602C919.682 129.752 920.484 130.089 921.237 130.611C922.008 131.121 922.584 131.726 922.964 132.427L924.072 126.14L926.79 126.619L923.706 144.109L920.988 143.63L921.334 141.668C920.782 142.221 920.076 142.632 919.216 142.903C918.371 143.177 917.445 143.225 916.436 143.047C915.302 142.847 914.312 142.38 913.467 141.646C912.64 140.899 912.041 139.965 911.67 138.843C911.318 137.709 911.257 136.488 911.487 135.18ZM922.139 137.107C922.297 136.209 922.245 135.395 921.984 134.667C921.738 133.941 921.346 133.352 920.809 132.9C920.271 132.448 919.656 132.16 918.962 132.038C918.269 131.916 917.593 131.975 916.933 132.216C916.276 132.442 915.7 132.852 915.205 133.447C914.728 134.029 914.411 134.769 914.253 135.667C914.094 136.566 914.137 137.385 914.38 138.127C914.638 138.871 915.035 139.477 915.57 139.945C916.123 140.4 916.739 140.687 917.416 140.807C918.11 140.929 918.786 140.87 919.446 140.629C920.106 140.388 920.675 139.968 921.155 139.37C921.652 138.759 921.98 138.005 922.139 137.107ZM940.386 140.007C940.3 140.496 940.19 140.931 940.058 141.314L930.107 139.56C930.003 140.614 930.241 141.517 930.824 142.269C931.406 143.022 932.201 143.487 933.21 143.665C934.659 143.92 935.79 143.494 936.603 142.387L939.51 142.899C938.905 144.027 938.015 144.886 936.838 145.474C935.681 146.05 934.338 146.203 932.809 145.934C931.565 145.714 930.495 145.241 929.599 144.515C928.722 143.775 928.089 142.851 927.7 141.743C927.329 140.621 927.261 139.391 927.497 138.052C927.734 136.712 928.209 135.586 928.922 134.672C929.654 133.745 930.557 133.092 931.631 132.712C932.721 132.336 933.904 132.26 935.181 132.485C936.41 132.702 937.458 133.163 938.324 133.868C939.191 134.573 939.806 135.462 940.17 136.533C940.536 137.589 940.608 138.747 940.386 140.007ZM937.723 138.661C937.882 137.665 937.668 136.807 937.08 136.086C936.493 135.365 935.687 134.914 934.663 134.733C933.733 134.569 932.884 134.729 932.117 135.211C931.352 135.677 930.818 136.403 930.514 137.389L937.723 138.661ZM953.356 149.508C952.253 149.313 951.294 148.949 950.478 148.416C949.665 147.866 949.069 147.192 948.69 146.394C948.31 145.596 948.204 144.725 948.371 143.779L951.254 144.288C951.192 145.008 951.365 145.639 951.773 146.183C952.197 146.728 952.858 147.081 953.756 147.239C954.686 147.403 955.449 147.31 956.047 146.961C956.648 146.595 957.01 146.058 957.135 145.349C957.233 144.798 957.146 144.319 956.877 143.914C956.623 143.512 956.268 143.173 955.813 142.898C955.374 142.626 954.748 142.304 953.936 141.934C952.914 141.461 952.09 141.023 951.462 140.62C950.853 140.204 950.367 139.647 950.002 138.949C949.638 138.251 949.546 137.39 949.727 136.366C949.893 135.421 950.276 134.635 950.873 134.009C951.471 133.384 952.229 132.957 953.146 132.729C954.064 132.5 955.082 132.485 956.201 132.682C957.792 132.963 959.021 133.594 959.888 134.575C960.773 135.544 961.149 136.731 961.015 138.137L958.037 137.612C958.095 137.005 957.902 136.443 957.457 135.926C957.012 135.409 956.364 135.075 955.513 134.925C954.741 134.789 954.076 134.875 953.518 135.182C952.96 135.49 952.616 136.014 952.485 136.755C952.396 137.259 952.472 137.703 952.713 138.087C952.973 138.458 953.322 138.779 953.762 139.052C954.201 139.324 954.811 139.643 955.591 140.008C956.626 140.499 957.456 140.954 958.08 141.373C958.721 141.794 959.222 142.362 959.583 143.076C959.964 143.776 960.062 144.647 959.879 145.687C959.731 146.522 959.364 147.269 958.776 147.929C958.205 148.592 957.445 149.075 956.498 149.38C955.569 149.671 954.522 149.714 953.356 149.508ZM967.848 152.112C966.619 151.895 965.557 151.424 964.661 150.697C963.769 149.955 963.128 149.03 962.738 147.921C962.352 146.797 962.276 145.565 962.513 144.226C962.746 142.902 963.244 141.78 964.008 140.858C964.772 139.937 965.706 139.289 966.812 138.916C967.918 138.542 969.093 138.465 970.338 138.684C971.582 138.904 972.66 139.378 973.572 140.108C974.483 140.837 975.14 141.765 975.542 142.892C975.945 144.019 976.029 145.244 975.796 146.568C975.562 147.891 975.056 149.013 974.277 149.931C973.497 150.85 972.538 151.501 971.398 151.885C970.276 152.256 969.093 152.332 967.848 152.112ZM968.261 149.772C968.954 149.894 969.629 149.843 970.286 149.618C970.959 149.395 971.543 148.986 972.038 148.391C972.533 147.796 972.864 147.026 973.03 146.08C973.197 145.135 973.156 144.307 972.908 143.597C972.662 142.872 972.269 142.29 971.728 141.854C971.188 141.418 970.571 141.138 969.878 141.016C969.185 140.894 968.509 140.945 967.852 141.171C967.211 141.399 966.659 141.813 966.195 142.414C965.735 142.999 965.421 143.764 965.254 144.709C965.007 146.112 965.17 147.261 965.743 148.158C966.334 149.043 967.174 149.58 968.261 149.772ZM983.087 136.546L980.003 154.036L977.309 153.561L980.393 136.071L983.087 136.546ZM997.631 143.716L995.335 156.739L992.641 156.264L992.912 154.728C992.392 155.189 991.757 155.516 991.008 155.708C990.278 155.888 989.527 155.91 988.755 155.774C987.731 155.593 986.846 155.218 986.102 154.648C985.373 154.081 984.846 153.338 984.521 152.42C984.211 151.504 984.16 150.455 984.369 149.274L985.719 141.616L988.39 142.087L987.111 149.343C986.905 150.509 987.038 151.458 987.51 152.191C987.985 152.909 988.726 153.356 989.735 153.534C990.743 153.712 991.593 153.545 992.284 153.033C992.994 152.509 993.452 151.663 993.658 150.497L994.937 143.241L997.631 143.716ZM1003.94 147.096L1002.67 154.304C1002.59 154.793 1002.63 155.167 1002.81 155.426C1003.01 155.673 1003.39 155.845 1003.94 155.942L1005.6 156.234L1005.2 158.479L1003.07 158.104C1001.86 157.89 1000.98 157.442 1000.43 156.761C999.889 156.08 999.728 155.101 999.953 153.825L1001.22 146.616L999.688 146.345L1000.08 144.147L1001.61 144.418L1002.18 141.18L1004.9 141.659L1004.33 144.897L1007.5 145.456L1007.11 147.654L1003.94 147.096ZM1011.66 144.41C1011.17 144.324 1010.79 144.086 1010.51 143.697C1010.24 143.308 1010.15 142.869 1010.23 142.38C1010.32 141.892 1010.56 141.512 1010.95 141.239C1011.34 140.966 1011.78 140.873 1012.26 140.959C1012.74 141.043 1013.11 141.279 1013.38 141.668C1013.65 142.057 1013.75 142.496 1013.66 142.985C1013.58 143.473 1013.34 143.854 1012.95 144.126C1012.56 144.399 1012.13 144.493 1011.66 144.41ZM1012.67 146.369L1010.38 159.392L1007.68 158.917L1009.98 145.894L1012.67 146.369ZM1019.53 161.224C1018.3 161.008 1017.24 160.536 1016.34 159.81C1015.45 159.067 1014.81 158.142 1014.42 157.034C1014.03 155.909 1013.96 154.678 1014.19 153.338C1014.43 152.015 1014.92 150.892 1015.69 149.971C1016.45 149.049 1017.39 148.402 1018.49 148.028C1019.6 147.654 1020.77 147.577 1022.02 147.797C1023.26 148.016 1024.34 148.491 1025.25 149.22C1026.16 149.949 1026.82 150.877 1027.22 152.004C1027.62 153.131 1027.71 154.357 1027.47 155.68C1027.24 157.004 1026.74 158.125 1025.96 159.044C1025.18 159.962 1024.22 160.614 1023.08 160.997C1021.96 161.368 1020.77 161.444 1019.53 161.224ZM1019.94 158.885C1020.63 159.007 1021.31 158.955 1021.97 158.73C1022.64 158.507 1023.22 158.099 1023.72 157.504C1024.21 156.908 1024.54 156.138 1024.71 155.193C1024.88 154.247 1024.84 153.42 1024.59 152.71C1024.34 151.984 1023.95 151.403 1023.41 150.966C1022.87 150.53 1022.25 150.251 1021.56 150.128C1020.86 150.006 1020.19 150.058 1019.53 150.283C1018.89 150.511 1018.34 150.925 1017.87 151.526C1017.41 152.111 1017.1 152.876 1016.93 153.822C1016.69 155.224 1016.85 156.374 1017.42 157.271C1018.01 158.155 1018.85 158.693 1019.94 158.885ZM1037.89 150.596C1038.92 150.777 1039.79 151.151 1040.52 151.718C1041.27 152.288 1041.79 153.03 1042.1 153.946C1042.41 154.862 1042.46 155.911 1042.26 157.092L1040.9 164.774L1038.23 164.303L1039.51 157.023C1039.72 155.857 1039.58 154.916 1039.11 154.198C1038.64 153.465 1037.9 153.01 1036.89 152.832C1035.88 152.654 1035.02 152.827 1034.31 153.352C1033.62 153.864 1033.17 154.703 1032.97 155.869L1031.68 163.148L1028.99 162.673L1031.28 149.65L1033.98 150.125L1033.72 151.614C1034.25 151.156 1034.89 150.838 1035.62 150.658C1036.36 150.48 1037.12 150.46 1037.89 150.596Z" fill="#2B2844"/>
<g filter="url(#filter2_d_635_293)">
<rect x="409" y="76" width="384" height="384" rx="24" fill="#F3F3F3"/>
<rect x="410" y="77" width="382" height="382" rx="23" stroke="#625CF9" stroke-width="2"/>
</g>
<rect x="460" y="52" width="281" height="48" rx="24" fill="white"/>
<path d="M484.644 84.168C483.524 84.168 482.516 83.976 481.62 83.592C480.724 83.192 480.02 82.632 479.508 81.912C478.996 81.192 478.74 80.352 478.74 79.392H481.668C481.732 80.112 482.012 80.704 482.508 81.168C483.02 81.632 483.732 81.864 484.644 81.864C485.588 81.864 486.324 81.64 486.852 81.192C487.38 80.728 487.644 80.136 487.644 79.416C487.644 78.856 487.476 78.4 487.14 78.048C486.82 77.696 486.412 77.424 485.916 77.232C485.436 77.04 484.764 76.832 483.9 76.608C482.812 76.32 481.924 76.032 481.236 75.744C480.564 75.44 479.988 74.976 479.508 74.352C479.028 73.728 478.788 72.896 478.788 71.856C478.788 70.896 479.028 70.056 479.508 69.336C479.988 68.616 480.66 68.064 481.524 67.68C482.388 67.296 483.388 67.104 484.524 67.104C486.14 67.104 487.46 67.512 488.484 68.328C489.524 69.128 490.1 70.232 490.212 71.64H487.188C487.14 71.032 486.852 70.512 486.324 70.08C485.796 69.648 485.1 69.432 484.236 69.432C483.452 69.432 482.812 69.632 482.316 70.032C481.82 70.432 481.572 71.008 481.572 71.76C481.572 72.272 481.724 72.696 482.028 73.032C482.348 73.352 482.748 73.608 483.228 73.8C483.708 73.992 484.364 74.2 485.196 74.424C486.3 74.728 487.196 75.032 487.884 75.336C488.588 75.64 489.18 76.112 489.66 76.752C490.156 77.376 490.404 78.216 490.404 79.272C490.404 80.12 490.172 80.92 489.708 81.672C489.26 82.424 488.596 83.032 487.716 83.496C486.852 83.944 485.828 84.168 484.644 84.168ZM505.608 70.776V84H502.872V82.44C502.44 82.984 501.872 83.416 501.168 83.736C500.48 84.04 499.744 84.192 498.96 84.192C497.92 84.192 496.984 83.976 496.152 83.544C495.336 83.112 494.688 82.472 494.208 81.624C493.744 80.776 493.512 79.752 493.512 78.552V70.776H496.224V78.144C496.224 79.328 496.52 80.24 497.112 80.88C497.704 81.504 498.512 81.816 499.536 81.816C500.56 81.816 501.368 81.504 501.96 80.88C502.568 80.24 502.872 79.328 502.872 78.144V70.776H505.608ZM514.018 84.216C512.978 84.216 512.042 84.032 511.21 83.664C510.394 83.28 509.746 82.768 509.266 82.128C508.786 81.472 508.53 80.744 508.498 79.944H511.33C511.378 80.504 511.642 80.976 512.122 81.36C512.618 81.728 513.234 81.912 513.97 81.912C514.738 81.912 515.33 81.768 515.746 81.48C516.178 81.176 516.394 80.792 516.394 80.328C516.394 79.832 516.154 79.464 515.674 79.224C515.21 78.984 514.466 78.72 513.442 78.432C512.45 78.16 511.642 77.896 511.018 77.64C510.394 77.384 509.85 76.992 509.386 76.464C508.938 75.936 508.714 75.24 508.714 74.376C508.714 73.672 508.922 73.032 509.338 72.456C509.754 71.864 510.346 71.4 511.114 71.064C511.898 70.728 512.794 70.56 513.802 70.56C515.306 70.56 516.514 70.944 517.426 71.712C518.354 72.464 518.85 73.496 518.914 74.808H516.178C516.13 74.216 515.89 73.744 515.458 73.392C515.026 73.04 514.442 72.864 513.706 72.864C512.986 72.864 512.434 73 512.05 73.272C511.666 73.544 511.474 73.904 511.474 74.352C511.474 74.704 511.602 75 511.858 75.24C512.114 75.48 512.426 75.672 512.794 75.816C513.162 75.944 513.706 76.112 514.426 76.32C515.386 76.576 516.17 76.84 516.778 77.112C517.402 77.368 517.938 77.752 518.386 78.264C518.834 78.776 519.066 79.456 519.082 80.304C519.082 81.056 518.874 81.728 518.458 82.32C518.042 82.912 517.45 83.376 516.682 83.712C515.93 84.048 515.042 84.216 514.018 84.216ZM525.23 73.008V80.328C525.23 80.824 525.342 81.184 525.566 81.408C525.806 81.616 526.206 81.72 526.766 81.72H528.446V84H526.286C525.054 84 524.11 83.712 523.454 83.136C522.798 82.56 522.47 81.624 522.47 80.328V73.008H520.91V70.776H522.47V67.488H525.23V70.776H528.446V73.008H525.23ZM530.056 77.328C530.056 76 530.328 74.824 530.872 73.8C531.432 72.776 532.184 71.984 533.128 71.424C534.088 70.848 535.144 70.56 536.296 70.56C537.336 70.56 538.24 70.768 539.008 71.184C539.792 71.584 540.416 72.088 540.88 72.696V70.776H543.64V84H540.88V82.032C540.416 82.656 539.784 83.176 538.984 83.592C538.184 84.008 537.272 84.216 536.248 84.216C535.112 84.216 534.072 83.928 533.128 83.352C532.184 82.76 531.432 81.944 530.872 80.904C530.328 79.848 530.056 78.656 530.056 77.328ZM540.88 77.376C540.88 76.464 540.688 75.672 540.304 75C539.936 74.328 539.448 73.816 538.84 73.464C538.232 73.112 537.576 72.936 536.872 72.936C536.168 72.936 535.512 73.112 534.904 73.464C534.296 73.8 533.8 74.304 533.416 74.976C533.048 75.632 532.864 76.416 532.864 77.328C532.864 78.24 533.048 79.04 533.416 79.728C533.8 80.416 534.296 80.944 534.904 81.312C535.528 81.664 536.184 81.84 536.872 81.84C537.576 81.84 538.232 81.664 538.84 81.312C539.448 80.96 539.936 80.448 540.304 79.776C540.688 79.088 540.88 78.288 540.88 77.376ZM548.626 69.024C548.13 69.024 547.714 68.856 547.378 68.52C547.042 68.184 546.874 67.768 546.874 67.272C546.874 66.776 547.042 66.36 547.378 66.024C547.714 65.688 548.13 65.52 548.626 65.52C549.106 65.52 549.514 65.688 549.85 66.024C550.186 66.36 550.354 66.776 550.354 67.272C550.354 67.768 550.186 68.184 549.85 68.52C549.514 68.856 549.106 69.024 548.626 69.024ZM549.97 70.776V84H547.234V70.776H549.97ZM560.234 70.56C561.274 70.56 562.202 70.776 563.018 71.208C563.85 71.64 564.498 72.28 564.962 73.128C565.426 73.976 565.658 75 565.658 76.2V84H562.946V76.608C562.946 75.424 562.65 74.52 562.058 73.896C561.466 73.256 560.658 72.936 559.634 72.936C558.61 72.936 557.794 73.256 557.186 73.896C556.594 74.52 556.298 75.424 556.298 76.608V84H553.562V70.776H556.298V72.288C556.746 71.744 557.314 71.32 558.002 71.016C558.706 70.712 559.45 70.56 560.234 70.56ZM568.236 77.328C568.236 76 568.508 74.824 569.052 73.8C569.612 72.776 570.364 71.984 571.308 71.424C572.268 70.848 573.324 70.56 574.476 70.56C575.516 70.56 576.42 70.768 577.188 71.184C577.972 71.584 578.596 72.088 579.06 72.696V70.776H581.82V84H579.06V82.032C578.596 82.656 577.964 83.176 577.164 83.592C576.364 84.008 575.452 84.216 574.428 84.216C573.292 84.216 572.252 83.928 571.308 83.352C570.364 82.76 569.612 81.944 569.052 80.904C568.508 79.848 568.236 78.656 568.236 77.328ZM579.06 77.376C579.06 76.464 578.868 75.672 578.484 75C578.116 74.328 577.628 73.816 577.02 73.464C576.412 73.112 575.756 72.936 575.052 72.936C574.348 72.936 573.692 73.112 573.084 73.464C572.476 73.8 571.98 74.304 571.596 74.976C571.228 75.632 571.044 76.416 571.044 77.328C571.044 78.24 571.228 79.04 571.596 79.728C571.98 80.416 572.476 80.944 573.084 81.312C573.708 81.664 574.364 81.84 575.052 81.84C575.756 81.84 576.412 81.664 577.02 81.312C577.628 80.96 578.116 80.448 578.484 79.776C578.868 79.088 579.06 78.288 579.06 77.376ZM588.149 72.744C588.613 72.104 589.245 71.584 590.045 71.184C590.861 70.768 591.765 70.56 592.757 70.56C593.925 70.56 594.981 70.84 595.925 71.4C596.869 71.96 597.613 72.76 598.157 73.8C598.701 74.824 598.973 76 598.973 77.328C598.973 78.656 598.701 79.848 598.157 80.904C597.613 81.944 596.861 82.76 595.901 83.352C594.957 83.928 593.909 84.216 592.757 84.216C591.733 84.216 590.821 84.016 590.021 83.616C589.237 83.216 588.613 82.704 588.149 82.08V84H585.413V66.24H588.149V72.744ZM596.189 77.328C596.189 76.416 595.997 75.632 595.613 74.976C595.245 74.304 594.749 73.8 594.125 73.464C593.517 73.112 592.861 72.936 592.157 72.936C591.469 72.936 590.813 73.112 590.189 73.464C589.581 73.816 589.085 74.328 588.701 75C588.333 75.672 588.149 76.464 588.149 77.376C588.149 78.288 588.333 79.088 588.701 79.776C589.085 80.448 589.581 80.96 590.189 81.312C590.813 81.664 591.469 81.84 592.157 81.84C592.861 81.84 593.517 81.664 594.125 81.312C594.749 80.944 595.245 80.416 595.613 79.728C595.997 79.04 596.189 78.24 596.189 77.328ZM604.415 66.24V84H601.679V66.24H604.415ZM620.127 77.064C620.127 77.56 620.095 78.008 620.031 78.408H609.927C610.007 79.464 610.399 80.312 611.103 80.952C611.807 81.592 612.671 81.912 613.695 81.912C615.167 81.912 616.207 81.296 616.815 80.064H619.767C619.367 81.28 618.639 82.28 617.583 83.064C616.543 83.832 615.247 84.216 613.695 84.216C612.431 84.216 611.295 83.936 610.287 83.376C609.295 82.8 608.511 82 607.935 80.976C607.375 79.936 607.095 78.736 607.095 77.376C607.095 76.016 607.367 74.824 607.911 73.8C608.471 72.76 609.247 71.96 610.239 71.4C611.247 70.84 612.399 70.56 613.695 70.56C614.943 70.56 616.055 70.832 617.031 71.376C618.007 71.92 618.767 72.688 619.311 73.68C619.855 74.656 620.127 75.784 620.127 77.064ZM617.271 76.2C617.255 75.192 616.895 74.384 616.191 73.776C615.487 73.168 614.615 72.864 613.575 72.864C612.631 72.864 611.823 73.168 611.151 73.776C610.479 74.368 610.079 75.176 609.951 76.2H617.271ZM641.126 72.12C640.694 71.288 640.094 70.664 639.326 70.248C638.558 69.816 637.67 69.6 636.662 69.6C635.558 69.6 634.574 69.848 633.71 70.344C632.846 70.84 632.166 71.544 631.67 72.456C631.19 73.368 630.95 74.424 630.95 75.624C630.95 76.824 631.19 77.888 631.67 78.816C632.166 79.728 632.846 80.432 633.71 80.928C634.574 81.424 635.558 81.672 636.662 81.672C638.15 81.672 639.358 81.256 640.286 80.424C641.214 79.592 641.782 78.464 641.99 77.04H635.726V74.856H644.918V76.992C644.742 78.288 644.278 79.48 643.526 80.568C642.79 81.656 641.822 82.528 640.622 83.184C639.438 83.824 638.118 84.144 636.662 84.144C635.094 84.144 633.662 83.784 632.366 83.064C631.07 82.328 630.038 81.312 629.27 80.016C628.518 78.72 628.142 77.256 628.142 75.624C628.142 73.992 628.518 72.528 629.27 71.232C630.038 69.936 631.07 68.928 632.366 68.208C633.678 67.472 635.11 67.104 636.662 67.104C638.438 67.104 640.014 67.544 641.39 68.424C642.782 69.288 643.79 70.52 644.414 72.12H641.126ZM650.352 72.696C650.752 72.024 651.28 71.504 651.936 71.136C652.608 70.752 653.4 70.56 654.312 70.56V73.392H653.616C652.544 73.392 651.728 73.664 651.168 74.208C650.624 74.752 650.352 75.696 650.352 77.04V84H647.616V70.776H650.352V72.696ZM662.563 84.216C661.315 84.216 660.187 83.936 659.179 83.376C658.171 82.8 657.379 82 656.803 80.976C656.227 79.936 655.939 78.736 655.939 77.376C655.939 76.032 656.235 74.84 656.827 73.8C657.419 72.76 658.227 71.96 659.251 71.4C660.275 70.84 661.419 70.56 662.683 70.56C663.947 70.56 665.091 70.84 666.115 71.4C667.139 71.96 667.947 72.76 668.539 73.8C669.131 74.84 669.427 76.032 669.427 77.376C669.427 78.72 669.123 79.912 668.515 80.952C667.907 81.992 667.075 82.8 666.019 83.376C664.979 83.936 663.827 84.216 662.563 84.216ZM662.563 81.84C663.267 81.84 663.923 81.672 664.531 81.336C665.155 81 665.659 80.496 666.043 79.824C666.427 79.152 666.619 78.336 666.619 77.376C666.619 76.416 666.435 75.608 666.067 74.952C665.699 74.28 665.211 73.776 664.603 73.44C663.995 73.104 663.339 72.936 662.635 72.936C661.931 72.936 661.275 73.104 660.667 73.44C660.075 73.776 659.603 74.28 659.251 74.952C658.899 75.608 658.723 76.416 658.723 77.376C658.723 78.8 659.083 79.904 659.803 80.688C660.539 81.456 661.459 81.84 662.563 81.84ZM689.892 70.776L685.788 84H682.908L680.244 74.232L677.58 84H674.7L670.572 70.776H673.356L676.116 81.408L678.924 70.776H681.78L684.468 81.36L687.204 70.776H689.892ZM695.129 73.008V80.328C695.129 80.824 695.241 81.184 695.465 81.408C695.705 81.616 696.105 81.72 696.665 81.72H698.345V84H696.185C694.953 84 694.009 83.712 693.353 83.136C692.697 82.56 692.369 81.624 692.369 80.328V73.008H690.809V70.776H692.369V67.488H695.129V70.776H698.345V73.008H695.129ZM707.706 70.56C708.714 70.56 709.61 70.776 710.394 71.208C711.194 71.64 711.818 72.28 712.266 73.128C712.73 73.976 712.962 75 712.962 76.2V84H710.25V76.608C710.25 75.424 709.954 74.52 709.362 73.896C708.77 73.256 707.962 72.936 706.938 72.936C705.914 72.936 705.098 73.256 704.49 73.896C703.898 74.52 703.602 75.424 703.602 76.608V84H700.866V66.24H703.602V72.312C704.066 71.752 704.65 71.32 705.354 71.016C706.074 70.712 706.858 70.56 707.706 70.56Z" fill="#2B2844"/>
<path d="M743.392 365L743.737 364.366C739.111 361.88 733.352 358.786 730.345 353.708C727.38 348.703 727.314 341.905 730.171 335.969C732.603 330.917 737.071 326.391 743.09 322.88C744.278 322.187 745.524 321.531 746.729 320.896C749.643 319.362 752.656 317.775 755.14 315.524C758.562 312.424 761.151 307.221 759.221 302.587C758.587 301.107 757.547 299.835 756.221 298.913C754.895 297.991 753.336 297.457 751.72 297.372L751.679 298.091C753.159 298.169 754.588 298.658 755.803 299.502C757.018 300.346 757.971 301.512 758.553 302.867C760.346 307.173 757.886 312.061 754.651 314.991C752.235 317.181 749.263 318.746 746.39 320.259C745.177 320.897 743.924 321.558 742.723 322.258C736.578 325.842 732.011 330.476 729.517 335.658C726.556 341.808 726.634 348.864 729.72 354.074C732.83 359.324 738.686 362.471 743.392 365Z" fill="#F1F1F1"/>
<path d="M747.121 301.171C750.627 301.171 753.47 299.799 753.47 298.107C753.47 296.415 750.627 295.043 747.121 295.043C743.615 295.043 740.772 296.415 740.772 298.107C740.772 299.799 743.615 301.171 747.121 301.171Z" fill="#F1F1F1"/>
<path d="M742.043 321.357C745.549 321.357 748.391 319.985 748.391 318.293C748.391 316.601 745.549 315.229 742.043 315.229C738.536 315.229 735.694 316.601 735.694 318.293C735.694 319.985 738.536 321.357 742.043 321.357Z" fill="#F1F1F1"/>
<path d="M753.651 324.602C757.158 324.602 760 323.23 760 321.538C760 319.845 757.158 318.474 753.651 318.474C750.145 318.474 747.303 319.845 747.303 321.538C747.303 323.23 750.145 324.602 753.651 324.602Z" fill="#F1F1F1"/>
<path d="M735.512 341.543C739.019 341.543 741.861 340.172 741.861 338.479C741.861 336.787 739.019 335.415 735.512 335.415C732.006 335.415 729.164 336.787 729.164 338.479C729.164 340.172 732.006 341.543 735.512 341.543Z" fill="#F1F1F1"/>
<path d="M722.815 341.543C726.321 341.543 729.164 340.172 729.164 338.479C729.164 336.787 726.321 335.415 722.815 335.415C719.309 335.415 716.466 336.787 716.466 338.479C716.466 340.172 719.309 341.543 722.815 341.543Z" fill="#F1F1F1"/>
<path d="M506.805 302.418H484.278C483.668 302.418 483.083 302.176 482.652 301.748C482.22 301.319 481.978 300.738 481.977 300.132V226.382C481.978 225.776 482.22 225.195 482.652 224.766C483.083 224.338 483.668 224.097 484.278 224.096H506.805C507.415 224.097 508 224.338 508.431 224.766C508.862 225.195 509.105 225.776 509.106 226.382V300.132C509.105 300.738 508.862 301.319 508.431 301.748C508 302.176 507.415 302.418 506.805 302.418Z" fill="#6C63FF"/>
<path d="M547.885 302.418H525.359C524.749 302.417 524.164 302.176 523.732 301.748C523.301 301.319 523.058 300.738 523.058 300.132V197.116C523.058 196.51 523.301 195.929 523.732 195.5C524.164 195.072 524.749 194.831 525.359 194.83H547.885C548.495 194.831 549.08 195.072 549.512 195.5C549.943 195.929 550.186 196.51 550.186 197.116V300.132C550.186 300.738 549.943 301.319 549.512 301.748C549.08 302.176 548.495 302.417 547.885 302.418Z" fill="#6C63FF"/>
<path d="M588.966 302.418H566.439C565.829 302.418 565.244 302.176 564.813 301.748C564.382 301.319 564.139 300.738 564.138 300.132V226.382C564.139 225.776 564.382 225.195 564.813 224.766C565.244 224.338 565.829 224.097 566.439 224.096H588.966C589.576 224.097 590.161 224.338 590.592 224.766C591.023 225.195 591.266 225.776 591.267 226.382V300.132C591.266 300.738 591.023 301.319 590.592 301.748C590.161 302.176 589.576 302.418 588.966 302.418Z" fill="#6C63FF"/>
<path d="M630.046 302.418H607.52C606.924 302.431 606.347 302.208 605.915 301.799C605.484 301.39 605.234 300.828 605.219 300.236V185.46C605.234 184.868 605.484 184.306 605.915 183.897C606.347 183.488 606.924 183.265 607.52 183.278H630.046C630.643 183.265 631.219 183.488 631.651 183.897C632.082 184.306 632.333 184.868 632.347 185.46V300.236C632.333 300.828 632.082 301.39 631.651 301.799C631.219 302.208 630.643 302.431 630.046 302.418Z" fill="#6C63FF"/>
<path d="M671.127 302.418H648.6C647.99 302.417 647.405 302.176 646.974 301.748C646.543 301.319 646.3 300.738 646.299 300.132V164.77C646.3 164.164 646.543 163.582 646.974 163.154C647.405 162.725 647.99 162.484 648.6 162.484H671.127C671.737 162.484 672.322 162.725 672.753 163.154C673.185 163.582 673.427 164.164 673.428 164.77V300.132C673.427 300.738 673.185 301.319 672.753 301.748C672.322 302.176 671.737 302.417 671.127 302.418Z" fill="#6C63FF"/>
<path d="M495.541 214.854C498.11 214.854 500.192 212.785 500.192 210.233C500.192 207.681 498.11 205.612 495.541 205.612C492.973 205.612 490.891 207.681 490.891 210.233C490.891 212.785 492.973 214.854 495.541 214.854Z" fill="#3F3D56"/>
<path d="M536.622 184.818C539.191 184.818 541.273 182.749 541.273 180.197C541.273 177.645 539.191 175.576 536.622 175.576C534.054 175.576 531.972 177.645 531.972 180.197C531.972 182.749 534.054 184.818 536.622 184.818Z" fill="#3F3D56"/>
<path d="M577.702 214.854C580.271 214.854 582.353 212.785 582.353 210.233C582.353 207.681 580.271 205.612 577.702 205.612C575.134 205.612 573.052 207.681 573.052 210.233C573.052 212.785 575.134 214.854 577.702 214.854Z" fill="#3F3D56"/>
<path d="M618.783 170.185C621.351 170.185 623.434 168.116 623.434 165.564C623.434 163.012 621.351 160.943 618.783 160.943C616.214 160.943 614.132 163.012 614.132 165.564C614.132 168.116 616.214 170.185 618.783 170.185Z" fill="#3F3D56"/>
<path d="M659.864 153.242C662.432 153.242 664.514 151.173 664.514 148.621C664.514 146.069 662.432 144 659.864 144C657.295 144 655.213 146.069 655.213 148.621C655.213 151.173 657.295 153.242 659.864 153.242Z" fill="#3F3D56"/>
<path d="M697.524 303.276H457.363C457.267 303.276 457.174 303.238 457.106 303.171C457.038 303.103 457 303.011 457 302.916C457 302.82 457.038 302.729 457.106 302.661C457.174 302.593 457.267 302.555 457.363 302.555H697.524C697.62 302.555 697.713 302.593 697.781 302.661C697.849 302.729 697.887 302.82 697.887 302.916C697.887 303.011 697.849 303.103 697.781 303.171C697.713 303.238 697.62 303.276 697.524 303.276Z" fill="#625CF9"/>
<path d="M681.901 297.417C682.199 297.123 682.429 296.767 682.574 296.375C682.719 295.982 682.775 295.563 682.74 295.147C682.704 294.73 682.577 294.327 682.367 293.965C682.157 293.602 681.87 293.29 681.526 293.05L682.952 286.674L679.264 284.867L677.377 293.9C677.009 294.502 676.876 295.216 677.004 295.908C677.131 296.6 677.509 297.222 678.067 297.656C678.624 298.089 679.323 298.304 680.029 298.26C680.736 298.217 681.402 297.917 681.901 297.417Z" fill="#FFB7B7"/>
<path d="M722.237 297.557C722.511 297.241 722.712 296.868 722.826 296.466C722.94 296.063 722.964 295.641 722.896 295.229C722.828 294.817 722.67 294.424 722.432 294.079C722.195 293.734 721.884 293.445 721.523 293.232L722.448 286.765L718.63 285.248L717.452 294.398C717.132 295.026 717.056 295.749 717.236 296.429C717.417 297.109 717.843 297.7 718.432 298.089C719.022 298.479 719.735 298.64 720.436 298.542C721.138 298.443 721.778 298.093 722.237 297.557Z" fill="#FFB7B7"/>
<path d="M693.484 361.028L689.722 361.027L687.933 346.612L693.484 346.613L693.484 361.028Z" fill="#FFB7B7"/>
<path d="M694.443 364.65L682.315 364.65V364.497C682.315 363.253 682.812 362.061 683.698 361.181C684.583 360.301 685.784 359.807 687.035 359.807L694.443 359.807L694.443 364.65Z" fill="#2F2E41"/>
<path d="M706.062 361.028L702.301 361.027L700.512 346.612L706.063 346.613L706.062 361.028Z" fill="#FFB7B7"/>
<path d="M707.021 364.65L694.894 364.65V364.497C694.894 363.253 695.391 362.061 696.276 361.181C697.162 360.301 698.362 359.807 699.614 359.807L707.022 359.807L707.021 364.65Z" fill="#2F2E41"/>
<path d="M713.636 239.75L717.691 238.296C717.691 238.296 719.413 238.659 719.413 243.298C719.413 247.936 723.985 291.197 723.985 291.197L715.984 293.29L711.461 252.247L713.636 239.75Z" fill="#2F2E41"/>
<path d="M686.534 239.75L682.478 238.296C682.478 238.296 680.756 238.659 680.756 243.298C680.756 247.936 676.185 291.197 676.185 291.197L684.185 293.29L688.708 252.247L686.534 239.75Z" fill="#2F2E41"/>
<path d="M686.585 289.089L685.477 321.586L687.931 357.533L694.255 357.678L695.175 324.146L700.391 307.38L699.865 356.797L707.026 356.712L711.461 322.713C711.461 322.713 717.318 294.576 714.07 289.089L699.112 284.147L686.585 289.089Z" fill="#2F2E41"/>
<path d="M686.708 285.174L686.347 292.991C686.347 292.991 691.393 295.486 700.264 293.966C709.135 292.446 715.032 293.448 715.032 293.448L714.351 283.483L686.708 285.174Z" fill="#625CF9"/>
<path d="M682.316 238.411L693.981 233.333L694.677 230.673L706.025 230.999L706.515 233.717L717.691 238.296L712.767 255.309L713.272 267.277L719.413 289.089C719.413 289.089 714.233 293.46 701.79 291.58L699.643 287.281L698.33 291.827C698.33 291.827 687.418 295.815 684.394 290.623L686.585 253.119L682.316 238.411Z" fill="#2F2E41"/>
<path d="M700.247 228.174C704.409 228.174 707.782 224.822 707.782 220.686C707.782 216.551 704.409 213.199 700.247 213.199C696.086 213.199 692.712 216.551 692.712 220.686C692.712 224.822 696.086 228.174 700.247 228.174Z" fill="#FFB7B7"/>
<path d="M709.201 217.785C709.066 217.176 708.807 216.601 708.44 216.095C708.293 214.696 707.824 213.35 707.067 212.161C706.771 211.604 706.351 211.122 705.838 210.751C705.251 210.415 704.581 210.249 703.904 210.272C703.781 210.27 703.56 210.307 703.361 210.316C703.234 210.277 703.105 210.242 702.977 210.209C702.901 210.043 702.753 209.559 702.711 209.591L702.15 210.035C701.912 209.994 701.674 209.962 701.434 209.936C701.347 209.689 701.26 209.442 701.173 209.195C701.032 209.416 700.908 209.648 700.802 209.888C700.564 209.876 700.325 209.872 700.087 209.876L699.61 209.42C699.581 209.547 699.517 209.663 699.423 209.754C699.33 209.845 699.212 209.907 699.083 209.932C698.864 209.955 698.645 209.984 698.427 210.019C698.409 210.019 698.391 210.019 698.374 210.018C697.199 209.989 695.935 209.937 694.953 210.578C694.493 210.891 694.119 211.313 693.863 211.806C693.743 211.887 693.623 211.968 693.506 212.054C693.112 212.321 692.77 212.658 692.498 213.047C692.3 213.382 692.15 213.744 692.052 214.12C691.677 215.254 691.503 216.444 691.539 217.636C691.579 218.837 692.035 219.987 692.83 220.893C693.334 221.431 693.974 221.828 694.479 222.365C695.517 223.471 695.712 225.014 696.601 226.185C697.541 227.423 699.256 228.238 700.763 228.471C701.668 228.607 702.592 228.563 703.481 228.343C704.37 228.123 705.206 227.73 705.942 227.188C706.295 226.944 706.594 226.631 706.823 226.269C707.346 225.371 707.125 224.241 707.319 223.221C707.683 221.309 709.519 219.705 709.201 217.785Z" fill="#2F2E41"/>
<path d="M495.294 210.522L494.86 209.944L536.622 179.051L577.57 209.399L619.078 164.62L619.152 164.59L659.436 148.07L659.712 148.737L619.503 165.226L577.66 210.365L536.622 179.95L495.294 210.522Z" fill="#3F3D56"/>
<defs>
<filter id="filter0_d_635_293" x="0.798828" y="30.118" width="637.249" height="637.249" filterUnits="userSpaceOnUse" color-interpolation-filters="sRGB">
<feFlood flood-opacity="0" result="BackgroundImageFix"/>
<feColorMatrix in="SourceAlpha" type="matrix" values="0 0 0 0 0 0 0 0 0 0 0 0 0 0 0 0 0 0 127 0" result="hardAlpha"/>
<feMorphology radius="40" operator="dilate" in="SourceAlpha" result="effect1_dropShadow_635_293"/>
<feOffset dy="24"/>
<feGaussianBlur stdDeviation="30"/>
<feComposite in2="hardAlpha" operator="out"/>
<feColorMatrix type="matrix" values="0 0 0 0 0.384314 0 0 0 0 0.360784 0 0 0 0 0.976471 0 0 0 0.25 0"/>
<feBlend mode="normal" in2="BackgroundImageFix" result="effect1_dropShadow_635_293"/>
<feBlend mode="normal" in="SourceGraphic" in2="effect1_dropShadow_635_293" result="shape"/>
</filter>
<filter id="filter1_d_635_293" x="571.118" y="29.799" width="637.249" height="637.249" filterUnits="userSpaceOnUse" color-interpolation-filters="sRGB">
<feFlood flood-opacity="0" result="BackgroundImageFix"/>
<feColorMatrix in="SourceAlpha" type="matrix" values="0 0 0 0 0 0 0 0 0 0 0 0 0 0 0 0 0 0 127 0" result="hardAlpha"/>
<feMorphology radius="40" operator="dilate" in="SourceAlpha" result="effect1_dropShadow_635_293"/>
<feOffset dy="24"/>
<feGaussianBlur stdDeviation="30"/>
<feComposite in2="hardAlpha" operator="out"/>
<feColorMatrix type="matrix" values="0 0 0 0 0.384314 0 0 0 0 0.360784 0 0 0 0 0.976471 0 0 0 0.25 0"/>
<feBlend mode="normal" in2="BackgroundImageFix" result="effect1_dropShadow_635_293"/>
<feBlend mode="normal" in="SourceGraphic" in2="effect1_dropShadow_635_293" result="shape"/>
</filter>
<filter id="filter2_d_635_293" x="309" y="0" width="584" height="584" filterUnits="userSpaceOnUse" color-interpolation-filters="sRGB">
<feFlood flood-opacity="0" result="BackgroundImageFix"/>
<feColorMatrix in="SourceAlpha" type="matrix" values="0 0 0 0 0 0 0 0 0 0 0 0 0 0 0 0 0 0 127 0" result="hardAlpha"/>
<feMorphology radius="40" operator="dilate" in="SourceAlpha" result="effect1_dropShadow_635_293"/>
<feOffset dy="24"/>
<feGaussianBlur stdDeviation="30"/>
<feComposite in2="hardAlpha" operator="out"/>
<feColorMatrix type="matrix" values="0 0 0 0 0.384314 0 0 0 0 0.360784 0 0 0 0 0.976471 0 0 0 0.25 0"/>
<feBlend mode="normal" in2="BackgroundImageFix" result="effect1_dropShadow_635_293"/>
<feBlend mode="normal" in="SourceGraphic" in2="effect1_dropShadow_635_293" result="shape"/>
</filter>
</defs>
</svg>
