<svg width="521" height="331" viewBox="0 0 521 331" fill="none" xmlns="http://www.w3.org/2000/svg">
<path d="M199.797 38.1286L199.076 37.8901C198.43 37.6758 197.896 37.2141 197.59 36.6063C197.284 35.9986 197.232 35.2944 197.445 34.6482L197.645 34.0428C198.141 32.5435 198.84 31.382 199.723 30.5907C200.778 29.6792 201.922 28.8768 203.139 28.1956C203.929 27.7953 204.681 27.3247 205.387 26.7894C205.907 26.3642 206.291 25.7957 206.491 25.1545C206.988 23.6505 206.25 22.5952 204.234 21.9286C203.112 21.5715 201.946 21.3708 200.768 21.3323C200.316 21.3136 199.873 21.1901 199.477 20.9714C199.08 20.7528 198.739 20.4451 198.481 20.0724C198.223 19.6997 198.056 19.2723 197.991 18.8238C197.927 18.3753 197.967 17.918 198.109 17.4878L198.515 16.2624C198.687 15.7341 199.008 15.267 199.441 14.9178C199.873 14.5686 200.397 14.3523 200.95 14.2951C203.111 14.1131 205.287 14.3868 207.337 15.0984C209.494 15.8119 211.322 16.8184 212.77 18.0898C214.22 19.3639 215.218 20.8146 215.738 22.4017C216.258 23.9789 216.248 25.6827 215.71 27.2537C215.15 28.9467 214.2 30.2683 212.887 31.182C211.588 32.0867 209.86 32.976 207.751 33.8256C206.645 34.2604 205.566 34.7633 204.521 35.3313C203.845 35.7037 203.275 36.2435 202.867 36.899C202.583 37.4341 202.119 37.8512 201.557 38.0763C200.995 38.3015 200.371 38.32 199.797 38.1286Z" fill="#6C63FF"/>
<path d="M195.607 49.4531L195.512 49.4216C194.315 49.025 193.325 48.1694 192.759 47.0428C192.193 45.9163 192.097 44.6111 192.493 43.414C192.889 42.2169 193.744 41.226 194.87 40.6591C195.996 40.0922 197.301 39.9957 198.499 40.3908L198.594 40.4222C199.187 40.618 199.736 40.9288 200.209 41.3368C200.682 41.7448 201.071 42.2421 201.351 42.8002C201.632 43.3583 201.801 43.9662 201.847 44.5894C201.892 45.2125 201.815 45.8385 201.619 46.4318C201.423 47.025 201.112 47.5737 200.703 48.0467C200.295 48.5196 199.797 48.9074 199.239 49.188C198.681 49.4686 198.073 49.6364 197.45 49.6819C196.826 49.7274 196.2 49.6496 195.607 49.4531Z" fill="#6C63FF"/>
<path d="M176.224 35.397H175.365C174.596 35.3961 173.859 35.0902 173.315 34.5464C172.771 34.0026 172.465 33.2652 172.464 32.4961V31.7753C172.464 29.99 172.803 28.4952 173.47 27.3324C174.278 25.9797 175.222 24.7123 176.285 23.5496C176.991 22.8395 177.632 22.0672 178.199 21.2422C178.607 20.6012 178.817 19.8549 178.804 19.0956C178.804 17.3047 177.637 16.4341 175.237 16.4341C173.905 16.4492 172.582 16.6477 171.305 17.0242C170.813 17.1648 170.294 17.1892 169.791 17.0954C169.287 17.0016 168.812 16.7922 168.403 16.4837C167.994 16.1752 167.663 15.776 167.434 15.3175C167.206 14.859 167.087 14.3538 167.087 13.8415V12.3824C167.084 11.7543 167.263 11.1389 167.603 10.6107C167.943 10.0825 168.429 9.66426 169.002 9.40668C171.258 8.44402 173.69 7.96546 176.143 8.00194C178.712 8.00194 181.031 8.43347 183.036 9.28436C185.044 10.1372 186.631 11.3398 187.752 12.8589C188.87 14.3672 189.464 16.1995 189.444 18.0767C189.444 20.0925 188.894 21.8482 187.808 23.295C186.735 24.7272 185.196 26.295 183.234 27.9553C182.201 28.8148 181.221 29.7374 180.302 30.7178C179.708 31.3576 179.288 32.1391 179.083 32.9876C178.968 33.6625 178.618 34.275 178.095 34.7162C177.571 35.1573 176.908 35.3986 176.224 35.397Z" fill="#6C63FF"/>
<path d="M175.746 49.0389H175.633C174.208 49.038 172.841 48.4711 171.834 47.4629C170.826 46.4547 170.26 45.0877 170.26 43.6624C170.26 42.2371 170.826 40.8701 171.834 39.8619C172.841 38.8537 174.208 38.2868 175.633 38.2859H175.746C176.453 38.2854 177.152 38.4242 177.805 38.6942C178.458 38.9641 179.051 39.3601 179.55 39.8594C180.05 40.3587 180.446 40.9516 180.717 41.6041C180.987 42.2566 181.126 42.9561 181.126 43.6624C181.126 44.3687 180.987 45.0682 180.717 45.7207C180.446 46.3732 180.05 46.9661 179.55 47.4654C179.051 47.9647 178.458 48.3607 177.805 48.6306C177.152 48.9006 176.453 49.0394 175.746 49.0389Z" fill="#6C63FF"/>
<path d="M152.137 37.3051L151.417 37.5407C150.772 37.751 150.07 37.6969 149.465 37.3902C148.86 37.0835 148.401 36.5492 148.189 35.9047L147.992 35.3004C147.502 33.8036 147.375 32.4575 147.615 31.2996C147.922 29.9437 148.365 28.6223 148.938 27.3556C149.335 26.5665 149.66 25.7433 149.909 24.8958C150.075 24.2467 150.046 23.5633 149.827 22.9303C149.336 21.4288 148.119 21.0191 146.106 21.6778C144.994 22.0557 143.94 22.5853 142.972 23.2514C142.598 23.5045 142.17 23.6672 141.722 23.7267C141.274 23.7863 140.818 23.741 140.391 23.5946C139.963 23.4481 139.576 23.2045 139.258 22.8828C138.941 22.5611 138.703 22.1701 138.562 21.7407L138.162 20.5174C137.987 19.9916 137.968 19.4263 138.108 18.8902C138.249 18.3541 138.541 17.8702 138.951 17.497C140.578 16.071 142.486 15.0022 144.552 14.3599C146.706 13.6549 148.768 13.3803 150.683 13.5435C152.601 13.7074 154.261 14.2802 155.618 15.2461C156.969 16.2039 157.97 17.5771 158.468 19.1564C159.021 20.8464 159.042 22.4694 158.529 23.9802C158.022 25.4754 157.162 27.2122 155.973 29.1423C155.342 30.1465 154.774 31.1888 154.272 32.2631C153.95 32.9625 153.812 33.7329 153.873 34.5006C153.962 35.0978 153.837 35.7074 153.519 36.2209C153.201 36.7344 152.712 37.1185 152.137 37.3051Z" fill="#6C63FF"/>
<path d="M155.48 48.8732L155.386 48.9042C154.19 49.2946 152.889 49.1944 151.768 48.6256C150.646 48.0568 149.797 47.0661 149.406 45.8711C149.014 44.6761 149.114 43.3747 149.682 42.253C150.25 41.1313 151.24 40.281 152.435 39.8891L152.53 39.8581C153.122 39.6639 153.746 39.5882 154.368 39.6355C154.989 39.6827 155.595 39.8519 156.151 40.1334C156.707 40.4149 157.202 40.8032 157.607 41.2761C158.013 41.7489 158.322 42.2971 158.516 42.8893C158.709 43.4815 158.785 44.1061 158.737 44.7274C158.689 45.3486 158.52 45.9544 158.238 46.5101C157.956 47.0658 157.567 47.5606 157.094 47.966C156.621 48.3715 156.073 48.6797 155.48 48.8732Z" fill="#6C63FF"/>
<path d="M85.5254 168.228V84.6848C85.5254 83.4917 85.9993 82.3475 86.843 81.5039C87.6866 80.6602 88.8308 80.1863 90.0239 80.1863C91.2169 80.1863 92.3611 80.6602 93.2048 81.5039C94.0484 82.3475 94.5224 83.4917 94.5224 84.6848V168.228C94.5224 169.421 94.0484 170.565 93.2048 171.409C92.3611 172.253 91.2169 172.727 90.0239 172.727C88.8308 172.727 87.6866 172.253 86.843 171.409C85.9993 170.565 85.5254 169.421 85.5254 168.228Z" fill="#F0F0F0"/>
<path d="M74.761 168.228V84.6848C74.761 83.4917 75.2349 82.3475 76.0786 81.5039C76.9222 80.6602 78.0664 80.1863 79.2595 80.1863C80.4525 80.1863 81.5967 80.6602 82.4404 81.5039C83.284 82.3475 83.758 83.4917 83.758 84.6848V168.228C83.758 169.421 83.284 170.565 82.4404 171.409C81.5967 172.253 80.4525 172.727 79.2595 172.727C78.0664 172.727 76.9222 172.253 76.0786 171.409C75.2349 170.565 74.761 169.421 74.761 168.228Z" fill="#F0F0F0"/>
<path d="M63.9968 168.228V84.6848C63.9968 83.4917 64.4708 82.3475 65.3144 81.5039C66.158 80.6602 67.3022 80.1863 68.4953 80.1863C69.6884 80.1863 70.8326 80.6602 71.6762 81.5039C72.5198 82.3475 72.9938 83.4917 72.9938 84.6848V168.228C72.9938 169.421 72.5198 170.565 71.6762 171.409C70.8326 172.253 69.6884 172.727 68.4953 172.727C67.3022 172.727 66.158 172.253 65.3144 171.409C64.4708 170.565 63.9968 169.421 63.9968 168.228Z" fill="#F0F0F0"/>
<path d="M470.406 301.663C468.594 301.665 466.796 301.353 465.091 300.741L464.828 300.646L464.949 300.064C461.895 293.895 462.963 285.442 467.682 278.493C471.973 272.175 478.497 267.581 484.253 263.529C484.984 263.015 485.851 262.731 486.744 262.714C487.637 262.697 488.515 262.948 489.264 263.433C490.014 263.919 490.601 264.618 490.95 265.44C491.3 266.262 491.395 267.17 491.224 268.047L489.166 278.607C487.68 286.226 485.913 293.437 480.672 297.934C477.793 300.342 474.159 301.663 470.406 301.663Z" fill="#E6E6E6"/>
<path d="M483.886 319.913C481.892 319.901 479.933 319.391 478.186 318.43C476.44 317.469 474.961 316.086 473.884 314.408L473.735 314.176L474.091 313.862C475.011 308.838 479.343 304.361 485.159 302.436C490.445 300.686 496.28 300.972 501.425 301.224C502.105 301.257 502.76 301.491 503.306 301.897C503.853 302.303 504.267 302.861 504.495 303.502C504.724 304.144 504.757 304.838 504.591 305.498C504.425 306.158 504.066 306.754 503.561 307.21L497.772 312.435C493.565 316.231 489.37 319.659 484.309 319.905C484.168 319.91 484.027 319.913 483.886 319.913Z" fill="#E6E6E6"/>
<path d="M465.921 325.499C465.066 319.133 464.187 312.686 464.787 306.252C465.319 300.538 467.024 294.957 470.496 290.381C472.33 287.965 474.573 285.888 477.122 284.243C477.785 283.816 478.394 284.889 477.735 285.315C473.315 288.184 469.916 292.376 468.023 297.294C465.909 302.791 465.569 308.784 465.934 314.624C466.154 318.156 466.621 321.665 467.092 325.169C467.129 325.326 467.107 325.492 467.028 325.633C466.95 325.774 466.821 325.881 466.668 325.932C466.59 325.953 466.509 325.958 466.43 325.947C466.35 325.937 466.274 325.911 466.204 325.87C466.135 325.83 466.074 325.776 466.026 325.713C465.977 325.649 465.941 325.576 465.921 325.499Z" fill="#F2F2F2"/>
<path d="M463.505 329.158C467.62 321.715 472.392 313.443 480.92 310.8C483.288 310.067 485.776 309.805 488.245 310.027C489.022 310.095 488.828 311.321 488.052 311.252C483.905 310.904 479.768 312.023 476.362 314.414C473.066 316.707 470.5 319.896 468.328 323.277C466.998 325.348 465.806 327.507 464.614 329.663C464.233 330.352 463.12 329.855 463.505 329.158Z" fill="#F2F2F2"/>
<path d="M461.653 329.049L465.808 329.144L440.758 195.322L436.603 196.105L443.145 230.82H422.07L428.611 196.105L424.457 195.322L399.616 329.144L403.561 329.049L416.621 259.739H448.593L461.653 329.049ZM417.59 254.598L421.101 235.961H444.113L447.625 254.598H417.59Z" fill="#CACACA"/>
<path d="M280.245 170.36V126.412C280.245 125.107 282.263 124.046 284.744 124.046C287.224 124.046 289.242 125.107 289.242 126.412V170.36C289.242 171.664 287.224 172.726 284.744 172.726C282.263 172.726 280.245 171.664 280.245 170.36Z" fill="#F0F0F0"/>
<path d="M269.481 170.36V126.412C269.481 125.107 271.499 124.046 273.98 124.046C276.46 124.046 278.478 125.107 278.478 126.412V170.36C278.478 171.664 276.46 172.726 273.98 172.726C271.499 172.726 269.481 171.664 269.481 170.36Z" fill="#F0F0F0"/>
<path d="M258.717 170.36V126.412C258.717 125.107 260.735 124.046 263.216 124.046C265.696 124.046 267.714 125.107 267.714 126.412V170.36C267.714 171.664 265.696 172.726 263.216 172.726C260.735 172.726 258.717 171.664 258.717 170.36Z" fill="#F0F0F0"/>
<path d="M349.274 138.041C349.254 137.907 349.206 137.779 349.134 137.666C349.061 137.552 348.965 137.454 348.852 137.38L314.938 114.991C315.449 114.778 315.877 114.403 316.156 113.925C316.494 113.334 316.586 112.633 316.41 111.975C316.233 111.317 315.804 110.756 315.215 110.413L312.432 108.807C311.841 108.468 311.14 108.377 310.482 108.553C309.824 108.729 309.263 109.159 308.921 109.748C308.736 110.071 308.625 110.432 308.595 110.804L284.115 94.6421C283.292 92.651 282.046 90.8631 280.462 89.4029C278.878 87.9427 276.995 86.8454 274.944 86.1875V79.0616H265.947V86.1875C262.962 87.142 260.357 89.0203 258.509 91.5512C256.661 94.0822 255.665 97.1349 255.665 100.269V102.197H264.662C264.662 103.731 265.271 105.202 266.356 106.286C267.44 107.371 268.911 107.98 270.445 107.98C271.979 107.98 273.45 107.371 274.535 106.286C275.62 105.202 276.229 103.731 276.229 102.197H285.226V100.269C285.225 99.3446 285.138 98.4225 284.966 97.5145L346.897 138.399L321.171 169.677C320.971 169.676 320.772 169.674 320.571 169.674C318.519 169.674 316.53 169.723 314.635 169.806C314.749 169.488 314.799 169.151 314.782 168.814C314.744 168.134 314.439 167.496 313.933 167.04C313.427 166.584 312.761 166.347 312.081 166.381L308.872 166.548C308.192 166.585 307.554 166.89 307.098 167.396C306.643 167.902 306.405 168.568 306.439 169.249C306.463 169.651 306.582 170.041 306.787 170.387C301.113 170.99 297.436 171.822 297.436 172.245C297.436 172.938 307.309 172.278 319.667 172.246C319.723 172.407 319.822 172.549 319.952 172.66C320.082 172.77 320.239 172.843 320.407 172.873C320.574 172.902 320.747 172.886 320.907 172.827C321.066 172.768 321.208 172.667 321.316 172.535L321.554 172.246C333.875 172.281 343.706 172.936 343.706 172.245C343.706 171.593 334.965 169.971 323.639 169.711L349.066 138.797C349.152 138.692 349.214 138.571 349.25 138.441C349.286 138.311 349.294 138.174 349.274 138.041Z" fill="#CCCCCC"/>
<path d="M350.202 329.37H271.018C269.418 329.368 267.884 328.732 266.753 327.6C265.621 326.469 264.985 324.934 264.983 323.334V193.382C264.981 191.952 264.412 190.582 263.401 189.571C262.39 188.56 261.02 187.991 259.59 187.989H74.3706C72.9408 187.991 71.57 188.56 70.559 189.571C69.5479 190.582 68.9792 191.952 68.9775 193.382V323.334C68.9757 324.934 68.3392 326.469 67.2077 327.6C66.0762 328.732 64.542 329.368 62.9418 329.37H60.2325C58.6323 329.368 57.0981 328.732 55.9666 327.6C54.8351 326.469 54.1986 324.934 54.1968 323.334V186.383C54.2011 182.549 55.7258 178.874 58.4366 176.163C61.1473 173.452 64.8226 171.928 68.6562 171.923H341.778C345.612 171.928 349.287 173.452 351.998 176.163C354.709 178.874 356.234 182.549 356.238 186.383V323.334C356.236 324.934 355.599 326.469 354.468 327.6C353.336 328.732 351.802 329.368 350.202 329.37Z" fill="#E4E4E4"/>
<path d="M355.916 205.662H265.304V209.518H355.916V205.662Z" fill="white"/>
<path d="M355.916 257.716H265.304V261.572H355.916V257.716Z" fill="white"/>
<path d="M190.297 171.289L187.693 170.192L185.906 157.137H162.116L160.179 170.139L157.849 171.304C157.738 171.359 157.649 171.451 157.596 171.564C157.543 171.677 157.53 171.804 157.559 171.926C157.587 172.047 157.656 172.155 157.754 172.232C157.851 172.31 157.972 172.352 158.097 172.352H190.083C190.21 172.352 190.334 172.308 190.433 172.227C190.532 172.146 190.6 172.033 190.625 171.908C190.65 171.783 190.631 171.653 190.572 171.54C190.512 171.427 190.415 171.338 190.297 171.289Z" fill="#E6E6E6"/>
<path d="M232.575 158.874H115.709C115.095 158.872 114.508 158.628 114.075 158.194C113.642 157.76 113.398 157.172 113.398 156.558V140.079H234.885V156.558C234.885 157.172 234.642 157.76 234.209 158.194C233.776 158.628 233.188 158.872 232.575 158.874Z" fill="#CCCCCC"/>
<path d="M235.007 147.867H113.292V77.3542C113.293 76.6142 113.587 75.9048 114.11 75.3815C114.633 74.8583 115.343 74.5639 116.083 74.5631H232.216C232.956 74.5639 233.666 74.8583 234.189 75.3815C234.712 75.9048 235.007 76.6142 235.007 77.3542V147.867Z" fill="#3F3D56"/>
<path d="M227.738 142.75H120.561C119.991 142.749 119.444 142.522 119.04 142.119C118.637 141.715 118.41 141.168 118.409 140.598V81.8327C118.41 81.2622 118.637 80.7152 119.04 80.3118C119.444 79.9084 119.991 79.6814 120.561 79.6808H227.738C228.308 79.6814 228.855 79.9084 229.259 80.3118C229.662 80.7152 229.889 81.2622 229.89 81.8327V140.598C229.889 141.168 229.662 141.715 229.259 142.119C228.855 142.522 228.308 142.749 227.738 142.75Z" fill="white"/>
<path d="M347.884 86.4269C348.91 86.2792 349.955 86.3581 350.946 86.658C351.938 86.9579 352.851 87.4715 353.623 88.1627C354.394 88.8539 355.005 89.7058 355.411 90.6585C355.818 91.6112 356.011 92.6415 355.976 93.6767L379.474 102.722L368.828 110.328L348.146 100.573C346.411 100.399 344.799 99.5952 343.617 98.3131C342.435 97.0309 341.764 95.3597 341.732 93.616C341.7 91.8724 342.308 90.1775 343.442 88.8525C344.576 87.5275 346.157 86.6644 347.884 86.4269Z" fill="#9E616A"/>
<path d="M437.107 81.9869L441.082 89.2146C440.122 93.7987 437.639 97.9232 434.037 100.918C427.951 106.051 396.127 125.169 396.127 125.169L355.951 104.999L362.979 95.6596L394.521 106.23C406.222 95.1814 420.342 87.0185 435.756 82.3925L437.107 81.9869Z" fill="#E4E4E4"/>
<path d="M429.715 201.585C447.032 201.585 461.07 197.011 461.07 191.369C461.07 185.726 447.032 181.152 429.715 181.152C412.398 181.152 398.36 185.726 398.36 191.369C398.36 197.011 412.398 201.585 429.715 201.585Z" fill="#CACACA"/>
<path d="M359.373 320.391L351.047 318.09L355.962 284.879L368.251 288.277L359.373 320.391Z" fill="#9E616A"/>
<path d="M359.266 329.049L332.419 321.627L332.513 321.288C333.279 318.517 335.115 316.163 337.616 314.745C340.117 313.327 343.079 312.961 345.85 313.727L345.851 313.727L362.248 318.26L359.266 329.049Z" fill="#2F2E41"/>
<path d="M335.233 320.499L327.331 317.009L337.029 284.87L348.692 290.019L335.233 320.499Z" fill="#9E616A"/>
<path d="M333.866 329.049L308.386 317.798L308.529 317.475C309.69 314.845 311.849 312.784 314.53 311.745C317.211 310.707 320.195 310.776 322.825 311.937L322.826 311.937L338.388 318.809L333.866 329.049Z" fill="#2F2E41"/>
<path d="M454.118 166.39C454.118 166.39 458.306 179.367 432.607 195.778L399.511 228.757L365.121 311.019L344.705 301.866L348.709 291.178L351.396 284.005L352.771 280.336L354.245 276.403L376.102 218.059L394.462 185.912L394.995 168.469L399.511 156.173L432.275 144.547L454.118 166.39Z" fill="#2F2E41"/>
<path d="M437.409 167.032C437.409 167.032 441.597 180.009 415.899 196.42L382.802 229.4L348.413 311.662L327.996 302.509L332.001 291.82L334.688 284.648L336.062 280.979L337.536 277.045L359.393 218.702L365.541 207.939C373.651 193.739 383.505 180.609 394.875 168.856L400.901 162.627L401.544 152.987L415.566 145.19L437.409 167.032Z" fill="#2F2E41"/>
<path d="M417.61 103.504L427.892 81.6537L445.836 79.2061C445.836 79.2061 459.847 97.0567 456.168 122.14C454.789 131.546 453.665 140.911 453.598 149.131C453.58 151.318 455.493 152.295 455.526 154.272C455.557 156.215 451.899 159.379 452.955 160.699C454.465 162.518 455.364 164.766 455.526 167.125C454.252 170.156 415.71 153.736 399.51 156.173L417.61 103.504Z" fill="#E4E4E4"/>
<path d="M443.096 68.2059C447.676 60.5011 445.143 50.5422 437.438 45.9621C429.733 41.382 419.774 43.9151 415.194 51.6199C410.614 59.3248 413.147 69.2837 420.852 73.8638C428.557 78.4439 438.516 75.9108 443.096 68.2059Z" fill="#9E616A"/>
<path d="M439.521 54.0857C439.49 54.5127 439.447 55.0783 439.398 55.7182C439.347 57.4698 439.841 59.1941 440.811 60.6536C441.719 62.1891 440.635 71.4633 440.635 71.4633C467.22 52.9319 446.214 34.3142 437.997 35.9692C438.169 33.6126 431.467 34.5462 431.467 34.5462C428.914 30.5696 423.317 35.8482 423.317 35.8482L424.397 34.0315C420.052 35.1366 415.758 48.565 415.758 48.565C417.231 54.3582 439.693 51.729 439.521 54.0857Z" fill="#2F2E41"/>
<path d="M336.39 112.099C345.525 99.9472 352.747 86.469 357.805 72.1324C358.098 71.2748 358.077 70.3411 357.746 69.4975C357.415 68.6538 356.796 67.955 355.998 67.5254L324.736 50.7748C324.23 50.5018 323.669 50.3477 323.095 50.3244C322.521 50.3011 321.949 50.4091 321.422 50.6403C320.886 50.8732 320.411 51.2253 320.031 51.6699C319.652 52.1144 319.379 52.6396 319.233 53.2056C315.594 67.0208 308.755 79.7855 299.268 90.4671C298.877 90.9018 298.591 91.42 298.431 91.9821C298.271 92.5441 298.241 93.1354 298.344 93.7106C298.443 94.2768 298.67 94.8129 299.008 95.2781C299.345 95.7433 299.784 96.1254 300.292 96.3952L331.553 113.146C332.353 113.572 333.278 113.701 334.164 113.509C335.049 113.318 335.838 112.818 336.39 112.099Z" fill="#CCCCCC"/>
<path d="M334.257 110.496C334.089 110.706 333.852 110.85 333.589 110.905C333.326 110.959 333.052 110.92 332.814 110.794L301.552 94.0428C301.4 93.9636 301.269 93.8504 301.168 93.712C301.068 93.5736 301 93.4137 300.972 93.2449C300.939 93.0667 300.948 92.8834 300.998 92.7093C301.049 92.5352 301.138 92.3751 301.261 92.2416C311.028 81.2454 318.069 68.1046 321.814 53.8822C321.858 53.7065 321.941 53.5432 322.058 53.4051C322.175 53.267 322.322 53.1578 322.489 53.0861C322.645 53.0161 322.816 52.9834 322.987 52.9904C323.159 52.9975 323.326 53.0443 323.476 53.127L354.737 69.8774C354.974 70.0054 355.159 70.212 355.259 70.4617C355.36 70.7113 355.37 70.9883 355.288 71.2447C350.321 85.3247 343.229 98.5616 334.257 110.496Z" fill="white"/>
<path d="M323.32 69.0416L344.882 81.6798C347.027 82.9373 348.97 79.6059 346.828 78.3504L325.266 65.7121C323.121 64.4547 321.178 67.7861 323.32 69.0416Z" fill="#6C63FF"/>
<path d="M319.464 76.1107L341.026 88.7489C343.171 90.0064 345.114 86.675 342.972 85.4195L321.41 72.7812C319.265 71.5238 317.322 74.8552 319.464 76.1107Z" fill="#6C63FF"/>
<path d="M314.965 83.8223L336.527 96.4606C338.673 97.718 340.615 94.3866 338.473 93.1312L316.911 80.4929C314.766 79.2355 312.823 82.5669 314.965 83.8223Z" fill="#6C63FF"/>
<path d="M310.467 90.2487L332.029 102.887C334.174 104.144 336.117 100.813 333.975 99.5576L312.413 86.9193C310.268 85.6619 308.325 88.9933 310.467 90.2487Z" fill="#6C63FF"/>
<path d="M408.762 164.588L416.857 182.791C417.052 183.227 417.135 183.705 417.1 184.181C417.064 184.657 416.91 185.117 416.652 185.519C416.348 185.999 415.909 186.378 415.389 186.609C414.87 186.84 414.294 186.912 413.734 186.816C413.543 186.787 413.356 186.737 413.176 186.667C412.461 186.391 411.884 185.842 411.572 185.142L403.477 166.939C403.323 166.592 403.238 166.218 403.228 165.838C403.219 165.458 403.284 165.08 403.42 164.726C403.695 164.01 404.244 163.433 404.944 163.121C405.645 162.809 406.441 162.789 407.157 163.064C407.873 163.339 408.45 163.888 408.762 164.588Z" fill="#6C63FF"/>
<path d="M416.204 181.323L417.826 184.997L418.655 190.206C418.71 190.549 418.65 190.9 418.484 191.205C418.319 191.511 418.057 191.753 417.74 191.894C417.422 192.035 417.067 192.067 416.73 191.986C416.392 191.904 416.091 191.713 415.873 191.443L412.517 187.267L410.919 183.674L416.204 181.323Z" fill="#3F3D56"/>
<path d="M401.678 159.524L402.838 166.812C402.876 167.05 402.968 167.277 403.108 167.474C403.247 167.671 403.43 167.834 403.643 167.949C403.855 168.064 404.091 168.129 404.332 168.139C404.574 168.148 404.814 168.102 405.035 168.004L406.185 167.493L408.405 172.484C408.474 172.639 408.602 172.761 408.761 172.822C408.92 172.883 409.097 172.878 409.252 172.809C409.408 172.74 409.53 172.612 409.591 172.453C409.652 172.294 409.648 172.117 409.579 171.961L407.359 166.97L408.509 166.459C408.891 166.289 409.189 165.975 409.339 165.586C409.49 165.197 409.48 164.764 409.312 164.382C409.255 164.255 409.183 164.137 409.095 164.029L404.461 158.286C404.243 158.016 403.942 157.826 403.604 157.744C403.266 157.663 402.911 157.695 402.594 157.836C402.277 157.977 402.015 158.219 401.849 158.525C401.684 158.83 401.623 159.181 401.678 159.524Z" fill="#3F3D56"/>
<path d="M405.036 172.678C405.219 171.658 405.622 170.691 406.219 169.844C406.816 168.997 407.591 168.292 408.49 167.777C409.388 167.262 410.389 166.951 411.421 166.865C412.454 166.779 413.492 166.92 414.464 167.278L430.444 147.82L434.314 160.319L418.546 176.881C417.835 178.473 416.565 179.75 414.976 180.468C413.387 181.187 411.589 181.298 409.924 180.78C408.259 180.262 406.841 179.151 405.941 177.657C405.04 176.164 404.718 174.392 405.036 172.678Z" fill="#9E616A"/>
<path d="M425.154 171.413L418.116 161.247L438.101 134.6L427.806 112.538L428.555 86.2957L437.063 84.7241L437.169 84.7771C441.305 87.158 444.502 90.8821 446.229 95.331C448.352 100.637 453.09 120.555 455.725 131.955C456.243 134.164 456.186 136.469 455.561 138.651C454.935 140.832 453.762 142.816 452.152 144.415L425.154 171.413Z" fill="#E4E4E4"/>
<path d="M226.987 122.291C226.929 122.785 226.909 123.282 226.929 123.779L190.894 149.995L180.995 145.614L172.43 159.69L189.202 169.149C190.557 169.913 192.123 170.217 193.665 170.015C195.208 169.814 196.643 169.117 197.756 168.03L234.024 132.606C235.88 133.077 237.836 132.973 239.631 132.306C241.427 131.638 242.977 130.44 244.075 128.871C245.173 127.302 245.767 125.435 245.778 123.52C245.79 121.604 245.218 119.731 244.138 118.149C243.059 116.566 241.523 115.35 239.736 114.662C237.949 113.974 235.994 113.846 234.132 114.295C232.27 114.745 230.589 115.751 229.313 117.179C228.037 118.607 227.226 120.39 226.987 122.291Z" fill="#FFB6B6"/>
<path d="M189.729 150.953L179.22 168.464C178.921 168.962 178.519 169.39 178.039 169.719C177.56 170.047 177.016 170.268 176.443 170.367C175.87 170.467 175.283 170.441 174.721 170.293C174.16 170.144 173.636 169.877 173.187 169.508L157.453 156.586C154.914 155.042 153.09 152.553 152.382 149.666C151.674 146.779 152.139 143.729 153.676 141.185C155.213 138.641 157.697 136.81 160.581 136.093C163.466 135.377 166.518 135.833 169.067 137.363L187.812 145.138C188.349 145.361 188.831 145.697 189.226 146.123C189.621 146.549 189.92 147.055 190.102 147.607C190.284 148.159 190.345 148.743 190.28 149.321C190.216 149.898 190.028 150.455 189.729 150.953Z" fill="#6C63FF"/>
<path d="M144.704 303.154H165.302V269.02H144.704V303.154Z" fill="#CACACA"/>
<path d="M164.27 287.081L161.626 290.978L211.062 324.523L213.706 320.627L164.27 287.081Z" fill="#CACACA"/>
<path d="M145.736 287.081L96.3003 320.627L98.944 324.523L148.38 290.977L145.736 287.081Z" fill="#CACACA"/>
<path d="M212.384 329.049C215.959 329.049 218.857 326.15 218.857 322.575C218.857 319 215.959 316.101 212.384 316.101C208.808 316.101 205.91 319 205.91 322.575C205.91 326.15 208.808 329.049 212.384 329.049Z" fill="#CACACA"/>
<path d="M154.709 329.049C158.284 329.049 161.182 326.15 161.182 322.575C161.182 319 158.284 316.101 154.709 316.101C151.133 316.101 148.235 319 148.235 322.575C148.235 326.15 151.133 329.049 154.709 329.049Z" fill="#CACACA"/>
<path d="M97.6222 329.049C101.197 329.049 104.096 326.15 104.096 322.575C104.096 319 101.197 316.101 97.6222 316.101C94.0468 316.101 91.1484 319 91.1484 322.575C91.1484 326.15 94.0468 329.049 97.6222 329.049Z" fill="#CACACA"/>
<path d="M157.063 289.029H152.354V322.575H157.063V289.029Z" fill="#CACACA"/>
<path d="M150.589 284.321H159.417V239.005H150.589V284.321Z" fill="#CACACA"/>
<path d="M129.697 246.067V235.474C129.699 233.524 130.474 231.654 131.854 230.275C133.233 228.896 135.103 228.12 137.053 228.118H176.484C178.434 228.12 180.304 228.896 181.683 230.275C183.062 231.654 183.838 233.524 183.84 235.474V246.067C183.838 248.018 183.062 249.888 181.683 251.267C180.304 252.646 178.434 253.422 176.484 253.424H137.053C135.103 253.422 133.233 252.646 131.854 251.267C130.474 249.888 129.699 248.018 129.697 246.067Z" fill="#3F3D56"/>
<path d="M200.914 318.478L211.818 318.478L217.007 290.194L200.912 290.195L200.914 318.478Z" fill="#FFB8B8"/>
<path d="M198.133 329.049L233.295 329.048V328.603C233.295 326.806 232.941 325.026 232.253 323.365C231.565 321.705 230.557 320.196 229.286 318.925C228.015 317.655 226.507 316.646 224.846 315.959C223.186 315.271 221.406 314.917 219.609 314.917H219.608L198.132 314.918L198.133 329.049Z" fill="#2F2E41"/>
<path d="M217.224 300.939L238.964 252.188C240.779 248.079 240.98 243.437 239.526 239.187C238.072 234.937 235.071 231.39 231.12 229.253L183.965 203.967L162.447 202.137L142.598 200.333L142.455 200.575C142.272 200.884 138.004 208.256 140.889 216.338C143.077 222.469 148.769 227.258 157.806 230.572C178.9 238.306 203.268 244.917 212.765 247.399C213.185 247.507 213.577 247.702 213.916 247.972C214.255 248.241 214.533 248.58 214.732 248.965C214.931 249.345 215.049 249.763 215.079 250.191C215.11 250.62 215.051 251.05 214.906 251.454L194.709 296.832C194.498 297.407 194.422 298.023 194.487 298.633C194.552 299.242 194.756 299.829 195.083 300.347C195.411 300.865 195.853 301.301 196.375 301.622C196.898 301.942 197.487 302.138 198.097 302.195L213.189 303.293C213.317 303.306 213.445 303.312 213.572 303.312C214.345 303.311 215.101 303.087 215.749 302.666C216.397 302.245 216.909 301.645 217.224 300.939Z" fill="#2F2E41"/>
<path d="M193.798 318.478L204.702 318.478L209.891 290.194L193.796 290.195L193.798 318.478Z" fill="#FFB8B8"/>
<path d="M191.017 329.049L226.179 329.048V328.603C226.179 326.806 225.825 325.026 225.137 323.365C224.449 321.705 223.441 320.196 222.17 318.925C220.899 317.655 219.391 316.646 217.73 315.959C216.07 315.271 214.29 314.917 212.493 314.917H212.492L191.016 314.918L191.017 329.049Z" fill="#2F2E41"/>
<path d="M209.219 303.608L230.959 254.857C232.774 250.748 232.974 246.106 231.521 241.856C230.067 237.605 227.066 234.059 223.115 231.922L175.96 206.636L154.442 204.805L138.895 203.457L138.897 203.244C138.714 203.553 134.447 210.924 137.331 219.007C139.52 225.138 140.764 229.927 149.801 233.241C170.895 240.975 195.262 247.585 204.76 250.068C205.179 250.175 205.571 250.37 205.91 250.64C206.249 250.91 206.528 251.248 206.726 251.633C206.926 252.014 207.044 252.431 207.074 252.86C207.104 253.288 207.045 253.718 206.901 254.123L186.704 299.5C186.493 300.076 186.417 300.692 186.482 301.301C186.547 301.911 186.751 302.497 187.078 303.015C187.405 303.534 187.847 303.97 188.37 304.29C188.892 304.61 189.482 304.806 190.092 304.863L205.184 305.962C205.312 305.974 205.439 305.98 205.566 305.98C206.339 305.98 207.095 305.756 207.744 305.335C208.392 304.914 208.904 304.314 209.219 303.608Z" fill="#2F2E41"/>
<path d="M195.581 93.6247C198.373 81.8863 191.12 70.1076 179.382 67.316C167.643 64.5245 155.865 71.7773 153.073 83.5156C150.282 95.2539 157.534 107.033 169.273 109.824C181.011 112.616 192.79 105.363 195.581 93.6247Z" fill="#FFB8B8"/>
<path d="M249.633 172.507C258.769 160.355 265.991 146.877 271.048 132.541C271.341 131.683 271.32 130.749 270.99 129.906C270.659 129.062 270.039 128.363 269.241 127.934L237.98 111.183C237.474 110.91 236.912 110.756 236.338 110.733C235.764 110.709 235.192 110.817 234.666 111.048C234.13 111.281 233.654 111.634 233.275 112.078C232.895 112.523 232.622 113.048 232.476 113.614C228.838 127.429 221.998 140.194 212.511 150.875C212.121 151.31 211.834 151.828 211.674 152.39C211.514 152.952 211.485 153.544 211.588 154.119C211.687 154.685 211.914 155.221 212.251 155.686C212.588 156.152 213.028 156.534 213.535 156.803L244.797 173.554C245.596 173.98 246.521 174.109 247.407 173.918C248.293 173.726 249.082 173.226 249.633 172.507Z" fill="#CCCCCC"/>
<path d="M247.5 170.904C247.332 171.114 247.096 171.258 246.832 171.313C246.569 171.367 246.295 171.328 246.057 171.202L214.796 154.451C214.644 154.372 214.512 154.259 214.412 154.12C214.311 153.982 214.244 153.822 214.215 153.653C214.183 153.475 214.192 153.292 214.242 153.117C214.292 152.943 214.382 152.783 214.504 152.65C224.271 141.654 231.312 128.513 235.058 114.29C235.101 114.115 235.185 113.951 235.302 113.813C235.418 113.675 235.566 113.566 235.732 113.494C235.889 113.424 236.059 113.392 236.231 113.399C236.402 113.406 236.569 113.452 236.72 113.535L267.981 130.286C268.217 130.414 268.402 130.62 268.503 130.87C268.603 131.12 268.614 131.396 268.532 131.653C263.565 145.733 256.472 158.97 247.5 170.904Z" fill="white"/>
<path d="M236.563 129.45L258.125 142.088C260.27 143.345 262.213 140.014 260.071 138.759L238.509 126.12C236.364 124.863 234.421 128.194 236.563 129.45Z" fill="#CCCCCC"/>
<path d="M232.707 136.519L254.269 149.157C256.415 150.415 258.357 147.083 256.216 145.828L234.654 133.189C232.508 131.932 230.566 135.263 232.707 136.519Z" fill="#CCCCCC"/>
<path d="M229.678 143.56L249.287 155.202C251.238 156.36 253.325 153.965 251.377 152.809L231.768 141.168C229.817 140.009 227.73 142.404 229.678 143.56Z" fill="#CCCCCC"/>
<path d="M223.71 150.657L245.272 163.295C247.418 164.553 249.36 161.221 247.218 159.966L225.657 147.327C223.511 146.07 221.568 149.401 223.71 150.657Z" fill="#CCCCCC"/>
<path d="M186.924 205.737L143.691 205.478L143.679 205.171C142.855 183.479 145.506 163.83 151.784 145.1C151.873 144.399 151.969 143.65 152.063 142.914C153.135 134.535 153.987 127.882 161.955 125.404C161.291 124.522 160.9 123.464 160.829 122.362C160.779 121.629 160.875 120.894 161.111 120.199C161.348 119.504 161.721 118.863 162.208 118.313C162.673 117.782 163.24 117.35 163.875 117.04C164.509 116.73 165.199 116.55 165.904 116.51L181.293 115.986C182.101 115.98 182.888 116.247 183.527 116.743C184.698 117.613 185.522 118.872 185.85 120.294C186.177 121.717 185.988 123.209 185.316 124.504C185.135 124.865 185.065 125.03 185.039 125.101C185.586 127.967 187.209 131.372 188.927 134.975C191.386 140.134 194.174 145.98 194.89 152.235C195.277 155.612 195.117 159.03 194.414 162.356C194.093 164.148 194.019 165.976 194.194 167.788C194.335 170.476 194.468 173.013 192.949 175.467C192.561 176.132 192.118 176.841 191.599 177.627L189.462 182.735L186.924 205.737Z" fill="#6C63FF"/>
<path d="M122.046 236.093V147.754C122.049 144.876 123.194 142.116 125.229 140.081C127.265 138.045 130.025 136.9 132.903 136.897H135.906C138.785 136.9 141.544 138.045 143.58 140.081C145.615 142.116 146.76 144.876 146.764 147.754V236.093C146.76 238.971 145.615 241.731 143.58 243.767C141.544 245.802 138.785 246.947 135.906 246.95H132.903C130.025 246.947 127.265 245.802 125.229 243.767C123.194 241.731 122.049 238.971 122.046 236.093Z" fill="#3F3D56"/>
<path d="M237.981 156.571C237.671 156.96 237.391 157.372 237.146 157.805L192.702 161.05L186.607 152.103L171.902 159.537L181.154 176.424C181.901 177.789 183.071 178.874 184.488 179.516C185.904 180.159 187.491 180.325 189.01 179.989L238.512 169.046C239.84 170.427 241.557 171.37 243.434 171.751C245.311 172.132 247.259 171.933 249.02 171.18C250.781 170.426 252.271 169.155 253.292 167.534C254.313 165.913 254.816 164.02 254.734 162.106C254.653 160.193 253.99 158.349 252.836 156.821C251.681 155.293 250.088 154.153 248.27 153.552C246.451 152.951 244.492 152.918 242.654 153.457C240.817 153.997 239.186 155.083 237.981 156.571Z" fill="#FFB6B6"/>
<path d="M191.206 161.248L173.038 170.574C172.521 170.839 171.953 170.99 171.373 171.016C170.792 171.042 170.213 170.943 169.674 170.725C169.136 170.507 168.651 170.175 168.252 169.753C167.853 169.33 167.55 168.827 167.363 168.276L160.82 148.996C159.479 146.349 159.24 143.279 160.156 140.457C161.073 137.634 163.069 135.29 165.71 133.936C157.656 138.069 174.429 126.327 180.831 138.799L192.648 155.298C192.986 155.77 193.219 156.31 193.329 156.881C193.44 157.451 193.427 158.038 193.29 158.603C193.153 159.168 192.896 159.697 192.537 160.153C192.177 160.61 191.723 160.983 191.206 161.248Z" fill="#6C63FF"/>
<path d="M164.458 109.819C163.143 109.819 161.692 109.185 160.057 107.901C155.243 104.121 151.802 98.867 150.262 92.9437C148.723 87.0205 149.168 80.7556 151.532 75.1101C152.721 72.2691 154.946 68.4076 158.789 66.1446C161.551 64.5185 164.796 63.9311 167.621 63.5081C170.067 63.1416 172.544 62.8498 174.982 62.642C177.895 62.3929 181.26 62.2247 184.33 63.3907C186.578 64.2455 188.493 65.7548 190.344 67.2146C190.989 67.7229 191.656 68.2494 192.324 68.7364C193.943 69.9995 195.811 70.9065 197.804 71.398C198.225 71.4852 198.622 71.6617 198.969 71.9156C199.315 72.1695 199.604 72.4949 199.814 72.8697C200.028 73.2506 200.158 73.6732 200.195 74.1087C200.232 74.5443 200.175 74.9827 200.028 75.3944C199.739 76.204 199.479 76.9338 200.006 77.7246C200.201 78.0032 200.462 78.2296 200.765 78.3841C201.068 78.5386 201.405 78.6164 201.745 78.6107C201.925 78.6078 202.102 78.6498 202.261 78.7329C202.42 78.816 202.556 78.9375 202.657 79.0864C202.758 79.2341 202.822 79.4044 202.843 79.5825C202.864 79.7606 202.841 79.941 202.776 80.1081L202.691 80.3259C202.917 80.347 203.135 80.4227 203.325 80.5466C203.516 80.6705 203.673 80.8388 203.784 81.037C203.949 81.3192 204.013 81.6493 203.965 81.9727C203.917 82.2961 203.76 82.5934 203.52 82.8155C201.571 84.6713 199.14 85.9434 196.504 86.4875C194.7 86.8413 192.844 86.8371 191.042 86.475L190.752 86.4184L190.788 86.0971C183.498 83.4971 176.917 87.9096 173.166 92.9541L172.624 92.612C172.717 92.424 172.771 92.2192 172.783 92.0097C172.795 91.8003 172.764 91.5906 172.692 91.3933C172.617 91.1565 172.495 90.937 172.335 90.7472C172.175 90.5575 171.978 90.4012 171.757 90.2875C171.31 90.1032 170.819 90.0553 170.345 90.1499C169.871 90.2445 169.436 90.4773 169.094 90.819C168.746 91.1839 168.478 91.6172 168.306 92.0914C168.135 92.5657 168.064 93.0704 168.098 93.5735C168.197 94.6398 168.468 95.6829 168.902 96.6618C169.079 97.13 169.261 97.6145 169.409 98.1027C170.24 100.876 170.018 103.859 168.788 106.48C168.22 107.675 167.193 109.2 165.526 109.672C165.178 109.77 164.819 109.82 164.458 109.819Z" fill="#2F2E41"/>
<path d="M519.563 330.334H0.762969C0.560414 330.334 0.36636 330.253 0.22334 330.109C0.0803188 329.966 0 329.771 0 329.569C0 329.366 0.0803188 329.172 0.22334 329.029C0.36636 328.885 0.560414 328.804 0.762969 328.804H519.563C519.766 328.804 519.96 328.884 520.104 329.028C520.247 329.171 520.328 329.366 520.328 329.569C520.328 329.772 520.247 329.966 520.104 330.11C519.96 330.253 519.766 330.334 519.563 330.334Z" fill="#CACACA"/>
<path d="M352 44C364.15 44 374 34.1503 374 22C374 9.84973 364.15 0 352 0C339.85 0 330 9.84973 330 22C330 34.1503 339.85 44 352 44Z" fill="#6C63FF"/>
<path d="M348.27 31L342 22.7864L345.646 19.8974L348.615 23.7862L358.646 13L362 16.2371L348.27 31Z" fill="white"/>
</svg>
