<svg width="58" height="60" viewBox="0 0 58 60" fill="none" xmlns="http://www.w3.org/2000/svg">
<path d="M53.5074 30.2735L51.7162 30.118C51.2826 30.0824 50.8784 29.8844 50.5844 29.5637C50.2905 29.2431 50.1283 28.8233 50.1303 28.3882V4.35156C50.129 3.30917 49.7143 2.30987 48.9772 1.57279C48.2402 0.835715 47.2408 0.42103 46.1985 0.419678H12.142C11.0996 0.420869 10.1002 0.835502 9.36309 1.57261C8.62598 2.30973 8.21135 3.30912 8.21016 4.35156V28.3863C8.21236 28.8211 8.05032 29.2406 7.75646 29.561C7.4626 29.8813 7.0586 30.0789 6.6253 30.1142L4.82927 30.2716C3.86325 30.3551 2.94354 30.7227 2.18598 31.3279C1.42843 31.9331 0.866901 32.749 0.572127 33.6727C0.277353 34.5964 0.262514 35.5867 0.529479 36.5189C0.796444 37.451 1.33327 38.2834 2.07236 38.911L24.0769 57.6163C25.4954 58.8317 27.3018 59.4997 29.1698 59.4997C31.0377 59.4997 32.8442 58.8317 34.2627 57.6163L56.2662 38.9129C57.0064 38.2863 57.544 37.4542 57.8109 36.5218C58.0779 35.5895 58.0621 34.5989 57.7656 33.6755C57.4793 32.7466 56.92 31.9253 56.1605 31.3186C55.4011 30.7119 54.4766 30.3477 53.5074 30.2735Z" fill="#625CF9"/>
<path d="M29.1675 29.4344C27.4926 29.4342 25.8554 28.9373 24.463 28.0067C23.0705 27.076 21.9852 25.7534 21.3444 24.206C20.7035 22.6586 20.5359 20.9559 20.8627 19.3133C21.1895 17.6706 21.9961 16.1618 23.1804 14.9775C24.3647 13.7932 25.8735 12.9867 27.5162 12.6599C29.1588 12.3331 30.8615 12.5007 32.4089 13.1415C33.9563 13.7823 35.2789 14.8676 36.2096 16.2601C37.1402 17.6526 37.637 19.2897 37.6373 20.9646C37.6373 21.6044 37.3831 22.2181 36.9307 22.6705C36.4782 23.1229 35.8646 23.3771 35.2247 23.3771C34.5849 23.3771 33.9712 23.1229 33.5188 22.6705C33.0664 22.2181 32.8122 21.6044 32.8122 20.9646C32.8121 20.2439 32.5983 19.5394 32.1978 18.9402C31.7973 18.341 31.2282 17.874 30.5623 17.5983C29.8965 17.3225 29.1638 17.2504 28.457 17.3911C27.7501 17.5317 27.1008 17.8787 26.5912 18.3884C26.0816 18.898 25.7346 19.5472 25.5939 20.2541C25.4533 20.9609 25.5254 21.6936 25.8012 22.3594C26.0769 23.0253 26.5439 23.5944 27.1431 23.9949C27.7423 24.3954 28.4468 24.6092 29.1675 24.6093C29.8073 24.6093 30.4209 24.8635 30.8734 25.3159C31.3258 25.7684 31.58 26.382 31.58 27.0218C31.58 27.6617 31.3258 28.2753 30.8734 28.7278C30.4209 29.1802 29.8073 29.4344 29.1675 29.4344Z" fill="#E6F3FC"/>
<path d="M29.1615 41.5325C26.9182 41.5302 24.7675 40.6374 23.1812 39.05C21.5949 37.4626 20.7025 35.3102 20.7 33.065C20.7 32.4252 20.9539 31.8116 21.406 31.3591C21.858 30.9067 22.4712 30.6525 23.1105 30.6525C23.7498 30.6525 24.3629 30.9067 24.815 31.3591C25.267 31.8116 25.521 32.4252 25.521 33.065C25.5211 33.7858 25.7348 34.4903 26.1349 35.0895C26.5351 35.6887 27.1039 36.1557 27.7692 36.4314C28.4346 36.7072 29.1667 36.7792 29.873 36.6385C30.5793 36.4978 31.228 36.1506 31.7371 35.6409C32.2462 35.1311 32.5929 34.4817 32.7333 33.7748C32.8737 33.0679 32.8015 32.3352 32.5258 31.6694C32.2501 31.0035 31.7833 30.4345 31.1844 30.0341C30.5856 29.6338 29.8816 29.4202 29.1615 29.4203C28.5222 29.4203 27.909 29.1661 27.457 28.7137C27.0049 28.2613 26.7509 27.6476 26.7509 27.0078C26.7509 26.3679 27.0049 25.7543 27.457 25.3018C27.909 24.8494 28.5222 24.5952 29.1615 24.5952C30.2738 24.5933 31.3757 24.811 32.4039 25.2358C33.4322 25.6605 34.3667 26.284 35.1539 27.0706C35.9411 27.8572 36.5657 28.7914 36.9918 29.8198C37.4179 30.8482 37.6373 31.9506 37.6373 33.0639C37.6373 34.1772 37.4179 35.2796 36.9918 36.308C36.5657 37.3364 35.9411 38.2706 35.1539 39.0572C34.3667 39.8438 33.4322 40.4672 32.4039 40.892C31.3757 41.3167 30.2738 41.5344 29.1615 41.5325Z" fill="#E6F3FC"/>
<path d="M29.1706 59.4997C27.3021 59.4987 25.4953 58.8309 24.0753 57.6163L2.07173 38.911C1.33124 38.2842 0.793468 37.4517 0.526539 36.519C0.259609 35.5863 0.275537 34.5954 0.572306 33.6718C0.858492 32.7436 1.41727 31.923 2.176 31.3167C2.93472 30.7103 3.85832 30.3462 4.82672 30.2717L6.62555 30.1143C7.05862 30.0786 7.4623 29.8809 7.75593 29.5606C8.04956 29.2402 8.21152 28.8209 8.20945 28.3864V4.35156C8.2108 3.30917 8.62549 2.30987 9.36256 1.57279C10.0996 0.835715 11.0989 0.42103 12.1413 0.419678H46.1978C47.2402 0.42103 48.2395 0.835715 48.9766 1.57279C49.7137 2.30987 50.1284 3.30917 50.1297 4.35156V28.3882C50.1277 28.8233 50.2898 29.2431 50.5838 29.5637C50.8778 29.8844 51.2819 30.0824 51.7155 30.118L53.5068 30.2735C54.476 30.3477 55.4005 30.7119 56.1599 31.3186C56.9194 31.9254 57.4786 32.7466 57.765 33.6755C58.0614 34.5989 58.0772 35.5895 57.8103 36.5218C57.5434 37.4542 57.0057 38.2863 56.2656 38.9129L34.2621 57.6163C32.8436 58.8308 31.038 59.4987 29.1706 59.4997ZM12.1414 4.35156V28.3863C12.1484 29.8059 11.6195 31.1758 10.6602 32.2222C9.70096 33.2687 8.38212 33.9145 6.96731 34.0307L5.16848 34.1881C4.97536 34.205 4.79156 34.2786 4.64018 34.3997C4.4888 34.5208 4.37661 34.684 4.31772 34.8686C4.25883 35.0533 4.25586 35.2513 4.3092 35.4377C4.36254 35.624 4.4698 35.7905 4.61748 35.916L26.6229 54.6212C27.3319 55.2289 28.2349 55.5629 29.1687 55.5629C30.1025 55.5629 31.0054 55.2289 31.7144 54.6212L53.7199 35.9179C53.8676 35.7922 53.9748 35.6256 54.028 35.4391C54.0812 35.2526 54.078 35.0546 54.0189 34.8698C53.9598 34.6851 53.8474 34.522 53.6958 34.4011C53.5442 34.2801 53.3602 34.2067 53.167 34.1901L51.3757 34.0345C49.96 33.919 48.6401 33.2732 47.68 32.2263C46.72 31.1794 46.1906 29.8087 46.1979 28.3882V4.35156H12.1414Z" fill="#625CF9"/>
<path d="M29.4196 45.2943C29.1018 45.2943 28.7872 45.2318 28.4936 45.1102C28.2 44.9887 27.9332 44.8105 27.7085 44.5858C27.4838 44.3611 27.3056 44.0943 27.184 43.8007C27.0624 43.5071 26.9999 43.1924 27 42.8746V39.6209C27 38.9792 27.2549 38.3638 27.7087 37.91C28.1625 37.4562 28.7779 37.2013 29.4196 37.2013C30.0613 37.2013 30.6768 37.4562 31.1305 37.91C31.5843 38.3638 31.8392 38.9792 31.8392 39.6209V42.8746C31.8393 43.1924 31.7768 43.5071 31.6552 43.8007C31.5337 44.0943 31.3554 44.3611 31.1307 44.5858C30.906 44.8105 30.6393 44.9887 30.3457 45.1102C30.0521 45.2318 29.7374 45.2943 29.4196 45.2943ZM29.4196 17.093C29.1018 17.0931 28.7872 17.0305 28.4936 16.909C28.2 16.7874 27.9332 16.6092 27.7085 16.3845C27.4838 16.1598 27.3056 15.893 27.184 15.5994C27.0624 15.3058 26.9999 14.9911 27 14.6734V11.4196C27 10.7779 27.2549 10.1625 27.7087 9.70869C28.1625 9.25492 28.7779 9 29.4196 9C30.0613 9 30.6768 9.25492 31.1305 9.70869C31.5843 10.1625 31.8392 10.7779 31.8392 11.4196V14.6734C31.8393 14.9911 31.7768 15.3058 31.6552 15.5994C31.5337 15.893 31.3554 16.1598 31.1307 16.3845C30.906 16.6092 30.6393 16.7874 30.3457 16.909C30.0521 17.0305 29.7374 17.0931 29.4196 17.093Z" fill="#E6F3FC"/>
</svg>
