<svg width="48" height="48" viewBox="0 0 48 48" fill="none" xmlns="http://www.w3.org/2000/svg">
<path d="M8.54568 26.4501H1.70933C0.765429 26.4501 0.000244141 27.2153 0.000244141 28.1592V45.2501C0.000244141 46.194 0.765429 46.9592 1.70933 46.9592H8.54568C9.48958 46.9592 10.2548 46.194 10.2548 45.2501V28.1592C10.2548 27.2153 9.48958 26.4501 8.54568 26.4501Z" fill="#625CF9"/>
<path d="M27.3457 15.9049H20.5093C20.056 15.9049 19.6213 16.085 19.3008 16.4055C18.9803 16.726 18.8002 17.1607 18.8002 17.614V46.0361C18.8002 46.4894 18.9803 46.9241 19.3008 47.2447C19.6213 47.5652 20.056 47.7452 20.5093 47.7452H27.3457C27.7989 47.7452 28.2336 47.5652 28.5542 47.2447C28.8747 46.9241 29.0547 46.4894 29.0547 46.0361V17.6824C29.064 17.4523 29.0266 17.2226 28.9448 17.0073C28.863 16.792 28.7386 16.5955 28.579 16.4294C28.4194 16.2634 28.2278 16.1314 28.0159 16.0413C27.8039 15.9511 27.576 15.9048 27.3457 15.9049ZM46.1456 5.27441H39.3093C38.856 5.27441 38.4213 5.45448 38.1008 5.77499C37.7802 6.09551 37.6002 6.53022 37.6002 6.9835V46.0361C37.6002 46.4894 37.7802 46.9241 38.1008 47.2447C38.4213 47.5652 38.856 47.7452 39.3093 47.7452H46.1456C46.5989 47.7452 47.0336 47.5652 47.3541 47.2447C47.6746 46.9241 47.8547 46.4894 47.8547 46.0361V7.05186C47.8639 6.82174 47.8265 6.59212 47.7448 6.37681C47.663 6.1615 47.5386 5.96493 47.379 5.79892C47.2193 5.6329 47.0278 5.50086 46.8158 5.41073C46.6039 5.32059 46.3759 5.27423 46.1456 5.27441ZM32.4729 3.30896C32.4649 3.24655 32.4649 3.18337 32.4729 3.12096C32.437 2.97348 32.3854 2.83024 32.3191 2.69369C32.316 2.64817 32.316 2.60249 32.3191 2.55696C32.2225 2.38673 32.095 2.23603 31.9431 2.1126C31.7904 2.00917 31.6234 1.92857 31.4475 1.87333L24.6111 0.16424C24.3814 0.0555556 24.1304 -0.000550788 23.8763 4.07566e-06C23.6222 0.000558939 23.3715 0.0577612 23.1423 0.167447C22.9131 0.277134 22.7112 0.436544 22.5514 0.634075C22.3916 0.831606 22.2778 1.06229 22.2184 1.30933C22.1543 1.53158 22.136 1.76453 22.1646 1.99406C22.1932 2.22359 22.2681 2.44493 22.3847 2.64466C22.5014 2.8444 22.6574 3.01838 22.8432 3.15607C23.0291 3.29376 23.241 3.39229 23.466 3.44569L25.9784 4.09514L0.906069 17.9046C0.501968 18.1348 0.203056 18.513 0.0723365 18.9594C-0.0583827 19.4057 -0.0106969 19.8854 0.205343 20.2973C0.346043 20.5766 0.560675 20.8119 0.825866 20.9776C1.09106 21.1434 1.39664 21.2332 1.70934 21.2373C1.99092 21.2446 2.26901 21.1736 2.51261 21.0322L28.1489 6.94932L27.3457 10.1624C27.2789 10.3858 27.2585 10.6204 27.2858 10.8519C27.3131 11.0834 27.3875 11.3069 27.5043 11.5086C27.6212 11.7103 27.7781 11.886 27.9654 12.0248C28.1526 12.1636 28.3663 12.2627 28.5933 12.3159C28.8177 12.3853 29.0541 12.4078 29.2876 12.3818C29.5211 12.3558 29.7467 12.282 29.9504 12.1649C30.1541 12.0479 30.3314 11.89 30.4714 11.7013C30.6114 11.5126 30.7109 11.2971 30.7638 11.0682L32.4729 3.9926C32.5122 3.76641 32.5122 3.53515 32.4729 3.30896Z" fill="#625CF9"/>
</svg>
