<svg width="377" height="306" viewBox="0 0 377 306" fill="none" xmlns="http://www.w3.org/2000/svg">
<g clip-path="url(#clip0_569_2)">
<path d="M300.969 55.7387C299.01 77.3329 293.431 100.103 284.681 122.073C273.86 149.242 259.076 173.172 241.927 191.276L240.976 190.446C258.042 172.429 272.758 148.604 283.534 121.548C293.272 97.0972 299.064 71.6528 300.292 47.9766L301.508 48.1803C301.379 50.6808 301.199 53.2003 300.969 55.7387Z" fill="#F2F2F2"/>
<path d="M308.769 181.154C284.682 219.504 255.459 246.905 226.483 258.309L225.897 257.233C254.672 245.908 283.724 218.647 307.701 180.473L308.769 181.154Z" fill="#F2F2F2"/>
<path d="M300.384 82.6244C298.426 104.219 292.846 126.989 284.096 148.959C273.275 176.128 258.492 200.058 241.343 218.162L240.391 217.332C257.457 199.314 272.174 175.49 282.949 148.433C292.687 123.983 298.48 98.5386 299.707 74.8623L300.923 75.0661C300.794 77.5666 300.615 80.086 300.384 82.6244Z" fill="#F2F2F2"/>
<path d="M29.9772 138.064H14.1732C13.8355 138.064 13.5021 137.988 13.1979 137.842C12.8937 137.695 12.6266 137.481 12.4167 137.217C12.2094 136.959 12.0631 136.657 11.9888 136.335C11.9146 136.012 11.9143 135.677 11.988 135.354C13.4932 128.708 13.3986 121.798 11.7121 115.196C11.6054 114.761 11.6312 114.304 11.7862 113.884C11.9411 113.464 12.2181 113.1 12.5815 112.839C20.7079 106.99 27.1077 107.16 31.6033 113.345C31.806 113.626 31.9406 113.952 31.9966 114.294C33.1978 121.521 33.2643 128.891 32.1936 136.138C32.1192 136.673 31.8537 137.163 31.4462 137.517C31.0387 137.871 30.5168 138.065 29.9772 138.064Z" fill="#E6E6E6"/>
<path d="M25.0777 122.225H19.6411C19.3405 122.225 19.0521 122.106 18.8396 121.893C18.627 121.68 18.5076 121.392 18.5076 121.091C18.5076 120.79 18.627 120.501 18.8396 120.289C19.0521 120.076 19.3405 119.956 19.6411 119.956H25.0777C25.3779 119.957 25.6656 120.077 25.8777 120.29C26.0897 120.502 26.2088 120.79 26.2088 121.091C26.2088 121.391 26.0897 121.679 25.8777 121.892C25.6656 122.105 25.3779 122.225 25.0777 122.225Z" fill="white"/>
<path d="M25.0777 126.204H19.6411C19.3405 126.204 19.0521 126.084 18.8396 125.871C18.627 125.659 18.5076 125.37 18.5076 125.069C18.5076 124.768 18.627 124.48 18.8396 124.267C19.0521 124.054 19.3405 123.935 19.6411 123.935H25.0777C25.3779 123.935 25.6656 124.055 25.8777 124.268C26.0897 124.481 26.2088 124.769 26.2088 125.069C26.2088 125.37 26.0897 125.658 25.8777 125.87C25.6656 126.083 25.3779 126.203 25.0777 126.204Z" fill="white"/>
<path d="M25.0777 130.182H19.6411C19.3405 130.182 19.0521 130.062 18.8396 129.85C18.627 129.637 18.5076 129.348 18.5076 129.048C18.5076 128.747 18.627 128.458 18.8396 128.245C19.0521 128.033 19.3405 127.913 19.6411 127.913H25.0777C25.3779 127.914 25.6656 128.034 25.8777 128.246C26.0897 128.459 26.2088 128.747 26.2088 129.048C26.2088 129.348 26.0897 129.636 25.8777 129.849C25.6656 130.061 25.3779 130.181 25.0777 130.182Z" fill="white"/>
<path d="M317.198 208.68H301.394C301.057 208.68 300.723 208.605 300.419 208.458C300.115 208.311 299.848 208.098 299.638 207.833C299.431 207.575 299.284 207.273 299.21 206.951C299.136 206.628 299.135 206.293 299.209 205.97C300.714 199.324 300.62 192.414 298.933 185.812C298.827 185.377 298.852 184.92 299.007 184.5C299.162 184.08 299.439 183.716 299.803 183.455C307.929 177.606 314.329 177.776 318.825 183.961C319.027 184.243 319.162 184.568 319.218 184.91C320.419 192.137 320.485 199.507 319.415 206.754C319.34 207.289 319.075 207.779 318.667 208.133C318.26 208.487 317.738 208.681 317.198 208.68Z" fill="#E6E6E6"/>
<path d="M312.299 192.841H306.862C306.562 192.841 306.274 192.721 306.062 192.508C305.85 192.296 305.731 192.007 305.731 191.707C305.731 191.407 305.85 191.118 306.062 190.906C306.274 190.693 306.562 190.573 306.862 190.573H312.299C312.599 190.573 312.888 190.692 313.1 190.905C313.313 191.118 313.432 191.406 313.432 191.707C313.432 192.008 313.313 192.296 313.1 192.509C312.888 192.722 312.599 192.841 312.299 192.841Z" fill="white"/>
<path d="M312.299 196.82H306.862C306.562 196.819 306.274 196.699 306.062 196.487C305.85 196.274 305.731 195.986 305.731 195.685C305.731 195.385 305.85 195.097 306.062 194.884C306.274 194.671 306.562 194.552 306.862 194.551H312.299C312.599 194.551 312.888 194.67 313.1 194.883C313.313 195.096 313.432 195.385 313.432 195.685C313.432 195.986 313.313 196.275 313.1 196.487C312.888 196.7 312.599 196.82 312.299 196.82Z" fill="white"/>
<path d="M312.299 200.798H306.862C306.562 200.797 306.274 200.678 306.062 200.465C305.85 200.252 305.731 199.964 305.731 199.664C305.731 199.363 305.85 199.075 306.062 198.862C306.274 198.65 306.562 198.53 306.862 198.529H312.299C312.599 198.529 312.888 198.649 313.1 198.862C313.313 199.074 313.432 199.363 313.432 199.664C313.432 199.965 313.313 200.253 313.1 200.466C312.888 200.679 312.599 200.798 312.299 200.798Z" fill="white"/>
<path d="M377 305.408C377 305.486 376.985 305.563 376.955 305.635C376.926 305.707 376.882 305.772 376.827 305.827C376.772 305.882 376.707 305.926 376.635 305.955C376.563 305.985 376.486 306 376.409 306H0.591339C0.434506 306 0.284103 305.938 0.173205 305.827C0.0623082 305.716 0 305.565 0 305.408C0 305.251 0.0623082 305.101 0.173205 304.99C0.284103 304.879 0.434506 304.816 0.591339 304.816H376.409C376.486 304.816 376.563 304.831 376.635 304.861C376.707 304.891 376.772 304.934 376.827 304.989C376.882 305.044 376.926 305.11 376.955 305.181C376.985 305.253 377 305.33 377 305.408Z" fill="#CCCCCC"/>
<path d="M99.1377 269.175L98.152 255.455C91.6953 252.225 84.5483 250.621 77.3315 250.783C87.4845 258.637 86.6713 274.334 93.7027 285.076C95.9214 288.41 98.8613 291.201 102.304 293.243C105.748 295.285 109.606 296.526 113.593 296.873L122.043 301.738C123.01 295.344 122.58 288.817 120.783 282.606C118.986 276.395 115.865 270.648 111.635 265.76C109.235 263.042 106.503 260.637 103.502 258.602C101.655 263.908 99.1377 269.175 99.1377 269.175Z" fill="#F2F2F2"/>
<path d="M277.862 271.164L278.848 257.445C285.305 254.214 292.452 252.611 299.668 252.772C289.515 260.626 290.329 276.323 283.297 287.065C281.079 290.399 278.139 293.19 274.695 295.233C271.252 297.275 267.394 298.515 263.407 298.862L254.957 303.727C253.99 297.334 254.42 290.807 256.217 284.596C258.014 278.385 261.135 272.637 265.365 267.749C267.765 265.031 270.497 262.626 273.498 260.591C275.345 265.897 277.862 271.164 277.862 271.164Z" fill="#F2F2F2"/>
<path d="M184.028 116.339C189.242 116.339 193.469 112.109 193.469 106.89C193.469 101.672 189.242 97.4415 184.028 97.4415C178.813 97.4415 174.586 101.672 174.586 106.89C174.586 112.109 178.813 116.339 184.028 116.339Z" fill="#6C63FF"/>
<path d="M188.874 102.952C188.732 102.817 188.544 102.741 188.347 102.741C188.151 102.741 187.962 102.817 187.82 102.952C185.817 104.551 184.018 106.391 182.463 108.429C182.081 107.69 181.699 106.951 181.317 106.211C180.877 105.358 179.59 106.112 180.03 106.964C180.588 108.046 181.147 109.127 181.705 110.208C181.773 110.318 181.867 110.41 181.98 110.473C182.093 110.536 182.22 110.569 182.349 110.569C182.478 110.569 182.605 110.536 182.718 110.473C182.83 110.41 182.925 110.318 182.992 110.208C184.649 107.872 186.63 105.785 188.874 104.007C189.013 103.867 189.091 103.677 189.091 103.48C189.091 103.282 189.013 103.093 188.874 102.952Z" fill="white"/>
<path d="M141.782 133.683L127.544 111.307L144.031 102.471L148.358 119.543L178.847 136.031C180.051 135.597 181.354 135.523 182.599 135.819C183.844 136.114 184.976 136.765 185.858 137.693C186.739 138.621 187.331 139.786 187.563 141.045C187.794 142.304 187.655 143.603 187.161 144.784C186.667 145.965 185.841 146.977 184.782 147.696C183.724 148.415 182.479 148.811 181.2 148.834C179.921 148.858 178.663 148.508 177.579 147.829C176.495 147.149 175.632 146.168 175.095 145.006L141.782 133.683Z" fill="#A0616A"/>
<path d="M117.142 84.4688C112.669 91.0419 128.566 114.935 128.566 114.935C129.341 113.264 136.744 132.025 137.984 130.917C141.508 127.767 147.025 118.993 150.092 118.602C151.845 118.378 146.024 105.932 146.024 105.932C146.024 105.932 143.364 98.5819 139.754 89.1933C138.783 86.52 137.151 84.1362 135.012 82.2637C132.872 80.3912 130.294 79.0908 127.517 78.4838C127.517 78.4838 121.616 77.8958 117.142 84.4688Z" fill="#3F3D56"/>
<path d="M117.361 298.622L124.122 298.622L127.339 272.521L117.359 272.522L117.361 298.622Z" fill="#A0616A"/>
<path d="M115.635 296.413L117.539 296.413L124.969 293.389L128.952 296.412H128.952C131.203 296.413 133.361 297.307 134.953 298.9C136.544 300.493 137.438 302.653 137.438 304.905V305.181L115.636 305.182L115.635 296.413Z" fill="#2F2E41"/>
<path d="M148.774 298.622L155.536 298.622L158.753 272.521L148.773 272.522L148.774 298.622Z" fill="#A0616A"/>
<path d="M147.049 296.413L148.953 296.413L156.383 293.389L160.366 296.412H160.366C162.617 296.413 164.775 297.307 166.367 298.9C167.958 300.493 168.852 302.653 168.852 304.905V305.181L147.05 305.182L147.049 296.413Z" fill="#2F2E41"/>
<path d="M151.701 155.928L107.72 157.029C99.3668 161.569 99.2399 171.396 101.977 183.063C101.977 183.063 101.053 189.998 102.901 191.847C104.749 193.697 105.673 193.697 104.749 196.933C103.825 200.169 108.706 205.455 108.113 206.048C107.52 206.641 106.135 209.878 106.135 209.878L110.754 236.23C110.754 236.23 113.988 281.999 114.912 282.923C115.836 283.848 116.76 282.923 115.836 285.235C114.912 287.547 113.988 286.622 114.912 287.547C115.73 288.43 116.501 289.356 117.222 290.32H128.391C128.391 290.32 129.233 285.697 129.233 285.235C129.233 284.773 130.157 281.999 130.157 281.536C130.157 281.074 129.34 280.257 129.34 280.257C129.058 279.317 128.867 278.352 128.771 277.376C128.771 276.451 125.999 240.853 125.999 240.853L131.543 194.621L144.94 239.928C144.94 239.928 144.94 279.687 145.864 280.612C146.788 281.536 146.788 281.074 146.326 282.923C145.864 284.773 144.016 284.31 145.402 285.697C146.788 287.084 147.25 284.773 146.788 287.084L146.326 289.396L160.185 289.594C160.185 289.594 162.032 285.697 161.109 284.31C160.185 282.923 160.24 283.302 161.367 281.032C162.494 278.763 162.956 278.3 162.494 277.838C162.032 277.376 162.032 274.917 162.032 274.917L159.723 230.682C159.723 230.682 159.261 183.988 159.261 182.601C159.226 181.887 159.357 181.175 159.644 180.521V178.639L157.875 171.968L151.701 155.928Z" fill="#2F2E41"/>
<path d="M125.281 64.4074C132.828 64.4074 138.946 58.2846 138.946 50.7319C138.946 43.1791 132.828 37.0563 125.281 37.0563C117.734 37.0563 111.615 43.1791 111.615 50.7319C111.615 58.2846 117.734 64.4074 125.281 64.4074Z" fill="#A0616A"/>
<path d="M132.114 73.446C135.057 75.1975 136.819 78.4157 137.83 81.6905C139.701 87.7534 140.828 94.0219 141.184 100.358L142.252 119.325L155.477 159.713C144.015 169.418 100.935 161.918 100.935 161.918C100.935 161.918 99.6123 161.477 100.935 160.154C102.257 158.83 103.545 160.003 102.222 158.679C100.9 157.356 101.811 158.83 102.252 157.507C102.693 156.183 102.252 157.066 101.811 156.624C101.371 156.183 105.224 152.213 105.224 152.213L101.697 129.03L97.2893 82.2689C102.579 75.6517 113.217 71.7509 113.217 71.7509L115.966 66.7993L129.71 67.8996L132.114 73.446Z" fill="#3F3D56"/>
<path d="M136.546 43.4663C137.608 44.2591 138.395 45.3652 138.795 46.629C138.949 44.5637 138.959 42.4901 138.825 40.4234C138.664 38.9711 137.642 38.6444 136.459 38.2659C135.391 37.9239 134.182 37.5376 133.857 36.1278C129.562 31.9458 122.084 32.1567 116.966 33.6155C114.15 34.4182 112.53 35.4495 112.385 36.0536L112.355 36.178L112.241 36.2353C110.07 37.3214 109.648 40.7511 109.676 43.437C109.728 48.4974 111.474 54.2448 112.458 54.7117C112.51 54.7364 112.523 54.7267 112.546 54.7079C114.027 53.5235 115.834 54.7979 116.628 55.4907C117.096 52.3456 118.604 49.4483 120.911 47.2614C123.218 45.0746 126.19 43.7244 129.354 43.4266C130.387 43.3266 131.412 43.1547 132.421 42.9119C132.933 42.7793 133.459 42.7102 133.988 42.7061C134.898 42.6923 135.79 42.9575 136.546 43.4663Z" fill="#2F2E41"/>
<path d="M221.377 166.825L247.664 140.111L254.59 118.746L243.445 114.235C237.924 119.808 232.241 136.869 232.241 136.869L214.299 160.967C214.156 161.021 214.013 161.077 213.872 161.143C213.046 161.534 212.335 162.131 211.807 162.877C211.278 163.623 210.952 164.492 210.857 165.401C210.763 166.311 210.905 167.229 211.269 168.067C211.633 168.906 212.207 169.636 212.936 170.188C213.664 170.739 214.523 171.093 215.428 171.216C216.333 171.338 217.255 171.225 218.103 170.887C218.952 170.549 219.699 169.998 220.273 169.286C220.846 168.575 221.227 167.727 221.377 166.825Z" fill="#FFB8B8"/>
<path d="M240.405 116.679L254.499 120.759L254.552 120.749C259.732 119.742 263.831 111.126 266.356 104.075C267.187 101.75 267.104 99.1951 266.125 96.928C265.146 94.661 263.343 92.8506 261.081 91.8628C259.408 91.1454 257.567 90.9108 255.767 91.1854C253.968 91.46 252.28 92.233 250.897 93.4169L243.869 99.4726L240.405 116.679Z" fill="#6C63FF"/>
<path d="M228.346 297.829L220.766 297.828L217.16 268.57L228.347 268.57L228.346 297.829Z" fill="#FFB8B8"/>
<path d="M230.28 295.352L228.146 295.352L219.817 291.962L215.352 295.351H215.352C212.829 295.352 210.409 296.355 208.625 298.14C206.841 299.925 205.839 302.347 205.839 304.871V305.181L230.279 305.182L230.28 295.352Z" fill="#2F2E41"/>
<path d="M261.979 297.829L254.399 297.828L250.794 268.57L261.981 268.57L261.979 297.829Z" fill="#FFB8B8"/>
<path d="M263.913 295.352L261.78 295.352L253.45 291.962L248.986 295.351H248.985C246.462 295.352 244.042 296.355 242.258 298.14C240.474 299.925 239.472 302.347 239.472 304.871V305.181L263.913 305.182L263.913 295.352Z" fill="#2F2E41"/>
<path d="M273.537 171.801C273.537 171.801 274.422 182.43 272.21 192.616C269.997 202.802 269.997 231.49 269.997 231.49L265.129 287.392L250.525 286.063L246.542 192.616L232.381 224.06L233.709 228.489L231.94 229.596C231.94 229.596 233.266 238.233 232.381 238.233C231.496 238.233 229.283 239.561 229.283 239.561L231.053 285.177L216.007 284.735L210.696 220.517L216.449 183.759L216.892 176.673L218.883 176.755L219.897 173.794L221.76 168.701L273.537 171.801Z" fill="#2F2E41"/>
<path d="M274.302 174.034L274.381 173.923C278.593 168.021 272.258 153.839 271.302 151.783L275.327 150.476L274.421 142.767L273.991 139.33L277.067 136.251L277.076 136.175L278.846 120.674L281.42 110.378C282.39 106.486 282.307 102.406 281.181 98.5567C280.054 94.7072 277.924 91.2271 275.009 88.4736L269.06 82.86L261.83 72.1537H250.17L246.173 79.7108C242.297 80.6072 238.858 82.8361 236.455 86.009C234.052 89.1819 232.838 93.0979 233.024 97.0746L233.93 116.894L230.383 141.572L230.381 146.038L226.389 150.477L227.261 154.839L224.223 156.142L222.881 162.406C222.326 163.139 218.662 168.029 218.662 169.365C218.662 169.566 218.81 169.76 219.128 169.975C221.625 171.667 235.426 175.117 241.535 172.671C248.042 170.067 273.907 173.973 274.168 174.013L274.302 174.034Z" fill="#6C63FF"/>
<path d="M254.494 68.6976C263.022 68.6976 269.936 61.779 269.936 53.2444C269.936 44.7098 263.022 37.7911 254.494 37.7911C245.966 37.7911 239.052 44.7098 239.052 53.2444C239.052 61.779 245.966 68.6976 254.494 68.6976Z" fill="#FFB8B8"/>
<path d="M253.015 68.9478C255.406 68.9234 257.791 68.6945 260.144 68.2638C262.472 67.7269 267.611 63.7505 269.011 61.4014C270.052 59.6561 270.676 56.9564 271.017 54.9992C271.477 52.4089 271.389 49.7507 270.757 47.1969C270.125 44.6431 268.965 42.2505 267.35 40.174C266.728 39.3042 265.882 38.6188 264.903 38.1904C264.816 38.159 264.727 38.1316 264.637 38.1084C263.217 37.7735 261.93 37.0215 260.94 35.949C260.748 35.7318 260.54 35.5288 260.319 35.3415C259.208 34.4518 257.903 33.8378 256.51 33.5495C254.26 33.0086 251.041 33.6864 246.943 35.5656C244.884 36.5097 242.599 36.2463 240.838 35.9113C240.739 35.8949 240.638 35.9046 240.544 35.9395C240.45 35.9744 240.367 36.0333 240.303 36.1103C239.576 36.8297 238.604 37.2469 237.582 37.2783C236.956 37.3219 236.322 38.2064 235.557 39.3581C235.384 39.6196 235.181 39.9247 235.034 40.1109L235.005 39.7612L234.661 40.161C234.12 40.7895 233.747 41.5446 233.576 42.3562C233.406 43.1677 233.443 44.0093 233.685 44.8026C233.927 45.5958 234.365 46.3149 234.959 46.8929C235.554 47.4709 236.285 47.8889 237.084 48.1082C237.718 48.2596 238.366 48.3458 239.017 48.3655C239.412 48.3908 239.821 48.417 240.213 48.4747C241.474 48.6993 242.655 49.2471 243.64 50.0646C244.626 50.8822 245.383 51.9416 245.838 53.1394C245.945 53.4162 246.114 53.6647 246.333 53.8655C246.551 54.0664 246.813 54.2143 247.098 54.2979C247.382 54.3815 247.682 54.3985 247.975 54.3476C248.267 54.2967 248.544 54.1793 248.783 54.0044C249.182 53.6768 249.654 53.4505 250.159 53.3449C250.664 53.2393 251.188 53.2576 251.684 53.3981C252.116 53.6239 252.457 53.9915 252.65 54.4391C252.883 54.9373 253.26 55.3546 253.731 55.6377C255.339 56.4154 255.542 60.039 255.05 63.0769C254.576 66.0051 253.545 68.1412 252.542 68.2714C251.77 68.3715 251.683 68.4288 251.631 68.5672L251.584 68.6912L251.674 68.8036C252.105 68.9476 252.562 68.9968 253.015 68.9478Z" fill="#2F2E41"/>
<path d="M240.204 118.331L232.781 108.867C225.221 110.95 211.806 122.917 211.806 122.917L184.255 134.882C183.336 134.727 182.392 134.817 181.518 135.144C180.645 135.471 179.873 136.022 179.28 136.742C178.687 137.462 178.294 138.325 178.14 139.246C177.987 140.166 178.079 141.111 178.406 141.985C178.733 142.858 179.285 143.63 180.005 144.223C180.725 144.816 181.589 145.208 182.509 145.36C183.429 145.513 184.373 145.42 185.245 145.091C186.118 144.763 186.889 144.21 187.48 143.488L223.57 133.412L240.204 118.331Z" fill="#FFB8B8"/>
<path d="M238.425 120.495L250.136 107.43L250.786 98.1722C250.907 96.3543 250.518 94.5387 249.662 92.9307C248.806 91.3227 247.518 89.9863 245.943 89.0725C243.799 87.8482 241.271 87.4841 238.87 88.0538C236.469 88.6235 234.373 90.0845 233.007 92.1414C228.869 98.3828 224.417 106.821 226.707 111.579L226.731 111.627L238.425 120.495Z" fill="#6C63FF"/>
<path d="M130.481 169.603L100.043 154.002C97.8777 152.893 97.1605 149.949 98.4441 147.441L118.291 108.66C119.574 106.152 122.38 105.014 124.545 106.124L154.984 121.725C157.149 122.834 157.866 125.778 156.583 128.286L136.736 167.067C135.452 169.575 132.647 170.713 130.481 169.603Z" fill="#E6E6E6"/>
<path d="M125.281 162.431L104.6 151.832C102.572 150.793 101.901 148.036 103.103 145.687L119.591 113.468C120.793 111.119 123.421 110.054 125.449 111.093L150.426 123.895C152.454 124.934 153.126 127.691 151.924 130.04L142.966 147.543C137.612 158.006 134.313 167.061 125.281 162.431Z" fill="white"/>
<path d="M135.506 144.837L117.188 135.448C116.964 135.289 116.805 135.054 116.74 134.786C116.675 134.519 116.708 134.237 116.833 133.992C116.959 133.747 117.168 133.556 117.423 133.452C117.678 133.349 117.961 133.341 118.222 133.429L136.539 142.817C136.763 142.977 136.922 143.212 136.987 143.48C137.052 143.747 137.019 144.029 136.894 144.274C136.769 144.519 136.559 144.71 136.304 144.814C136.05 144.917 135.766 144.925 135.506 144.837Z" fill="#6C63FF"/>
<path d="M119.327 141.58L115.147 139.438C114.923 139.278 114.764 139.043 114.698 138.776C114.633 138.509 114.666 138.227 114.792 137.982C114.917 137.737 115.126 137.545 115.381 137.442C115.636 137.338 115.92 137.33 116.18 137.419L120.36 139.561C120.584 139.721 120.743 139.956 120.808 140.223C120.874 140.491 120.84 140.773 120.715 141.018C120.59 141.262 120.38 141.454 120.126 141.558C119.871 141.661 119.587 141.669 119.327 141.58Z" fill="#6C63FF"/>
<path d="M124.689 149.365L113.105 143.428C112.881 143.268 112.722 143.033 112.657 142.765C112.592 142.498 112.625 142.216 112.75 141.971C112.876 141.726 113.085 141.535 113.34 141.431C113.595 141.328 113.878 141.32 114.139 141.408L125.722 147.345C125.946 147.505 126.105 147.74 126.171 148.007C126.236 148.275 126.203 148.557 126.077 148.802C125.952 149.047 125.743 149.238 125.488 149.342C125.233 149.445 124.949 149.453 124.689 149.365Z" fill="#6C63FF"/>
<path d="M142.754 130.673L124.437 121.284C124.213 121.125 124.054 120.89 123.989 120.622C123.924 120.355 123.957 120.073 124.082 119.828C124.207 119.583 124.417 119.392 124.671 119.288C124.926 119.185 125.21 119.177 125.47 119.265L143.788 128.653C144.011 128.813 144.171 129.048 144.236 129.316C144.301 129.583 144.268 129.865 144.142 130.11C144.017 130.355 143.808 130.546 143.553 130.65C143.298 130.753 143.015 130.761 142.754 130.673Z" fill="#6C63FF"/>
<path d="M126.575 127.416L122.395 125.274C122.171 125.114 122.012 124.879 121.947 124.612C121.882 124.345 121.915 124.063 122.04 123.818C122.166 123.573 122.375 123.381 122.63 123.278C122.885 123.174 123.168 123.166 123.429 123.255L127.609 125.397C127.833 125.557 127.992 125.792 128.057 126.059C128.122 126.327 128.089 126.609 127.964 126.854C127.838 127.098 127.629 127.29 127.374 127.394C127.119 127.497 126.836 127.505 126.575 127.416Z" fill="#6C63FF"/>
<path d="M131.937 135.201L120.354 129.264C120.13 129.104 119.971 128.869 119.905 128.601C119.84 128.334 119.873 128.052 119.999 127.807C120.124 127.562 120.333 127.371 120.588 127.267C120.843 127.164 121.127 127.156 121.387 127.244L132.971 133.181C133.195 133.341 133.354 133.576 133.419 133.843C133.484 134.111 133.451 134.393 133.326 134.638C133.2 134.883 132.991 135.074 132.736 135.178C132.481 135.281 132.198 135.289 131.937 135.201Z" fill="#6C63FF"/>
<path d="M105.258 135.84L98.3818 110.221L116.758 106.74L115.77 124.325L139.914 149.204C141.192 149.152 142.458 149.473 143.557 150.128C144.656 150.784 145.541 151.745 146.104 152.894C146.666 154.044 146.882 155.333 146.726 156.604C146.569 157.874 146.047 159.072 145.222 160.05C144.397 161.029 143.305 161.746 142.08 162.114C140.855 162.483 139.549 162.487 138.322 162.125C137.095 161.764 135.999 161.053 135.169 160.079C134.338 159.105 133.809 157.91 133.645 156.641L105.258 135.84Z" fill="#A0616A"/>
<path d="M96.5014 81.4964C90.264 86.4243 98.2697 113.989 98.2697 113.989C99.5092 112.627 100.95 132.746 102.465 132.061C106.771 130.114 114.663 123.4 117.705 123.948C119.445 124.261 117.622 110.64 117.622 110.64C117.622 110.64 117.287 102.83 116.657 92.79C116.531 89.9483 115.689 87.1845 114.209 84.756C112.729 82.3275 110.659 80.3132 108.192 78.9007C108.192 78.9007 102.739 76.5685 96.5014 81.4964Z" fill="#3F3D56"/>
<path d="M200.286 192.705L183.676 184.855C183.321 184.688 183.008 184.443 182.761 184.138C182.514 183.833 182.339 183.475 182.25 183.093C182.16 182.719 182.156 182.329 182.238 181.953C182.32 181.577 182.486 181.225 182.723 180.922C187.535 174.768 190.838 167.572 192.37 159.91C192.485 159.323 192.801 158.795 193.262 158.415C193.724 158.035 194.303 157.827 194.9 157.826C203.372 157.855 209.703 160.95 213.718 167.025C213.929 167.341 214.07 167.7 214.129 168.076C214.188 168.452 214.164 168.836 214.06 169.202C211.735 177.22 208.198 184.835 203.571 191.782C203.227 192.307 202.705 192.69 202.101 192.86C201.498 193.029 200.853 192.974 200.286 192.705Z" fill="#E6E6E6"/>
<path d="M205.173 181.696L192.472 175.694C192.156 175.544 191.912 175.276 191.795 174.946C191.677 174.617 191.694 174.255 191.843 173.938C191.993 173.622 192.261 173.378 192.59 173.26C192.919 173.142 193.281 173.16 193.597 173.309L206.298 179.311C206.454 179.385 206.595 179.489 206.711 179.617C206.827 179.745 206.917 179.895 206.975 180.058C207.034 180.221 207.06 180.394 207.051 180.567C207.043 180.74 207 180.91 206.927 181.066C206.853 181.223 206.749 181.363 206.621 181.48C206.492 181.596 206.343 181.686 206.18 181.744C206.017 181.803 205.844 181.829 205.671 181.82C205.499 181.812 205.329 181.769 205.173 181.696Z" fill="white"/>
<path d="M207.146 177.514L194.445 171.512C194.129 171.363 193.886 171.094 193.768 170.765C193.65 170.436 193.667 170.073 193.817 169.757C193.966 169.441 194.234 169.197 194.563 169.079C194.892 168.961 195.255 168.979 195.57 169.128L208.271 175.13C208.587 175.279 208.831 175.548 208.949 175.877C209.066 176.206 209.049 176.569 208.9 176.885C208.75 177.201 208.482 177.445 208.153 177.563C207.824 177.681 207.462 177.663 207.146 177.514Z" fill="white"/>
<path d="M190.175 46.2561L188.993 46.3857C183.722 25.6562 173.505 11.295 159.445 4.85447C141.572 -3.33264 119.471 2.16515 97.2136 20.3353C74.8429 38.5983 55.039 67.4458 41.4503 101.565L40.3032 101.04C53.9515 66.7714 73.8571 37.7845 96.3531 19.42C118.962 0.962749 141.514 -4.57536 159.855 3.82611C174.317 10.4512 184.802 25.1234 190.175 46.2561Z" fill="#F2F2F2"/>
<path d="M59.7461 73.2536C56.6544 79.7715 53.7137 86.5241 51.0056 93.3236C35.4219 132.452 27.5247 172.413 28.1701 208.887L26.9521 208.757C26.3061 172.147 34.226 132.049 49.8585 92.7982C52.5744 85.9795 55.5235 79.2079 58.624 72.6716L59.7461 73.2536Z" fill="#F2F2F2"/>
<path d="M59.1614 100.139C56.0697 106.657 53.129 113.41 50.4209 120.209C34.8372 159.338 26.94 199.298 27.5853 235.773L26.3674 235.643C25.7214 199.033 33.6413 158.934 49.2738 119.684C51.9897 112.865 54.9387 106.094 58.0393 99.5574L59.1614 100.139Z" fill="#F2F2F2"/>
<path d="M26.4259 109.917C27.7723 107.892 26.9753 104.993 24.6459 103.442C22.3165 101.891 19.3367 102.276 17.9903 104.301C16.6439 106.326 17.4408 109.225 19.7703 110.776C22.0997 112.327 25.0795 111.943 26.4259 109.917Z" fill="#CCCCCC"/>
<path d="M313.121 183.054C314.468 181.029 313.671 178.13 311.341 176.579C309.012 175.028 306.032 175.413 304.686 177.438C303.339 179.463 304.136 182.362 306.466 183.913C308.795 185.464 311.775 185.08 313.121 183.054Z" fill="#CCCCCC"/>
</g>
<defs>
<clipPath id="clip0_569_2">
<rect width="377" height="306" fill="white"/>
</clipPath>
</defs>
</svg>
