<svg width="96" height="70" viewBox="0 0 96 70" fill="none" xmlns="http://www.w3.org/2000/svg">
<path d="M6 18.25C9.31371 18.25 12 15.5637 12 12.25C12 8.93629 9.31371 6.25 6 6.25C2.68629 6.25 0 8.93629 0 12.25C0 15.5637 2.68629 18.25 6 18.25Z" fill="#625CF9"/>
<path d="M43.5 70C46.8137 70 49.5 67.3137 49.5 64C49.5 60.6863 46.8137 58 43.5 58C40.1863 58 37.5 60.6863 37.5 64C37.5 67.3137 40.1863 70 43.5 70Z" fill="#625CF9"/>
<path d="M39 38.5C42.3137 38.5 45 35.8137 45 32.5C45 29.1863 42.3137 26.5 39 26.5C35.6863 26.5 33 29.1863 33 32.5C33 35.8137 35.6863 38.5 39 38.5Z" fill="#625CF9"/>
<path d="M63 53.5C66.3137 53.5 69 50.8137 69 47.5C69 44.1863 66.3137 41.5 63 41.5C59.6863 41.5 57 44.1863 57 47.5C57 50.8137 59.6863 53.5 63 53.5Z" fill="#625CF9"/>
<path d="M83.25 65.5C86.5637 65.5 89.25 62.8137 89.25 59.5C89.25 56.1863 86.5637 53.5 83.25 53.5C79.9363 53.5 77.25 56.1863 77.25 59.5C77.25 62.8137 79.9363 65.5 83.25 65.5Z" fill="#625CF9"/>
<path d="M12 60.25C15.3137 60.25 18 57.5637 18 54.25C18 50.9363 15.3137 48.25 12 48.25C8.68629 48.25 6 50.9363 6 54.25C6 57.5637 8.68629 60.25 12 60.25Z" fill="#625CF9"/>
<path d="M90 29.5C93.3137 29.5 96 26.8137 96 23.5C96 20.1863 93.3137 17.5 90 17.5C86.6863 17.5 84 20.1863 84 23.5C84 26.8137 86.6863 29.5 90 29.5Z" fill="#625CF9"/>
<path d="M72 12C75.3137 12 78 9.31371 78 6C78 2.68629 75.3137 0 72 0C68.6863 0 66 2.68629 66 6C66 9.31371 68.6863 12 72 12Z" fill="#625CF9"/>
<path d="M69.906 53.2623L74.8559 56.2795C75.2168 55.3391 75.733 54.466 76.3829 53.6965L71.4135 50.668C71.0597 51.611 70.5501 52.488 69.906 53.2623ZM82.3274 28.18L78.9194 31.1418L75.198 12.4023C74.2572 12.7617 73.2624 12.9595 72.2557 12.9873L76.311 33.4083L68.3789 40.3008C69.1879 40.9026 69.8908 41.6352 70.4587 42.4683L76.9837 36.7983L79.8397 51.1758C80.7723 50.7953 81.7625 50.5752 82.7684 50.5248L79.5922 34.531L84.2887 30.4503C83.5134 29.8077 82.8505 29.0405 82.3274 28.18ZM51.1349 59.26L56.985 54.1758C56.2346 53.503 55.6019 52.7095 55.113 51.8283L49.1535 57.007C49.9345 57.6424 50.6042 58.4044 51.1349 59.26ZM64.2802 8.60352L44.5357 25.4185C45.329 26.0398 46.0132 26.7891 46.56 27.6355L66.2212 10.891C65.4516 10.2417 64.7956 9.4686 64.2802 8.60352ZM56.3325 41.476L47.3017 35.971C46.9089 36.8986 46.3634 37.7537 45.6877 38.5008L54.7087 43.999C55.1052 43.0732 55.654 42.2204 56.3325 41.476ZM12.6089 18.3385L30.597 29.3028C30.9546 28.3614 31.4678 27.4868 32.1149 26.7153L14.2544 15.8275C13.8503 16.7503 13.2944 17.5988 12.6097 18.3378L12.6089 18.3385ZM25.3634 41.7468L18.2594 47.7978C18.9833 48.5016 19.5841 49.3217 20.0369 50.224L27.1334 44.1805L37.0147 57.7758C37.712 57.0496 38.5257 56.445 39.4222 55.987L29.4247 42.2298L32.9984 39.187C32.2473 38.5156 31.6136 37.7234 31.1234 36.8433L27.6562 39.796L12.2999 18.6678C11.5797 19.3719 10.7467 19.9507 9.83545 20.38L25.3634 41.7468Z" fill="#625CF9"/>
</svg>
