<svg width="91" height="67" viewBox="0 0 91 67" fill="none" xmlns="http://www.w3.org/2000/svg">
<path d="M19.9834 39.0733C20.1743 38.2366 20.637 37.4465 21.3679 36.8083C22.1024 36.1746 22.9992 35.7925 23.9291 35.6518L38.8788 32.759L34.5536 35.6296L41.3817 57.0333L45.2265 41.1348L49.0731 57.0338L55.898 35.6301L51.5747 32.7595L66.5243 35.6523C67.4542 35.7929 68.3506 36.1746 69.086 36.8087C69.8169 37.4469 70.2801 38.237 70.47 39.0738L74.9023 58.5426L66.5411 61.4439C63.7654 64.3295 55.9953 66.452 46.6761 66.6542H43.7778C34.4586 66.4525 26.6894 64.3295 23.9128 61.4439L15.5511 58.5426L19.9834 39.0733Z" fill="#625CF9"/>
<path d="M45.2267 34.9327L48.6726 36.1665L45.2267 41.1348L41.7799 36.1665L45.2267 34.9327ZM32.4321 15.761C32.4321 6.92485 36.0685 0 45.2267 0C54.3858 0 58.0203 6.9253 58.0203 15.761C58.9782 16.2608 59.6073 17.4336 58.6666 19.9469C58.1922 21.2087 57.3559 22.2662 56.6463 22.8197C54.0362 29.3181 48.9032 34.3348 45.2267 34.3348C41.5501 34.3348 36.4167 29.3181 33.808 22.8197C33.0974 22.2662 32.2625 21.2083 31.7867 19.9469C30.846 17.4331 31.4747 16.2608 32.4321 15.761ZM76.0016 54.1021C80.2693 53.5978 83.6333 52.4445 85.0331 50.99L90.4546 49.1085L87.5808 36.4858C87.4573 35.9435 87.1566 35.4306 86.683 35.0177C86.2113 34.6161 85.6355 34.3561 85.0223 34.2678L74.5226 31.8631C76.1024 30.5121 77.6361 28.3936 78.6171 25.9473C79.0775 25.5891 79.6198 24.9034 79.9278 24.0848C80.5384 22.4561 80.1304 21.6958 79.509 21.3711C79.509 15.6425 77.1535 11.1528 71.2146 11.1528H71.2133C65.2758 11.1528 62.9189 15.6425 62.9189 21.3711C62.2975 21.6958 61.8895 22.4561 62.4992 24.0848C62.8077 24.9034 63.35 25.5891 63.8104 25.9473C64.7914 28.3932 66.3255 30.5117 67.9049 31.8631L63.2622 32.9268L66.8764 33.6256C68.2106 33.8336 69.4394 34.3967 70.4381 35.2592C71.4761 36.1661 72.1816 37.3266 72.476 38.6165L76.0016 54.1021ZM2.87254 36.4854C2.99692 35.9431 3.29678 35.4302 3.77031 35.0173C4.24611 34.6066 4.82729 34.3578 5.43108 34.2674L15.9303 31.8626C14.3505 30.5117 12.8173 28.3932 11.8349 25.9468C11.374 25.5886 10.8331 24.9029 10.5251 24.0843C9.91452 22.4557 10.3225 21.6954 10.9435 21.3706C10.9435 15.6421 13.3016 11.1523 19.2396 11.1523C25.178 11.1523 27.5349 15.6421 27.5349 21.3706C28.1554 21.6954 28.5638 22.4557 27.9532 24.0843C27.6461 24.9029 27.1038 25.5886 26.6434 25.9468C25.6615 28.3927 24.1278 30.5112 22.548 31.8626L27.1916 32.9264L23.5774 33.6252C22.2441 33.8332 21.0144 34.3963 20.0243 35.2506C18.9777 36.1651 18.2736 37.3261 17.9791 38.6142L14.4531 54.1021C10.1854 53.5978 6.82139 52.4445 5.42113 50.99L0.000114441 49.1085L2.87254 36.4854Z" fill="#625CF9"/>
</svg>
